999
dxfrw 0.6.3
  0
SECTION
  2
HEADER
  9
$ACADVER
  1
AC1021
  9
$DWGCODEPAGE
  3
ANSI_1252
  9
$INSBASE
 10
0
 20
0
 30
0
  9
$EXTMIN
 10
4.467789571683106
 20
-0.929891581632655
 30
0
  9
$EXTMAX
 10
24.21808801020414
 20
17.75
 30
0
  9
$LIMMIN
 10
0
 20
0
  9
$LIMMAX
 10
420
 20
297
  9
$ORTHOMODE
 70
    0
  9
$REGENMODE
 70
    1
  9
$FILLMODE
 70
    1
  9
$QTEXTMODE
 70
    0
  9
$MIRRTEXT
 70
    0
  9
$LTSCALE
 40
1
  9
$ATTMODE
 70
    0
  9
$TEXTSIZE
 40
2.5
  9
$TRACEWID
 40
15.68
  9
$TEXTSTYLE
  7
STANDARD
  9
$CLAYER
  8
ends
  9
$CELTYPE
  6
BYLAYER
  9
$CECOLOR
 62
  256
  9
$CELTSCALE
 40
1
  9
$DISPSILH
 70
    0
  9
$DIMSCALE
 40
1
  9
$DIMASZ
 40
0.25
  9
$DIMEXO
 40
0.125
  9
$DIMDLI
 40
3.75
  9
$DIMRND
 40
0
  9
$DIMDLE
 40
0
  9
$DIMEXE
 40
0.125
  9
$DIMTP
 40
0
  9
$DIMTM
 40
0
  9
$DIMTXT
 40
0.25
  9
$DIMCEN
 40
2.5
  9
$DIMTSZ
 40
0
  9
$DIMTOL
 70
    0
  9
$DIMLIM
 70
    0
  9
$DIMTIH
 70
    0
  9
$DIMTOH
 70
    0
  9
$DIMSE1
 70
    0
  9
$DIMSE2
 70
    0
  9
$DIMTAD
 70
    1
  9
$DIMZIN
 70
    8
  9
$DIMBLK
  1

  9
$DIMASO
 70
    1
  9
$DIMSHO
 70
    1
  9
$DIMPOST
  1

  9
$DIMAPOST
  1

  9
$DIMALT
 70
    0
  9
$DIMALTD
 70
    3
  9
$DIMALTF
 40
0.03937
  9
$DIMLFAC
 40
1
  9
$DIMTOFL
 70
    1
  9
$DIMTVP
 40
0
  9
$DIMTIX
 70
    0
  9
$DIMSOXD
 70
    0
  9
$DIMSAH
 70
    0
  9
$DIMBLK1
  1

  9
$DIMBLK2
  1

  9
$DIMSTYLE
  2
STANDARD
  9
$DIMCLRD
 70
    0
  9
$DIMCLRE
 70
    0
  9
$DIMCLRT
 70
    0
  9
$DIMTFAC
 40
1
  9
$DIMGAP
 40
0.125
  9
$DIMJUST
 70
    0
  9
$DIMSD1
 70
    0
  9
$DIMSD2
 70
    0
  9
$DIMTOLJ
 70
    0
  9
$DIMTZIN
 70
    8
  9
$DIMALTZ
 70
    0
  9
$DIMALTTZ
 70
    0
  9
$DIMUPT
 70
    0
  9
$DIMDEC
 70
    4
  9
$DIMTDEC
 70
    2
  9
$DIMALTU
 70
    2
  9
$DIMALTTD
 70
    3
  9
$DIMTXSTY
  7
standard
  9
$DIMAUNIT
 70
    0
  9
$DIMADEC
 70
    2
  9
$DIMALTRND
 40
0
  9
$DIMAZIN
 70
    0
  9
$DIMDSEP
 70
    0
  9
$DIMATFIT
 70
    3
  9
$DIMFRAC
 70
    0
  9
$DIMLDRBLK
  1
STANDARD
  9
$DIMLUNIT
 70
    2
  9
$DIMLWD
 70
   -2
  9
$DIMLWE
 70
   -2
  9
$DIMTMOVE
 70
    0
  9
$DIMFXL
 40
1
  9
$DIMFXLON
 70
    0
  9
$DIMJOGANG
 40
0.7854
  9
$DIMTFILL
 70
    0
  9
$DIMTFILLCLR
 70
    0
  9
$DIMARCSYM
 70
    0
  9
$DIMLTYPE
  6

  9
$DIMLTEX1
  6

  9
$DIMLTEX2
  6

  9
$LUNITS
 70
    2
  9
$LUPREC
 70
    4
  9
$SKETCHINC
 40
1
  9
$FILLETRAD
 40
0
  9
$AUNITS
 70
    0
  9
$AUPREC
 70
    2
  9
$MENU
  1
.
  9
$ELEVATION
 40
0
  9
$PELEVATION
 40
0
  9
$THICKNESS
 40
0
  9
$LIMCHECK
 70
    0
  9
$CHAMFERA
 40
0
  9
$CHAMFERB
 40
0
  9
$CHAMFERC
 40
0
  9
$CHAMFERD
 40
0
  9
$SKPOLY
 70
    0
  9
$USRTIMER
 70
    1
  9
$ANGBASE
 50
0
  9
$ANGDIR
 70
    0
  9
$PDMODE
 70
   34
  9
$PDSIZE
 40
0
  9
$PLINEWID
 40
0
  9
$SPLFRAME
 70
    0
  9
$SPLINETYPE
 70
    2
  9
$SPLINESEGS
 70
    8
  9
$HANDSEED
  5
20000
  9
$SURFTAB1
 70
    6
  9
$SURFTAB2
 70
    6
  9
$SURFTYPE
 70
    6
  9
$SURFU
 70
    6
  9
$SURFV
 70
    6
  9
$UCSBASE
  2

  9
$UCSNAME
  2

  9
$UCSORG
 10
0
 20
0
 30
0
  9
$UCSXDIR
 10
1
 20
0
 30
0
  9
$UCSYDIR
 10
0
 20
1
 30
0
  9
$UCSORTHOREF
  2

  9
$UCSORTHOVIEW
 70
    0
  9
$UCSORGTOP
 10
0
 20
0
 30
0
  9
$UCSORGBOTTOM
 10
0
 20
0
 30
0
  9
$UCSORGLEFT
 10
0
 20
0
 30
0
  9
$UCSORGRIGHT
 10
0
 20
0
 30
0
  9
$UCSORGFRONT
 10
0
 20
0
 30
0
  9
$UCSORGBACK
 10
0
 20
0
 30
0
  9
$PUCSBASE
  2

  9
$PUCSNAME
  2

  9
$PUCSORG
 10
0
 20
0
 30
0
  9
$PUCSXDIR
 10
1
 20
0
 30
0
  9
$PUCSYDIR
 10
0
 20
1
 30
0
  9
$PUCSORTHOREF
  2

  9
$PUCSORTHOVIEW
 70
    0
  9
$PUCSORGTOP
 10
0
 20
0
 30
0
  9
$PUCSORGBOTTOM
 10
0
 20
0
 30
0
  9
$PUCSORGLEFT
 10
0
 20
0
 30
0
  9
$PUCSORGRIGHT
 10
0
 20
0
 30
0
  9
$PUCSORGFRONT
 10
0
 20
0
 30
0
  9
$PUCSORGBACK
 10
0
 20
0
 30
0
  9
$USERI1
 70
    0
  9
$USERI2
 70
    0
  9
$USERI3
 70
    0
  9
$USERI4
 70
    0
  9
$USERI5
 70
    0
  9
$USERR1
 40
0
  9
$USERR2
 40
0
  9
$USERR3
 40
0
  9
$USERR4
 40
0
  9
$USERR5
 40
0
  9
$WORLDVIEW
 70
    1
  9
$SHADEDGE
 70
    3
  9
$SHADEDIF
 70
   70
  9
$TILEMODE
 70
    1
  9
$MAXACTVP
 70
   64
  9
$PINSBASE
 10
0
 20
0
 30
0
  9
$PLIMCHECK
 70
    0
  9
$PEXTMIN
 10
0
 20
0
 30
0
  9
$PEXTMAX
 10
0
 20
0
 30
0
  9
$GRIDMODE
 70
    1
  9
$SNAPSTYLE
 70
    0
  9
$GRIDUNIT
 10
0
 20
0
  9
$PLIMMIN
 10
0
 20
0
  9
$PLIMMAX
 10
11.69291338582677
 20
8.267716535433072
  9
$UNITMODE
 70
    0
  9
$VISRETAIN
 70
    1
  9
$PLINEGEN
 70
    0
  9
$PSLTSCALE
 70
    1
  9
$TREEDEPTH
 70
 3020
  9
$CMLSTYLE
  2
Standard
  9
$CMLJUST
 70
    0
  9
$CMLSCALE
 40
20
  9
$PROXYGRAPHICS
 70
    1
  9
$MEASUREMENT
 70
    1
  9
$CELWEIGHT
370
   -1
  9
$ENDCAPS
280
    0
  9
$JOINSTYLE
280
    0
  9
$LWDISPLAY
290
    0
  9
$INSUNITS
 70
    1
  9
$HYPERLINKBASE
  1

  9
$STYLESHEET
  1

  9
$XEDIT
290
    1
  9
$CEPSNTYPE
380
    0
  9
$PSTYLEMODE
290
    1
  9
$EXTNAMES
290
    1
  9
$PSVPSCALE
 40
0
  9
$OLESTARTUP
290
    0
  9
$SORTENTS
280
  127
  9
$INDEXCTL
280
    0
  9
$HIDETEXT
280
    1
  9
$XCLIPFRAME
290
    0
  9
$HALOGAP
280
    0
  9
$OBSCOLOR
 70
  257
  9
$OBSLTYPE
280
    0
  9
$INTERSECTIONDISPLAY
280
    0
  9
$INTERSECTIONCOLOR
 70
  257
  9
$DIMASSOC
280
    1
  9
$PROJECTNAME
  1

  9
$CAMERADISPLAY
290
    0
  9
$LENSLENGTH
 40
50
  9
$CAMERAHEIGHT
 40
0
  9
$STEPSPERSEC
 40
2
  9
$STEPSIZE
 40
50
  9
$3DDWFPREC
 40
2
  9
$PSOLWIDTH
 40
5
  9
$PSOLHEIGHT
 40
80
  9
$LOFTANG1
 40
1.570796326794897
  9
$LOFTANG2
 40
1.570796326794897
  9
$LOFTMAG1
 40
0
  9
$LOFTMAG2
 40
0
  9
$LOFTPARAM
 70
    7
  9
$LOFTNORMALS
280
    1
  9
$LATITUDE
 40
1
  9
$LONGITUDE
 40
1
  9
$NORTHDIRECTION
 40
0
  9
$TIMEZONE
 70
-8000
  9
$LIGHTGLYPHDISPLAY
280
    1
  9
$TILEMODELIGHTSYNCH
280
    1
  9
$SOLIDHIST
280
    1
  9
$SHOWHIST
280
    1
  9
$DWFFRAME
280
    2
  9
$DGNFRAME
280
    0
  9
$REALWORLDSCALE
290
    1
  9
$INTERFERECOLOR
 62
    1
  9
$CSHADOW
280
    0
  9
$SHADOWPLANELOCATION
 40
0
  0
ENDSEC
  0
SECTION
  2
CLASSES
  0
ENDSEC
  0
SECTION
  2
TABLES
  0
TABLE
  2
VPORT
  5
8
330
0
100
AcDbSymbolTable
 70
    1
  0
VPORT
  5
31
330
2
100
AcDbSymbolTableRecord
100
AcDbViewportTableRecord
  2
*ACTIVE
 70
    0
 10
0
 20
0
 11
1
 21
1
 12
16.61890864564895
 22
8.994463102125419
 13
0
 23
0
 14
10
 24
10
 15
10
 25
10
 16
0
 26
0
 36
1
 17
0
 27
0
 37
0
 40
19.15641942810288
 41
1.972636815920398
 42
50
 43
0
 44
0
 50
0
 51
0
 71
    0
 72
  100
 73
    1
 74
    3
 75
    0
 76
    1
 77
    0
 78
    0
281
    0
 65
    1
110
0
120
0
130
0
111
1
121
0
131
0
112
0
122
1
132
0
 79
    0
146
0
348
10020
 60
    7
 61
    5
292
1
282
    1
141
0
142
0
 63
  250
421
3358443
  0
ENDTAB
  0
TABLE
  2
LTYPE
  5
5
330
0
100
AcDbSymbolTable
 70
    4
  0
LTYPE
  5
14
330
5
100
AcDbSymbolTableRecord
100
AcDbLinetypeTableRecord
  2
ByBlock
 70
    0
  3

 72
   65
 73
    0
 40
0
  0
LTYPE
  5
15
330
5
100
AcDbSymbolTableRecord
100
AcDbLinetypeTableRecord
  2
ByLayer
 70
    0
  3

 72
   65
 73
    0
 40
0
  0
LTYPE
  5
16
330
5
100
AcDbSymbolTableRecord
100
AcDbLinetypeTableRecord
  2
Continuous
 70
    0
  3
Solid line
 72
   65
 73
    0
 40
0
  0
LTYPE
  5
32
330
5
100
AcDbSymbolTableRecord
100
AcDbLinetypeTableRecord
  2
DOT
 70
    0
  3
Dot . . . . . . . . . . . . . . . . . . . . . .
 72
   65
 73
    2
 40
6.35
 49
0
 74
    0
 49
-6.35
 74
    0
  0
LTYPE
  5
33
330
5
100
AcDbSymbolTableRecord
100
AcDbLinetypeTableRecord
  2
DOTTINY
 70
    0
  3
Dot (.15x) .....................................
 72
   65
 73
    2
 40
0.9525
 49
0
 74
    0
 49
-0.9525
 74
    0
  0
LTYPE
  5
34
330
5
100
AcDbSymbolTableRecord
100
AcDbLinetypeTableRecord
  2
DOT2
 70
    0
  3
Dot (.5x) .....................................
 72
   65
 73
    2
 40
3.175
 49
0
 74
    0
 49
-3.175
 74
    0
  0
LTYPE
  5
35
330
5
100
AcDbSymbolTableRecord
100
AcDbLinetypeTableRecord
  2
DOTX2
 70
    0
  3
Dot (2x) .  .  .  .  .  .  .  .  .  .  .  .  .
 72
   65
 73
    2
 40
12.7
 49
0
 74
    0
 49
-12.7
 74
    0
  0
LTYPE
  5
36
330
5
100
AcDbSymbolTableRecord
100
AcDbLinetypeTableRecord
  2
DASHED
 70
    0
  3
Dashed _ _ _ _ _ _ _ _ _ _ _ _ _ _ _ _ _
 72
   65
 73
    2
 40
19.05
 49
12.7
 74
    0
 49
-6.35
 74
    0
  0
LTYPE
  5
37
330
5
100
AcDbSymbolTableRecord
100
AcDbLinetypeTableRecord
  2
DASHEDTINY
 70
    0
  3
Dashed (.15x) _ _ _ _ _ _ _ _ _ _ _ _ _ _ _ _ _
 72
   65
 73
    2
 40
2.8575
 49
1.905
 74
    0
 49
-0.9525
 74
    0
  0
LTYPE
  5
38
330
5
100
AcDbSymbolTableRecord
100
AcDbLinetypeTableRecord
  2
DASHED2
 70
    0
  3
Dashed (.5x) _ _ _ _ _ _ _ _ _ _ _ _ _ _ _ _ _
 72
   65
 73
    2
 40
9.524999999999999
 49
6.35
 74
    0
 49
-3.175
 74
    0
  0
LTYPE
  5
39
330
5
100
AcDbSymbolTableRecord
100
AcDbLinetypeTableRecord
  2
DASHEDX2
 70
    0
  3
Dashed (2x) ____  ____  ____  ____  ____  ___
 72
   65
 73
    2
 40
38.09999999999999
 49
25.4
 74
    0
 49
-12.7
 74
    0
  0
LTYPE
  5
3A
330
5
100
AcDbSymbolTableRecord
100
AcDbLinetypeTableRecord
  2
DASHDOT
 70
    0
  3
Dash dot __ . __ . __ . __ . __ . __ . __ . __
 72
   65
 73
    4
 40
25.4
 49
12.7
 74
    0
 49
-6.35
 74
    0
 49
0
 74
    0
 49
-6.35
 74
    0
  0
LTYPE
  5
3B
330
5
100
AcDbSymbolTableRecord
100
AcDbLinetypeTableRecord
  2
DASHDOTTINY
 70
    0
  3
Dash dot (.15x) _._._._._._._._._._._._._._._.
 72
   65
 73
    4
 40
3.81
 49
1.905
 74
    0
 49
-0.9525
 74
    0
 49
0
 74
    0
 49
-0.9525
 74
    0
  0
LTYPE
  5
3C
330
5
100
AcDbSymbolTableRecord
100
AcDbLinetypeTableRecord
  2
DASHDOT2
 70
    0
  3
Dash dot (.5x) _._._._._._._._._._._._._._._.
 72
   65
 73
    4
 40
12.7
 49
6.35
 74
    0
 49
-3.175
 74
    0
 49
0
 74
    0
 49
-3.175
 74
    0
  0
LTYPE
  5
3D
330
5
100
AcDbSymbolTableRecord
100
AcDbLinetypeTableRecord
  2
DASHDOTX2
 70
    0
  3
Dash dot (2x) ____  .  ____  .  ____  .  ___
 72
   65
 73
    4
 40
50.8
 49
25.4
 74
    0
 49
-12.7
 74
    0
 49
0
 74
    0
 49
-12.7
 74
    0
  0
LTYPE
  5
3E
330
5
100
AcDbSymbolTableRecord
100
AcDbLinetypeTableRecord
  2
DIVIDE
 70
    0
  3
Divide ____ . . ____ . . ____ . . ____ . . ____
 72
   65
 73
    6
 40
31.75
 49
12.7
 74
    0
 49
-6.35
 74
    0
 49
0
 74
    0
 49
-6.35
 74
    0
 49
0
 74
    0
 49
-6.35
 74
    0
  0
LTYPE
  5
3F
330
5
100
AcDbSymbolTableRecord
100
AcDbLinetypeTableRecord
  2
DIVIDETINY
 70
    0
  3
Divide (.15x) __..__..__..__..__..__..__..__.._
 72
   65
 73
    6
 40
4.7625
 49
1.905
 74
    0
 49
-0.9525
 74
    0
 49
0
 74
    0
 49
-0.9525
 74
    0
 49
0
 74
    0
 49
-0.9525
 74
    0
  0
LTYPE
  5
40
330
5
100
AcDbSymbolTableRecord
100
AcDbLinetypeTableRecord
  2
DIVIDE2
 70
    0
  3
Divide (.5x) __..__..__..__..__..__..__..__.._
 72
   65
 73
    6
 40
15.875
 49
6.35
 74
    0
 49
-3.175
 74
    0
 49
0
 74
    0
 49
-3.175
 74
    0
 49
0
 74
    0
 49
-3.175
 74
    0
  0
LTYPE
  5
41
330
5
100
AcDbSymbolTableRecord
100
AcDbLinetypeTableRecord
  2
DIVIDEX2
 70
    0
  3
Divide (2x) ________  .  .  ________  .  .  _
 72
   65
 73
    6
 40
63.5
 49
25.4
 74
    0
 49
-12.7
 74
    0
 49
0
 74
    0
 49
-12.7
 74
    0
 49
0
 74
    0
 49
-12.7
 74
    0
  0
LTYPE
  5
42
330
5
100
AcDbSymbolTableRecord
100
AcDbLinetypeTableRecord
  2
BORDER
 70
    0
  3
Border __ __ . __ __ . __ __ . __ __ . __ __ .
 72
   65
 73
    6
 40
44.45
 49
12.7
 74
    0
 49
-6.35
 74
    0
 49
12.7
 74
    0
 49
-6.35
 74
    0
 49
0
 74
    0
 49
-6.35
 74
    0
  0
LTYPE
  5
43
330
5
100
AcDbSymbolTableRecord
100
AcDbLinetypeTableRecord
  2
BORDERTINY
 70
    0
  3
Border (.15x) __.__.__.__.__.__.__.__.__.__.__.
 72
   65
 73
    6
 40
6.6675
 49
1.905
 74
    0
 49
-0.9525
 74
    0
 49
1.905
 74
    0
 49
-0.9525
 74
    0
 49
0
 74
    0
 49
-0.9525
 74
    0
  0
LTYPE
  5
44
330
5
100
AcDbSymbolTableRecord
100
AcDbLinetypeTableRecord
  2
BORDER2
 70
    0
  3
Border (.5x) __.__.__.__.__.__.__.__.__.__.__.
 72
   65
 73
    6
 40
22.225
 49
6.35
 74
    0
 49
-3.175
 74
    0
 49
6.35
 74
    0
 49
-3.175
 74
    0
 49
0
 74
    0
 49
-3.175
 74
    0
  0
LTYPE
  5
45
330
5
100
AcDbSymbolTableRecord
100
AcDbLinetypeTableRecord
  2
BORDERX2
 70
    0
  3
Border (2x) ____  ____  .  ____  ____  .  ___
 72
   65
 73
    6
 40
88.89999999999999
 49
25.4
 74
    0
 49
-12.7
 74
    0
 49
25.4
 74
    0
 49
-12.7
 74
    0
 49
0
 74
    0
 49
-12.7
 74
    0
  0
LTYPE
  5
46
330
5
100
AcDbSymbolTableRecord
100
AcDbLinetypeTableRecord
  2
CENTER
 70
    0
  3
Center ____ _ ____ _ ____ _ ____ _ ____ _ ____
 72
   65
 73
    4
 40
50.8
 49
31.75
 74
    0
 49
-6.35
 74
    0
 49
6.35
 74
    0
 49
-6.35
 74
    0
  0
LTYPE
  5
47
330
5
100
AcDbSymbolTableRecord
100
AcDbLinetypeTableRecord
  2
CENTERTINY
 70
    0
  3
Center (.15x) ___ _ ___ _ ___ _ ___ _ ___ _ ___
 72
   65
 73
    4
 40
7.619999999999999
 49
4.7625
 74
    0
 49
-0.9525
 74
    0
 49
0.9525
 74
    0
 49
-0.9525
 74
    0
  0
LTYPE
  5
48
330
5
100
AcDbSymbolTableRecord
100
AcDbLinetypeTableRecord
  2
CENTER2
 70
    0
  3
Center (.5x) ___ _ ___ _ ___ _ ___ _ ___ _ ___
 72
   65
 73
    4
 40
28.575
 49
19.05
 74
    0
 49
-3.175
 74
    0
 49
3.175
 74
    0
 49
-3.175
 74
    0
  0
LTYPE
  5
49
330
5
100
AcDbSymbolTableRecord
100
AcDbLinetypeTableRecord
  2
CENTERX2
 70
    0
  3
Center (2x) ________  __  ________  __  _____
 72
   65
 73
    4
 40
101.6
 49
63.5
 74
    0
 49
-12.7
 74
    0
 49
12.7
 74
    0
 49
-12.7
 74
    0
  0
ENDTAB
  0
TABLE
  2
LAYER
  5
2
330
0
100
AcDbSymbolTable
 70
    1
  0
LAYER
  5
10
330
2
100
AcDbSymbolTableRecord
100
AcDbLayerTableRecord
  2
0
 70
    1
 62
    7
  6
CONTINUOUS
370
    0
390
F
  0
LAYER
  5
4A
330
2
100
AcDbSymbolTableRecord
100
AcDbLayerTableRecord
  2
bottom
 70
    1
 62
    7
  6
CONTINUOUS
370
   13
390
F
  0
LAYER
  5
4B
330
2
100
AcDbSymbolTableRecord
100
AcDbLayerTableRecord
  2
bottom dimensions
 70
    1
 62
    7
  6
CONTINUOUS
370
   25
390
F
  0
LAYER
  5
4C
330
2
100
AcDbSymbolTableRecord
100
AcDbLayerTableRecord
  2
divider
 70
    1
 62
    7
  6
CONTINUOUS
370
   13
390
F
  0
LAYER
  5
4D
330
2
100
AcDbSymbolTableRecord
100
AcDbLayerTableRecord
  2
divider dimensions
 70
    1
 62
    7
  6
CONTINUOUS
370
   25
390
F
  0
LAYER
  5
4E
330
2
100
AcDbSymbolTableRecord
100
AcDbLayerTableRecord
  2
ends
 70
    1
 62
    7
  6
CONTINUOUS
370
   25
390
F
  0
LAYER
  5
4F
330
2
100
AcDbSymbolTableRecord
100
AcDbLayerTableRecord
  2
ends dimensions
 70
    1
 62
    7
  6
CONTINUOUS
370
   25
390
F
  0
LAYER
  5
50
330
2
100
AcDbSymbolTableRecord
100
AcDbLayerTableRecord
  2
sides
 70
    0
 62
    7
  6
CONTINUOUS
370
   25
390
F
  0
LAYER
  5
51
330
2
100
AcDbSymbolTableRecord
100
AcDbLayerTableRecord
  2
sides dimensions
 70
    0
 62
    7
  6
CONTINUOUS
370
   25
390
F
  0
ENDTAB
  0
TABLE
  2
STYLE
  5
3
330
0
100
AcDbSymbolTable
 70
    3
  0
STYLE
  5
52
330
2
100
AcDbSymbolTableRecord
100
AcDbTextStyleTableRecord
  2
Standard
 70
    0
 40
0
 41
1
 50
0
 71
    0
 42
1
  3
txt
  4

  0
ENDTAB
  0
TABLE
  2
VIEW
  5
6
330
0
100
AcDbSymbolTable
 70
    0
  0
ENDTAB
  0
TABLE
  2
UCS
  5
7
330
0
100
AcDbSymbolTable
 70
    0
  0
ENDTAB
  0
TABLE
  2
APPID
  5
9
330
0
100
AcDbSymbolTable
 70
    1
  0
APPID
  5
12
330
9
100
AcDbSymbolTableRecord
100
AcDbRegAppTableRecord
  2
ACAD
 70
    0
  0
APPID
  5
53
330
9
100
AcDbSymbolTableRecord
100
AcDbRegAppTableRecord
  2
LibreCad
 70
    0
  0
ENDTAB
  0
TABLE
  2
DIMSTYLE
  5
A
330
0
100
AcDbSymbolTable
 70
    1
100
AcDbDimStyleTable
 71
    1
  0
DIMSTYLE
105
54
330
A
100
AcDbSymbolTableRecord
100
AcDbDimStyleTableRecord
  2
Standard
 70
    0
 40
1
 41
0.25
 42
0.125
 43
0.38
 44
0.125
 45
0
 46
0
 47
0
 48
0
 49
1
140
0.25
141
0.09
142
0
143
25.4
144
1
145
0
146
1
147
0.125
148
0
 71
    0
 72
    0
 73
    0
 74
    1
 75
    0
 76
    0
 77
    0
 78
    8
 79
    0
170
    0
171
    2
172
    0
173
    0
174
    0
175
    0
176
    0
177
    0
178
    0
179
    2
271
    4
272
    4
273
    2
274
    2
275
    0
276
    0
277
    2
278
    0
279
    0
280
    0
281
    0
282
    0
283
    1
284
    0
285
    0
286
    0
288
    0
289
    3
340
standard
341

371
   -2
372
   -2
  0
ENDTAB
  0
TABLE
  2
BLOCK_RECORD
  5
1
330
0
100
AcDbSymbolTable
 70
    2
  0
BLOCK_RECORD
  5
1F
330
1
100
AcDbSymbolTableRecord
100
AcDbBlockTableRecord
  2
*Model_Space
 70
    0
280
    1
281
    0
  0
BLOCK_RECORD
  5
1E
330
1
100
AcDbSymbolTableRecord
100
AcDbBlockTableRecord
  2
*Paper_Space
 70
    0
280
    1
281
    0
  0
BLOCK_RECORD
  5
55
330
1
100
AcDbSymbolTableRecord
100
AcDbBlockTableRecord
  2
*D2
 70
    0
280
    1
281
    0
  0
BLOCK_RECORD
  5
58
330
1
100
AcDbSymbolTableRecord
100
AcDbBlockTableRecord
  2
*D22
 70
    0
280
    1
281
    0
  0
BLOCK_RECORD
  5
5B
330
1
100
AcDbSymbolTableRecord
100
AcDbBlockTableRecord
  2
*D23
 70
    0
280
    1
281
    0
  0
BLOCK_RECORD
  5
5E
330
1
100
AcDbSymbolTableRecord
100
AcDbBlockTableRecord
  2
*D13
 70
    0
280
    1
281
    0
  0
BLOCK_RECORD
  5
61
330
1
100
AcDbSymbolTableRecord
100
AcDbBlockTableRecord
  2
*D5
 70
    0
280
    1
281
    0
  0
BLOCK_RECORD
  5
64
330
1
100
AcDbSymbolTableRecord
100
AcDbBlockTableRecord
  2
*D11
 70
    0
280
    1
281
    0
  0
BLOCK_RECORD
  5
67
330
1
100
AcDbSymbolTableRecord
100
AcDbBlockTableRecord
  2
*D20
 70
    0
280
    1
281
    0
  0
BLOCK_RECORD
  5
6A
330
1
100
AcDbSymbolTableRecord
100
AcDbBlockTableRecord
  2
*D25
 70
    0
280
    1
281
    0
  0
BLOCK_RECORD
  5
6D
330
1
100
AcDbSymbolTableRecord
100
AcDbBlockTableRecord
  2
*D1
 70
    0
280
    1
281
    0
  0
BLOCK_RECORD
  5
70
330
1
100
AcDbSymbolTableRecord
100
AcDbBlockTableRecord
  2
*D15
 70
    0
280
    1
281
    0
  0
BLOCK_RECORD
  5
73
330
1
100
AcDbSymbolTableRecord
100
AcDbBlockTableRecord
  2
*D4
 70
    0
280
    1
281
    0
  0
BLOCK_RECORD
  5
76
330
1
100
AcDbSymbolTableRecord
100
AcDbBlockTableRecord
  2
*D17
 70
    0
280
    1
281
    0
  0
BLOCK_RECORD
  5
79
330
1
100
AcDbSymbolTableRecord
100
AcDbBlockTableRecord
  2
*D26
 70
    0
280
    1
281
    0
  0
BLOCK_RECORD
  5
7C
330
1
100
AcDbSymbolTableRecord
100
AcDbBlockTableRecord
  2
*D29
 70
    0
280
    1
281
    0
  0
BLOCK_RECORD
  5
7F
330
1
100
AcDbSymbolTableRecord
100
AcDbBlockTableRecord
  2
*D14
 70
    0
280
    1
281
    0
  0
BLOCK_RECORD
  5
82
330
1
100
AcDbSymbolTableRecord
100
AcDbBlockTableRecord
  2
*D19
 70
    0
280
    1
281
    0
  0
BLOCK_RECORD
  5
85
330
1
100
AcDbSymbolTableRecord
100
AcDbBlockTableRecord
  2
*D28
 70
    0
280
    1
281
    0
  0
BLOCK_RECORD
  5
88
330
1
100
AcDbSymbolTableRecord
100
AcDbBlockTableRecord
  2
*D27
 70
    0
280
    1
281
    0
  0
BLOCK_RECORD
  5
8B
330
1
100
AcDbSymbolTableRecord
100
AcDbBlockTableRecord
  2
*D8
 70
    0
280
    1
281
    0
  0
BLOCK_RECORD
  5
8E
330
1
100
AcDbSymbolTableRecord
100
AcDbBlockTableRecord
  2
*D16
 70
    0
280
    1
281
    0
  0
BLOCK_RECORD
  5
91
330
1
100
AcDbSymbolTableRecord
100
AcDbBlockTableRecord
  2
*D18
 70
    0
280
    1
281
    0
  0
BLOCK_RECORD
  5
94
330
1
100
AcDbSymbolTableRecord
100
AcDbBlockTableRecord
  2
*D12
 70
    0
280
    1
281
    0
  0
BLOCK_RECORD
  5
97
330
1
100
AcDbSymbolTableRecord
100
AcDbBlockTableRecord
  2
*D32
 70
    0
280
    1
281
    0
  0
BLOCK_RECORD
  5
9A
330
1
100
AcDbSymbolTableRecord
100
AcDbBlockTableRecord
  2
*D31
 70
    0
280
    1
281
    0
  0
BLOCK_RECORD
  5
9D
330
1
100
AcDbSymbolTableRecord
100
AcDbBlockTableRecord
  2
*D24
 70
    0
280
    1
281
    0
  0
BLOCK_RECORD
  5
A0
330
1
100
AcDbSymbolTableRecord
100
AcDbBlockTableRecord
  2
*D30
 70
    0
280
    1
281
    0
  0
BLOCK_RECORD
  5
A3
330
1
100
AcDbSymbolTableRecord
100
AcDbBlockTableRecord
  2
*D3
 70
    0
280
    1
281
    0
  0
BLOCK_RECORD
  5
A6
330
1
100
AcDbSymbolTableRecord
100
AcDbBlockTableRecord
  2
*D6
 70
    0
280
    1
281
    0
  0
BLOCK_RECORD
  5
A9
330
1
100
AcDbSymbolTableRecord
100
AcDbBlockTableRecord
  2
*D7
 70
    0
280
    1
281
    0
  0
BLOCK_RECORD
  5
AC
330
1
100
AcDbSymbolTableRecord
100
AcDbBlockTableRecord
  2
*D21
 70
    0
280
    1
281
    0
  0
BLOCK_RECORD
  5
AF
330
1
100
AcDbSymbolTableRecord
100
AcDbBlockTableRecord
  2
*D33
 70
    0
280
    1
281
    0
  0
BLOCK_RECORD
  5
B2
330
1
100
AcDbSymbolTableRecord
100
AcDbBlockTableRecord
  2
*D10
 70
    0
280
    1
281
    0
  0
BLOCK_RECORD
  5
B5
330
1
100
AcDbSymbolTableRecord
100
AcDbBlockTableRecord
  2
*D9
 70
    0
280
    1
281
    0
  0
ENDTAB
  0
ENDSEC
  0
SECTION
  2
BLOCKS
  0
BLOCK
  5
20
330
1F
100
AcDbEntity
  8
0
100
AcDbBlockBegin
  2
*Model_Space
 70
    0
 10
0
 20
0
 30
0
  3
*Model_Space
  1

  0
ENDBLK
  5
21
330
1F
100
AcDbEntity
  8
0
100
AcDbBlockEnd
  0
BLOCK
  5
1C
330
1B
100
AcDbEntity
  8
0
100
AcDbBlockBegin
  2
*Paper_Space
 70
    0
 10
0
 20
0
 30
0
  3
*Paper_Space
  1

  0
ENDBLK
  5
1D
330
1F
100
AcDbEntity
  8
0
100
AcDbBlockEnd
  0
BLOCK
  5
56
330
55
100
AcDbEntity
  8
0
100
AcDbBlockBegin
  2
*D2
 70
    1
 10
0
 20
0
  3
*D2
  1

  0
LINE
  5
B8
100
AcDbEntity
  8
bottom dimensions
  6
ByBlock
 62
    0
370
   -2
100
AcDbLine
 10
5.625
 20
-0.633320459768389
 11
10.875
 21
-0.633320459768389
  0
SOLID
  5
B9
100
AcDbEntity
  8
bottom dimensions
  6
ByBlock
 62
    0
370
   -2
100
AcDbTrace
 10
5.625
 20
-0.633320459768389
 30
0
 11
5.875
 21
-0.5916919939911049
 31
0
 12
5.875
 22
-0.6749489255456731
 32
0
 13
5.875
 23
-0.6749489255456731
 33
0
  0
SOLID
  5
BA
100
AcDbEntity
  8
bottom dimensions
  6
ByBlock
 62
    0
370
   -2
100
AcDbTrace
 10
10.875
 20
-0.633320459768389
 30
0
 11
10.625
 21
-0.6749489255456731
 31
0
 12
10.625
 22
-0.5916919939911049
 32
0
 13
10.625
 23
-0.5916919939911049
 33
0
  0
MTEXT
  5
BB
100
AcDbEntity
  8
bottom dimensions
  6
CONTINUOUS
 62
    0
370
   -2
100
AcDbMText
 10
8.25
 20
-0.383320459768389
 30
0
 40
0.25
 41
0.5833333333333643
 71
    5
 72
    1
  1
5.25
  7
standard
210
0
220
0
230
1
 50
0
 73
    2
 44
1
  0
LINE
  5
BC
100
AcDbEntity
  8
bottom dimensions
  6
ByBlock
 62
    0
370
   -2
100
AcDbLine
 10
5.625
 20
-0.25
 11
5.625
 21
-0.758320459768389
  0
LINE
  5
BD
100
AcDbEntity
  8
bottom dimensions
  6
ByBlock
 62
    0
370
   -2
100
AcDbLine
 10
10.875
 20
-0.25
 11
10.875
 21
-0.758320459768389
  0
ENDBLK
  5
57
330
55
100
AcDbEntity
  8
0
100
AcDbBlockEnd
  0
BLOCK
  5
59
330
58
100
AcDbEntity
  8
0
100
AcDbBlockBegin
  2
*D22
 70
    1
 10
0
 20
0
  3
*D22
  1

  0
LINE
  5
BE
100
AcDbEntity
  8
ends dimensions
  6
ByBlock
 62
    0
370
   -2
100
AcDbLine
 10
16.51652617481725
 20
6.249999999999999
 11
16.51652617481725
 21
4.875
  0
SOLID
  5
BF
100
AcDbEntity
  8
ends dimensions
  6
ByBlock
 62
    0
370
   -2
100
AcDbTrace
 10
16.51652617481725
 20
5.749999999999999
 30
0
 11
16.47489770903997
 21
5.999999999999999
 31
0
 12
16.55815464059453
 22
5.999999999999999
 32
0
 13
16.55815464059453
 23
5.999999999999999
 33
0
  0
SOLID
  5
C0
100
AcDbEntity
  8
ends dimensions
  6
ByBlock
 62
    0
370
   -2
100
AcDbTrace
 10
16.51652617481725
 20
5.375
 30
0
 11
16.55815464059453
 21
5.125
 31
0
 12
16.47489770903997
 22
5.125
 32
0
 13
16.47489770903997
 23
5.125
 33
0
  0
MTEXT
  5
C1
100
AcDbEntity
  8
ends dimensions
  6
CONTINUOUS
 62
    0
370
   -2
100
AcDbMText
 10
16.26652617481725
 20
6.263888888888903
 30
0
 40
0.25
 41
0.7777777777778088
 71
    5
 72
    1
  1
0.375
  7
standard
210
0
220
0
230
1
 50
90
 73
    2
 44
1
  0
LINE
  5
C2
100
AcDbEntity
  8
ends dimensions
  6
ByBlock
 62
    0
370
   -2
100
AcDbLine
 10
16.625
 20
5.749999999999999
 11
16.39152617481725
 21
5.749999999999999
  0
LINE
  5
C3
100
AcDbEntity
  8
ends dimensions
  6
ByBlock
 62
    0
370
   -2
100
AcDbLine
 10
16.625
 20
5.375
 11
16.39152617481725
 21
5.375
  0
ENDBLK
  5
5A
330
58
100
AcDbEntity
  8
0
100
AcDbBlockEnd
  0
BLOCK
  5
5C
330
5B
100
AcDbEntity
  8
0
100
AcDbBlockBegin
  2
*D23
 70
    1
 10
0
 20
0
  3
*D23
  1

  0
LINE
  5
C4
100
AcDbEntity
  8
ends dimensions
  6
ByBlock
 62
    0
370
   -2
100
AcDbLine
 10
11.375
 20
6.505230258112173
 11
10.25
 21
6.505230258112173
  0
SOLID
  5
C5
100
AcDbEntity
  8
ends dimensions
  6
ByBlock
 62
    0
370
   -2
100
AcDbTrace
 10
10.875
 20
6.505230258112173
 30
0
 11
11.125
 21
6.546858723889456
 31
0
 12
11.125
 22
6.463601792334888
 32
0
 13
11.125
 23
6.463601792334888
 33
0
  0
SOLID
  5
C6
100
AcDbEntity
  8
ends dimensions
  6
ByBlock
 62
    0
370
   -2
100
AcDbTrace
 10
10.75
 20
6.505230258112173
 30
0
 11
10.5
 21
6.463601792334889
 31
0
 12
10.5
 22
6.546858723889456
 32
0
 13
10.5
 23
6.546858723889456
 33
0
  0
MTEXT
  5
C7
100
AcDbEntity
  8
ends dimensions
  6
CONTINUOUS
 62
    0
370
   -2
100
AcDbMText
 10
11.36111111111112
 20
6.755230258112173
 30
0
 40
0.25
 41
0.7222222222222376
 71
    5
 72
    1
  1
0.125
  7
standard
210
0
220
0
230
1
 50
360
 73
    2
 44
1
  0
LINE
  5
C8
100
AcDbEntity
  8
ends dimensions
  6
ByBlock
 62
    0
370
   -2
100
AcDbLine
 10
10.875
 20
7.125
 11
10.875
 21
6.380230258112173
  0
LINE
  5
C9
100
AcDbEntity
  8
ends dimensions
  6
ByBlock
 62
    0
370
   -2
100
AcDbLine
 10
10.75
 20
6.875
 11
10.75
 21
6.380230258112173
  0
ENDBLK
  5
5D
330
5B
100
AcDbEntity
  8
0
100
AcDbBlockEnd
  0
BLOCK
  5
5F
330
5E
100
AcDbEntity
  8
0
100
AcDbBlockBegin
  2
*D13
 70
    1
 10
0
 20
0
  3
*D13
  1

  0
LINE
  5
CA
100
AcDbEntity
  8
divider dimensions
  6
ByBlock
 62
    0
370
   -2
100
AcDbLine
 10
4.842789571683106
 20
6.5
 11
4.842789571683106
 21
7.75
  0
SOLID
  5
CB
100
AcDbEntity
  8
divider dimensions
  6
ByBlock
 62
    0
370
   -2
100
AcDbTrace
 10
4.842789571683106
 20
7
 30
0
 11
4.88441803746039
 21
6.75
 31
0
 12
4.801161105905822
 22
6.75
 32
0
 13
4.801161105905822
 23
6.75
 33
0
  0
SOLID
  5
CC
100
AcDbEntity
  8
divider dimensions
  6
ByBlock
 62
    0
370
   -2
100
AcDbTrace
 10
4.842789571683106
 20
7.25
 30
0
 11
4.801161105905822
 21
7.5
 31
0
 12
4.88441803746039
 22
7.5
 32
0
 13
4.88441803746039
 23
7.5
 33
0
  0
MTEXT
  5
CD
100
AcDbEntity
  8
divider dimensions
  6
CONTINUOUS
 62
    0
370
   -2
100
AcDbMText
 10
4.592789571683106
 20
7.666666666666674
 30
0
 40
0.25
 41
0.5833333333333488
 71
    5
 72
    1
  1
0.25
  7
standard
210
0
220
0
230
1
 50
90
 73
    2
 44
1
  0
LINE
  5
CE
100
AcDbEntity
  8
divider dimensions
  6
ByBlock
 62
    0
370
   -2
100
AcDbLine
 10
4.875
 20
7
 11
4.717789571683106
 21
7
  0
LINE
  5
CF
100
AcDbEntity
  8
divider dimensions
  6
ByBlock
 62
    0
370
   -2
100
AcDbLine
 10
4.875
 20
7.25
 11
4.717789571683106
 21
7.25
  0
ENDBLK
  5
60
330
5E
100
AcDbEntity
  8
0
100
AcDbBlockEnd
  0
BLOCK
  5
62
330
61
100
AcDbEntity
  8
0
100
AcDbBlockBegin
  2
*D5
 70
    1
 10
0
 20
0
  3
*D5
  1

  0
LINE
  5
D0
100
AcDbEntity
  8
divider dimensions
  6
ByBlock
 62
    0
370
   -2
100
AcDbLine
 10
24.09308801020414
 20
5.249999999999996
 11
24.09308801020414
 21
-0.2500000000000043
  0
SOLID
  5
D1
100
AcDbEntity
  8
divider dimensions
  6
ByBlock
 62
    0
370
   -2
100
AcDbTrace
 10
24.09308801020414
 20
5.249999999999996
 30
0
 11
24.13471647598142
 21
4.999999999999996
 31
0
 12
24.05145954442686
 22
4.999999999999996
 32
0
 13
24.05145954442686
 23
4.999999999999996
 33
0
  0
SOLID
  5
D2
100
AcDbEntity
  8
divider dimensions
  6
ByBlock
 62
    0
370
   -2
100
AcDbTrace
 10
24.09308801020414
 20
-0.2500000000000043
 30
0
 11
24.05145954442686
 21
-4.329869796038111e-15
 31
0
 12
24.13471647598142
 22
-4.329869796038111e-15
 32
0
 13
24.13471647598142
 23
-4.329869796038111e-15
 33
0
  0
MTEXT
  5
D3
100
AcDbEntity
  8
divider dimensions
  6
CONTINUOUS
 62
    0
370
   -2
100
AcDbMText
 10
23.84308801020414
 20
2.499999999999996
 30
0
 40
0.25
 41
0.3888888888889199
 71
    5
 72
    1
  1
5.5
  7
standard
210
0
220
0
230
1
 50
90
 73
    2
 44
1
  0
LINE
  5
D4
100
AcDbEntity
  8
divider dimensions
  6
ByBlock
 62
    0
370
   -2
100
AcDbLine
 10
23.625
 20
5.249999999999996
 11
24.21808801020414
 21
5.249999999999996
  0
LINE
  5
D5
100
AcDbEntity
  8
divider dimensions
  6
ByBlock
 62
    0
370
   -2
100
AcDbLine
 10
23.625
 20
-0.2500000000000043
 11
24.21808801020414
 21
-0.2500000000000043
  0
ENDBLK
  5
63
330
61
100
AcDbEntity
  8
0
100
AcDbBlockEnd
  0
BLOCK
  5
65
330
64
100
AcDbEntity
  8
0
100
AcDbBlockBegin
  2
*D11
 70
    1
 10
0
 20
0
  3
*D11
  1

  0
LINE
  5
D6
100
AcDbEntity
  8
divider dimensions
  6
ByBlock
 62
    0
370
   -2
100
AcDbLine
 10
15.33358243046534
 20
1.249999886447774
 11
15.33358243046534
 21
-0.2500000000000017
  0
SOLID
  5
D7
100
AcDbEntity
  8
divider dimensions
  6
ByBlock
 62
    0
370
   -2
100
AcDbTrace
 10
15.33358243046534
 20
1.249999886447774
 30
0
 11
15.37521089624262
 21
0.9999998864477739
 31
0
 12
15.29195396468806
 22
0.9999998864477739
 32
0
 13
15.29195396468806
 23
0.9999998864477739
 33
0
  0
SOLID
  5
D8
100
AcDbEntity
  8
divider dimensions
  6
ByBlock
 62
    0
370
   -2
100
AcDbTrace
 10
15.33358243046534
 20
-0.2500000000000017
 30
0
 11
15.29195396468806
 21
-1.665334536937735e-15
 31
0
 12
15.37521089624262
 22
-1.665334536937735e-15
 32
0
 13
15.37521089624262
 23
-1.665334536937735e-15
 33
0
  0
MTEXT
  5
D9
100
AcDbEntity
  8
divider dimensions
  6
CONTINUOUS
 62
    0
370
   -2
100
AcDbMText
 10
15.08358243046534
 20
0.4999999432238862
 30
0
 40
0.25
 41
0.3333333333333488
 71
    5
 72
    1
  1
1.5
  7
standard
210
0
220
0
230
1
 50
90
 73
    2
 44
1
  0
LINE
  5
DA
100
AcDbEntity
  8
divider dimensions
  6
ByBlock
 62
    0
370
   -2
100
AcDbLine
 10
14.875
 20
1.249999886447774
 11
15.45858243046534
 21
1.249999886447774
  0
LINE
  5
DB
100
AcDbEntity
  8
divider dimensions
  6
ByBlock
 62
    0
370
   -2
100
AcDbLine
 10
14.875
 20
-0.2500000000000016
 11
15.45858243046534
 21
-0.2500000000000017
  0
ENDBLK
  5
66
330
64
100
AcDbEntity
  8
0
100
AcDbBlockEnd
  0
BLOCK
  5
68
330
67
100
AcDbEntity
  8
0
100
AcDbBlockBegin
  2
*D20
 70
    1
 10
0
 20
0
  3
*D20
  1

  0
LINE
  5
DC
100
AcDbEntity
  8
ends dimensions
  6
ByBlock
 62
    0
370
   -2
100
AcDbLine
 10
22.75
 20
5.949857333894603
 11
24
 21
5.949857333894603
  0
SOLID
  5
DD
100
AcDbEntity
  8
ends dimensions
  6
ByBlock
 62
    0
370
   -2
100
AcDbTrace
 10
23.25
 20
5.949857333894603
 30
0
 11
23
 21
5.90822886811732
 31
0
 12
23
 22
5.991485799671887
 32
0
 13
23
 23
5.991485799671887
 33
0
  0
SOLID
  5
DE
100
AcDbEntity
  8
ends dimensions
  6
ByBlock
 62
    0
370
   -2
100
AcDbTrace
 10
23.5
 20
5.949857333894603
 30
0
 11
23.75
 21
5.991485799671887
 31
0
 12
23.75
 22
5.90822886811732
 32
0
 13
23.75
 23
5.90822886811732
 33
0
  0
MTEXT
  5
DF
100
AcDbEntity
  8
ends dimensions
  6
CONTINUOUS
 62
    0
370
   -2
100
AcDbMText
 10
23.91666666666667
 20
6.199857333894603
 30
0
 40
0.25
 41
0.5833333333333488
 71
    5
 72
    1
  1
0.25
  7
standard
210
0
220
0
230
1
 50
0
 73
    2
 44
1
  0
LINE
  5
E0
100
AcDbEntity
  8
ends dimensions
  6
ByBlock
 62
    0
370
   -2
100
AcDbLine
 10
23.25
 20
5.5
 11
23.25
 21
6.074857333894603
  0
LINE
  5
E1
100
AcDbEntity
  8
ends dimensions
  6
ByBlock
 62
    0
370
   -2
100
AcDbLine
 10
23.5
 20
5.5
 11
23.5
 21
6.074857333894603
  0
ENDBLK
  5
69
330
67
100
AcDbEntity
  8
0
100
AcDbBlockEnd
  0
BLOCK
  5
6B
330
6A
100
AcDbEntity
  8
0
100
AcDbBlockBegin
  2
*D25
 70
    1
 10
0
 20
0
  3
*D25
  1

  0
LINE
  5
E2
100
AcDbEntity
  8
sides dimensions
  6
ByBlock
 62
    0
370
   -2
100
AcDbLine
 10
-0.8749999999999999
 20
6.517789124048333
 11
0.5000000000000001
 21
6.517789124048333
  0
SOLID
  5
E3
100
AcDbEntity
  8
sides dimensions
  6
ByBlock
 62
    0
370
   -2
100
AcDbTrace
 10
-0.3749999999999999
 20
6.517789124048333
 30
0
 11
-0.6249999999999999
 21
6.476160658271049
 31
0
 12
-0.6249999999999999
 22
6.559417589825617
 32
0
 13
-0.6249999999999999
 23
6.559417589825617
 33
0
  0
SOLID
  5
E4
100
AcDbEntity
  8
sides dimensions
  6
ByBlock
 62
    0
370
   -2
100
AcDbTrace
 10
5.551119999999999e-17
 20
6.517789124048333
 30
0
 11
0.2500000000000001
 21
6.559417589825617
 31
0
 12
0.2500000000000001
 22
6.476160658271048
 32
0
 13
0.2500000000000001
 23
6.476160658271048
 33
0
  0
MTEXT
  5
E5
100
AcDbEntity
  8
sides dimensions
  6
CONTINUOUS
 62
    0
370
   -2
100
AcDbMText
 10
0.5138888888889045
 20
6.767789124048333
 30
0
 40
0.25
 41
0.7777777777778088
 71
    5
 72
    1
  1
0.375
  7
standard
210
0
220
0
230
1
 50
0
 73
    2
 44
1
  0
LINE
  5
E6
100
AcDbEntity
  8
sides dimensions
  6
ByBlock
 62
    0
370
   -2
100
AcDbLine
 10
-0.3749999999999999
 20
6.875
 11
-0.3749999999999999
 21
6.392789124048333
  0
LINE
  5
E7
100
AcDbEntity
  8
sides dimensions
  6
ByBlock
 62
    0
370
   -2
100
AcDbLine
 10
3.254907251598712e-17
 20
6.875
 11
3.254907251598712e-17
 21
6.392789124048333
  0
ENDBLK
  5
6C
330
6A
100
AcDbEntity
  8
0
100
AcDbBlockEnd
  0
BLOCK
  5
6E
330
6D
100
AcDbEntity
  8
0
100
AcDbBlockBegin
  2
*D1
 70
    1
 10
0
 20
0
  3
*D1
  1

  0
LINE
  5
E8
100
AcDbEntity
  8
bottom dimensions
  6
ByBlock
 62
    0
370
   -2
100
AcDbLine
 10
22.25
 20
5.357432052886234
 11
23.75
 21
5.357432052886234
  0
SOLID
  5
E9
100
AcDbEntity
  8
bottom dimensions
  6
ByBlock
 62
    0
370
   -2
100
AcDbTrace
 10
22.75
 20
5.357432052886234
 30
0
 11
22.5
 21
5.315803587108951
 31
0
 12
22.5
 22
5.399060518663518
 32
0
 13
22.5
 23
5.399060518663518
 33
0
  0
SOLID
  5
EA
100
AcDbEntity
  8
bottom dimensions
  6
ByBlock
 62
    0
370
   -2
100
AcDbTrace
 10
23.25
 20
5.357432052886234
 30
0
 11
23.5
 21
5.399060518663518
 31
0
 12
23.5
 22
5.315803587108951
 32
0
 13
23.5
 23
5.315803587108951
 33
0
  0
MTEXT
  5
EB
100
AcDbEntity
  8
bottom dimensions
  6
CONTINUOUS
 62
    0
370
   -2
100
AcDbMText
 10
23
 20
5.607432052886234
 30
0
 40
0.25
 41
0.3888888888889044
 71
    5
 72
    1
  1
0.5
  7
standard
210
0
220
0
230
1
 50
0
 73
    2
 44
1
  0
LINE
  5
EC
100
AcDbEntity
  8
bottom dimensions
  6
ByBlock
 62
    0
370
   -2
100
AcDbLine
 10
22.75
 20
5.249999999999997
 11
22.75
 21
5.482432052886234
  0
LINE
  5
ED
100
AcDbEntity
  8
bottom dimensions
  6
ByBlock
 62
    0
370
   -2
100
AcDbLine
 10
23.25
 20
5.249999999999997
 11
23.25
 21
5.482432052886234
  0
ENDBLK
  5
6F
330
6D
100
AcDbEntity
  8
0
100
AcDbBlockEnd
  0
BLOCK
  5
71
330
70
100
AcDbEntity
  8
0
100
AcDbBlockBegin
  2
*D15
 70
    1
 10
0
 20
0
  3
*D15
  1

  0
LINE
  5
EE
100
AcDbEntity
  8
divider dimensions
  6
ByBlock
 62
    0
370
   -2
100
AcDbLine
 10
6.25
 20
6.318879921298416
 11
5.125
 21
6.318879921298416
  0
SOLID
  5
EF
100
AcDbEntity
  8
divider dimensions
  6
ByBlock
 62
    0
370
   -2
100
AcDbTrace
 10
5.75
 20
6.318879921298416
 30
0
 11
6
 21
6.3605083870757
 31
0
 12
6
 22
6.277251455521132
 32
0
 13
6
 23
6.277251455521132
 33
0
  0
SOLID
  5
F0
100
AcDbEntity
  8
divider dimensions
  6
ByBlock
 62
    0
370
   -2
100
AcDbTrace
 10
5.625
 20
6.318879921298416
 30
0
 11
5.375
 21
6.277251455521133
 31
0
 12
5.375
 22
6.3605083870757
 32
0
 13
5.375
 23
6.3605083870757
 33
0
  0
MTEXT
  5
F1
100
AcDbEntity
  8
divider dimensions
  6
CONTINUOUS
 62
    0
370
   -2
100
AcDbMText
 10
6.236111111111119
 20
6.568879921298416
 30
0
 40
0.25
 41
0.7222222222222376
 71
    5
 72
    1
  1
0.125
  7
standard
210
0
220
0
230
1
 50
360
 73
    2
 44
1
  0
LINE
  5
F2
100
AcDbEntity
  8
divider dimensions
  6
ByBlock
 62
    0
370
   -2
100
AcDbLine
 10
5.75
 20
7.125
 11
5.75
 21
6.193879921298416
  0
LINE
  5
F3
100
AcDbEntity
  8
divider dimensions
  6
ByBlock
 62
    0
370
   -2
100
AcDbLine
 10
5.625
 20
7.125
 11
5.625
 21
6.193879921298416
  0
ENDBLK
  5
72
330
70
100
AcDbEntity
  8
0
100
AcDbBlockEnd
  0
BLOCK
  5
74
330
73
100
AcDbEntity
  8
0
100
AcDbBlockBegin
  2
*D4
 70
    1
 10
0
 20
0
  3
*D4
  1

  0
LINE
  5
F4
100
AcDbEntity
  8
divider dimensions
  6
ByBlock
 62
    0
370
   -2
100
AcDbLine
 10
12.75
 20
-0.804891581632655
 11
23.5
 21
-0.804891581632655
  0
SOLID
  5
F5
100
AcDbEntity
  8
divider dimensions
  6
ByBlock
 62
    0
370
   -2
100
AcDbTrace
 10
12.75
 20
-0.804891581632655
 30
0
 11
13
 21
-0.7632631158553709
 31
0
 12
13
 22
-0.846520047409939
 32
0
 13
13
 23
-0.846520047409939
 33
0
  0
SOLID
  5
F6
100
AcDbEntity
  8
divider dimensions
  6
ByBlock
 62
    0
370
   -2
100
AcDbTrace
 10
23.5
 20
-0.804891581632655
 30
0
 11
23.25
 21
-0.846520047409939
 31
0
 12
23.25
 22
-0.7632631158553709
 32
0
 13
23.25
 23
-0.7632631158553709
 33
0
  0
MTEXT
  5
F7
100
AcDbEntity
  8
divider dimensions
  6
CONTINUOUS
 62
    0
370
   -2
100
AcDbMText
 10
18.125
 20
-0.554891581632655
 30
0
 40
0.25
 41
0.7222222222222376
 71
    5
 72
    1
  1
10.75
  7
standard
210
0
220
0
230
1
 50
0
 73
    2
 44
1
  0
LINE
  5
F8
100
AcDbEntity
  8
divider dimensions
  6
ByBlock
 62
    0
370
   -2
100
AcDbLine
 10
12.75
 20
1.624999999999999
 11
12.75
 21
-0.929891581632655
  0
LINE
  5
F9
100
AcDbEntity
  8
divider dimensions
  6
ByBlock
 62
    0
370
   -2
100
AcDbLine
 10
23.5
 20
-0.3750000000000043
 11
23.5
 21
-0.929891581632655
  0
ENDBLK
  5
75
330
73
100
AcDbEntity
  8
0
100
AcDbBlockEnd
  0
BLOCK
  5
77
330
76
100
AcDbEntity
  8
0
100
AcDbBlockBegin
  2
*D17
 70
    1
 10
0
 20
0
  3
*D17
  1

  0
LINE
  5
FA
100
AcDbEntity
  8
ends dimensions
  6
ByBlock
 62
    0
370
   -2
100
AcDbLine
 10
24.01650527827573
 20
-0.7500000000000027
 11
24.01650527827573
 21
5.749999999999996
  0
SOLID
  5
FB
100
AcDbEntity
  8
ends dimensions
  6
ByBlock
 62
    0
370
   -2
100
AcDbTrace
 10
24.01650527827573
 20
-0.7500000000000027
 30
0
 11
23.97487681249845
 21
-0.5000000000000027
 31
0
 12
24.05813374405301
 22
-0.5000000000000027
 32
0
 13
24.05813374405301
 23
-0.5000000000000027
 33
0
  0
SOLID
  5
FC
100
AcDbEntity
  8
ends dimensions
  6
ByBlock
 62
    0
370
   -2
100
AcDbTrace
 10
24.01650527827573
 20
5.749999999999996
 30
0
 11
24.05813374405301
 21
5.499999999999996
 31
0
 12
23.97487681249845
 22
5.499999999999996
 32
0
 13
23.97487681249845
 23
5.499999999999996
 33
0
  0
MTEXT
  5
FD
100
AcDbEntity
  8
ends dimensions
  6
CONTINUOUS
 62
    0
370
   -2
100
AcDbMText
 10
23.76650527827573
 20
2.499999999999996
 30
0
 40
0.25
 41
0.3888888888889199
 71
    5
 72
    1
  1
6.5
  7
standard
210
0
220
0
230
1
 50
90
 73
    2
 44
1
  0
LINE
  5
FE
100
AcDbEntity
  8
ends dimensions
  6
ByBlock
 62
    0
370
   -2
100
AcDbLine
 10
23.625
 20
-0.7500000000000029
 11
24.14150527827573
 21
-0.7500000000000027
  0
LINE
  5
FF
100
AcDbEntity
  8
ends dimensions
  6
ByBlock
 62
    0
370
   -2
100
AcDbLine
 10
23.625
 20
5.749999999999996
 11
24.14150527827573
 21
5.749999999999996
  0
ENDBLK
  5
78
330
76
100
AcDbEntity
  8
0
100
AcDbBlockEnd
  0
BLOCK
  5
7A
330
79
100
AcDbEntity
  8
0
100
AcDbBlockBegin
  2
*D26
 70
    1
 10
0
 20
0
  3
*D26
  1

  0
LINE
  5
100
100
AcDbEntity
  8
sides dimensions
  6
ByBlock
 62
    0
370
   -2
100
AcDbLine
 10
5
 20
6.50173545625511
 11
5.75
 21
6.50173545625511
  0
SOLID
  5
101
100
AcDbEntity
  8
sides dimensions
  6
ByBlock
 62
    0
370
   -2
100
AcDbTrace
 10
5
 20
6.50173545625511
 30
0
 11
5.25
 21
6.543363922032394
 31
0
 12
5.25
 22
6.460106990477826
 32
0
 13
5.25
 23
6.460106990477826
 33
0
  0
SOLID
  5
102
100
AcDbEntity
  8
sides dimensions
  6
ByBlock
 62
    0
370
   -2
100
AcDbTrace
 10
5.75
 20
6.50173545625511
 30
0
 11
5.5
 21
6.460106990477827
 31
0
 12
5.5
 22
6.543363922032394
 32
0
 13
5.5
 23
6.543363922032394
 33
0
  0
MTEXT
  5
103
100
AcDbEntity
  8
sides dimensions
  6
CONTINUOUS
 62
    0
370
   -2
100
AcDbMText
 10
5.375
 20
6.75173545625511
 30
0
 40
0.25
 41
0.5833333333333488
 71
    5
 72
    1
  1
0.75
  7
standard
210
0
220
0
230
1
 50
0
 73
    2
 44
1
  0
LINE
  5
104
100
AcDbEntity
  8
sides dimensions
  6
ByBlock
 62
    0
370
   -2
100
AcDbLine
 10
5
 20
6.875
 11
5
 21
6.37673545625511
  0
LINE
  5
105
100
AcDbEntity
  8
sides dimensions
  6
ByBlock
 62
    0
370
   -2
100
AcDbLine
 10
5.75
 20
6.875
 11
5.75
 21
6.37673545625511
  0
ENDBLK
  5
7B
330
79
100
AcDbEntity
  8
0
100
AcDbBlockEnd
  0
BLOCK
  5
7D
330
7C
100
AcDbEntity
  8
0
100
AcDbBlockBegin
  2
*D29
 70
    1
 10
0
 20
0
  3
*D29
  1

  0
LINE
  5
106
100
AcDbEntity
  8
sides dimensions
  6
ByBlock
 62
    0
370
   -2
100
AcDbLine
 10
10.48083270675564
 20
6.75
 11
10.48083270675564
 21
8.25
  0
SOLID
  5
107
100
AcDbEntity
  8
sides dimensions
  6
ByBlock
 62
    0
370
   -2
100
AcDbTrace
 10
10.48083270675564
 20
7.25
 30
0
 11
10.52246117253292
 21
7
 31
0
 12
10.43920424097836
 22
7
 32
0
 13
10.43920424097836
 23
7
 33
0
  0
SOLID
  5
108
100
AcDbEntity
  8
sides dimensions
  6
ByBlock
 62
    0
370
   -2
100
AcDbTrace
 10
10.48083270675564
 20
7.75
 30
0
 11
10.43920424097836
 21
8
 31
0
 12
10.52246117253292
 22
8
 32
0
 13
10.52246117253292
 23
8
 33
0
  0
MTEXT
  5
109
100
AcDbEntity
  8
sides dimensions
  6
CONTINUOUS
 62
    0
370
   -2
100
AcDbMText
 10
10.23083270675564
 20
7.5
 30
0
 40
0.25
 41
0.3888888888889044
 71
    5
 72
    1
  1
0.5
  7
standard
210
0
220
0
230
1
 50
90
 73
    2
 44
1
  0
LINE
  5
10A
100
AcDbEntity
  8
sides dimensions
  6
ByBlock
 62
    0
370
   -2
100
AcDbLine
 10
10.625
 20
7.25
 11
10.35583270675564
 21
7.25
  0
LINE
  5
10B
100
AcDbEntity
  8
sides dimensions
  6
ByBlock
 62
    0
370
   -2
100
AcDbLine
 10
10.625
 20
7.75
 11
10.35583270675564
 21
7.75
  0
ENDBLK
  5
7E
330
7C
100
AcDbEntity
  8
0
100
AcDbBlockEnd
  0
BLOCK
  5
80
330
7F
100
AcDbEntity
  8
0
100
AcDbBlockBegin
  2
*D14
 70
    1
 10
0
 20
0
  3
*D14
  1

  0
LINE
  5
10C
100
AcDbEntity
  8
divider dimensions
  6
ByBlock
 62
    0
370
   -2
100
AcDbLine
 10
6.162171699250216
 20
6.75
 11
6.162171699250216
 21
8.25
  0
SOLID
  5
10D
100
AcDbEntity
  8
divider dimensions
  6
ByBlock
 62
    0
370
   -2
100
AcDbTrace
 10
6.162171699250216
 20
7.25
 30
0
 11
6.203800165027499
 21
7
 31
0
 12
6.120543233472932
 22
7
 32
0
 13
6.120543233472932
 23
7
 33
0
  0
SOLID
  5
10E
100
AcDbEntity
  8
divider dimensions
  6
ByBlock
 62
    0
370
   -2
100
AcDbTrace
 10
6.162171699250216
 20
7.75
 30
0
 11
6.120543233472932
 21
8
 31
0
 12
6.2038001650275
 22
8
 32
0
 13
6.2038001650275
 23
8
 33
0
  0
MTEXT
  5
10F
100
AcDbEntity
  8
divider dimensions
  6
CONTINUOUS
 62
    0
370
   -2
100
AcDbMText
 10
5.912171699250216
 20
7.5
 30
0
 40
0.25
 41
0.3888888888889044
 71
    5
 72
    1
  1
0.5
  7
standard
210
0
220
0
230
1
 50
90
 73
    2
 44
1
  0
LINE
  5
110
100
AcDbEntity
  8
divider dimensions
  6
ByBlock
 62
    0
370
   -2
100
AcDbLine
 10
5.875
 20
7.25
 11
6.287171699250216
 21
7.25
  0
LINE
  5
111
100
AcDbEntity
  8
divider dimensions
  6
ByBlock
 62
    0
370
   -2
100
AcDbLine
 10
5.875
 20
7.75
 11
6.287171699250216
 21
7.75
  0
ENDBLK
  5
81
330
7F
100
AcDbEntity
  8
0
100
AcDbBlockEnd
  0
BLOCK
  5
83
330
82
100
AcDbEntity
  8
0
100
AcDbBlockBegin
  2
*D19
 70
    1
 10
0
 20
0
  3
*D19
  1

  0
LINE
  5
112
100
AcDbEntity
  8
ends dimensions
  6
ByBlock
 62
    0
370
   -2
100
AcDbLine
 10
10.25
 20
-1.22938677484452
 11
11.625
 21
-1.22938677484452
  0
SOLID
  5
113
100
AcDbEntity
  8
ends dimensions
  6
ByBlock
 62
    0
370
   -2
100
AcDbTrace
 10
10.75
 20
-1.22938677484452
 30
0
 11
10.5
 21
-1.271015240621804
 31
0
 12
10.5
 22
-1.187758309067236
 32
0
 13
10.5
 23
-1.187758309067236
 33
0
  0
SOLID
  5
114
100
AcDbEntity
  8
ends dimensions
  6
ByBlock
 62
    0
370
   -2
100
AcDbTrace
 10
11.125
 20
-1.22938677484452
 30
0
 11
11.375
 21
-1.187758309067236
 31
0
 12
11.375
 22
-1.271015240621804
 32
0
 13
11.375
 23
-1.271015240621804
 33
0
  0
MTEXT
  5
115
100
AcDbEntity
  8
ends dimensions
  6
CONTINUOUS
 62
    0
370
   -2
100
AcDbMText
 10
11.6388888888889
 20
-0.97938677484452
 30
0
 40
0.25
 41
0.7777777777778088
 71
    5
 72
    1
  1
0.375
  7
standard
210
0
220
0
230
1
 50
0
 73
    2
 44
1
  0
LINE
  5
116
100
AcDbEntity
  8
ends dimensions
  6
ByBlock
 62
    0
370
   -2
100
AcDbLine
 10
10.75
 20
-0.5
 11
10.75
 21
-1.35438677484452
  0
LINE
  5
117
100
AcDbEntity
  8
ends dimensions
  6
ByBlock
 62
    0
370
   -2
100
AcDbLine
 10
11.125
 20
-0.5
 11
11.125
 21
-1.35438677484452
  0
ENDBLK
  5
84
330
82
100
AcDbEntity
  8
0
100
AcDbBlockEnd
  0
BLOCK
  5
86
330
85
100
AcDbEntity
  8
0
100
AcDbBlockBegin
  2
*D28
 70
    1
 10
0
 20
0
  3
*D28
  1

  0
LINE
  5
118
100
AcDbEntity
  8
sides dimensions
  6
ByBlock
 62
    0
370
   -2
100
AcDbLine
 10
11.64812924044644
 20
6.5
 11
11.64812924044644
 21
7.75
  0
SOLID
  5
119
100
AcDbEntity
  8
sides dimensions
  6
ByBlock
 62
    0
370
   -2
100
AcDbTrace
 10
11.64812924044644
 20
7
 30
0
 11
11.68975770622373
 21
6.75
 31
0
 12
11.60650077466916
 22
6.75
 32
0
 13
11.60650077466916
 23
6.75
 33
0
  0
SOLID
  5
11A
100
AcDbEntity
  8
sides dimensions
  6
ByBlock
 62
    0
370
   -2
100
AcDbTrace
 10
11.64812924044644
 20
7.25
 30
0
 11
11.60650077466916
 21
7.5
 31
0
 12
11.68975770622373
 22
7.5
 32
0
 13
11.68975770622373
 23
7.5
 33
0
  0
MTEXT
  5
11B
100
AcDbEntity
  8
sides dimensions
  6
CONTINUOUS
 62
    0
370
   -2
100
AcDbMText
 10
11.39812924044644
 20
7.666666666666674
 30
0
 40
0.25
 41
0.5833333333333488
 71
    5
 72
    1
  1
0.25
  7
standard
210
0
220
0
230
1
 50
90
 73
    2
 44
1
  0
LINE
  5
11C
100
AcDbEntity
  8
sides dimensions
  6
ByBlock
 62
    0
370
   -2
100
AcDbLine
 10
10.875
 20
7
 11
11.77312924044644
 21
7
  0
LINE
  5
11D
100
AcDbEntity
  8
sides dimensions
  6
ByBlock
 62
    0
370
   -2
100
AcDbLine
 10
10.875
 20
7.25
 11
11.77312924044644
 21
7.25
  0
ENDBLK
  5
87
330
85
100
AcDbEntity
  8
0
100
AcDbBlockEnd
  0
BLOCK
  5
89
330
88
100
AcDbEntity
  8
0
100
AcDbBlockBegin
  2
*D27
 70
    1
 10
0
 20
0
  3
*D27
  1

  0
LINE
  5
11E
100
AcDbEntity
  8
sides dimensions
  6
ByBlock
 62
    0
370
   -2
100
AcDbLine
 10
-0.6135204081632872
 20
13.75
 11
-0.6135204081632877
 21
7
  0
SOLID
  5
11F
100
AcDbEntity
  8
sides dimensions
  6
ByBlock
 62
    0
370
   -2
100
AcDbTrace
 10
-0.6135204081632872
 20
13.75
 30
0
 11
-0.5718919423860032
 21
13.5
 31
0
 12
-0.6551488739405713
 22
13.5
 32
0
 13
-0.6551488739405713
 23
13.5
 33
0
  0
SOLID
  5
120
100
AcDbEntity
  8
sides dimensions
  6
ByBlock
 62
    0
370
   -2
100
AcDbTrace
 10
-0.6135204081632877
 20
7
 30
0
 11
-0.6551488739405716
 21
7.25
 31
0
 12
-0.5718919423860036
 22
7.25
 32
0
 13
-0.5718919423860036
 23
7.25
 33
0
  0
MTEXT
  5
121
100
AcDbEntity
  8
sides dimensions
  6
CONTINUOUS
 62
    0
370
   -2
100
AcDbMText
 10
-0.8635204081632875
 20
10.375
 30
0
 40
0.25
 41
0.5833333333333643
 71
    5
 72
    1
  1
6.75
  7
standard
210
0
220
0
230
1
 50
90
 73
    2
 44
1
  0
LINE
  5
122
100
AcDbEntity
  8
sides dimensions
  6
ByBlock
 62
    0
370
   -2
100
AcDbLine
 10
-0.4999999999999996
 20
13.75
 11
-0.7385204081632872
 21
13.75
  0
LINE
  5
123
100
AcDbEntity
  8
sides dimensions
  6
ByBlock
 62
    0
370
   -2
100
AcDbLine
 10
-0.4999999999999999
 20
7
 11
-0.7385204081632877
 21
7
  0
ENDBLK
  5
8A
330
88
100
AcDbEntity
  8
0
100
AcDbBlockEnd
  0
BLOCK
  5
8C
330
8B
100
AcDbEntity
  8
0
100
AcDbBlockBegin
  2
*D8
 70
    1
 10
0
 20
0
  3
*D8
  1

  0
LINE
  5
124
100
AcDbEntity
  8
divider dimensions
  6
ByBlock
 62
    0
370
   -2
100
AcDbLine
 10
12.3685250544085
 20
5.249999999999998
 11
12.3685250544085
 21
3.249999999999999
  0
SOLID
  5
125
100
AcDbEntity
  8
divider dimensions
  6
ByBlock
 62
    0
370
   -2
100
AcDbTrace
 10
12.3685250544085
 20
5.249999999999998
 30
0
 11
12.41015352018579
 21
4.999999999999998
 31
0
 12
12.32689658863122
 22
4.999999999999998
 32
0
 13
12.32689658863122
 23
4.999999999999998
 33
0
  0
SOLID
  5
126
100
AcDbEntity
  8
divider dimensions
  6
ByBlock
 62
    0
370
   -2
100
AcDbTrace
 10
12.3685250544085
 20
3.249999999999999
 30
0
 11
12.32689658863122
 21
3.499999999999999
 31
0
 12
12.41015352018579
 22
3.499999999999999
 32
0
 13
12.41015352018579
 23
3.499999999999999
 33
0
  0
MTEXT
  5
127
100
AcDbEntity
  8
divider dimensions
  6
CONTINUOUS
 62
    0
370
   -2
100
AcDbMText
 10
12.1185250544085
 20
4.249999999999998
 30
0
 40
0.25
 41
0.1111111111111111
 71
    5
 72
    1
  1
2
  7
standard
210
0
220
0
230
1
 50
90
 73
    2
 44
1
  0
LINE
  5
128
100
AcDbEntity
  8
divider dimensions
  6
ByBlock
 62
    0
370
   -2
100
AcDbLine
 10
14.6250001719167
 20
5.249999999999998
 11
12.2435250544085
 21
5.249999999999998
  0
LINE
  5
129
100
AcDbEntity
  8
divider dimensions
  6
ByBlock
 62
    0
370
   -2
100
AcDbLine
 10
12.625
 20
3.249999999999999
 11
12.2435250544085
 21
3.249999999999999
  0
ENDBLK
  5
8D
330
8B
100
AcDbEntity
  8
0
100
AcDbBlockEnd
  0
BLOCK
  5
8F
330
8E
100
AcDbEntity
  8
0
100
AcDbBlockBegin
  2
*D16
 70
    1
 10
0
 20
0
  3
*D16
  1

  0
LINE
  5
12A
100
AcDbEntity
  8
ends dimensions
  6
ByBlock
 62
    0
370
   -2
100
AcDbLine
 10
16.75
 20
-1.266640919536776
 11
23.5
 21
-1.266640919536776
  0
SOLID
  5
12B
100
AcDbEntity
  8
ends dimensions
  6
ByBlock
 62
    0
370
   -2
100
AcDbTrace
 10
16.75
 20
-1.266640919536776
 30
0
 11
17
 21
-1.225012453759492
 31
0
 12
17
 22
-1.30826938531406
 32
0
 13
17
 23
-1.30826938531406
 33
0
  0
SOLID
  5
12C
100
AcDbEntity
  8
ends dimensions
  6
ByBlock
 62
    0
370
   -2
100
AcDbTrace
 10
23.5
 20
-1.266640919536776
 30
0
 11
23.25
 21
-1.30826938531406
 31
0
 12
23.25
 22
-1.225012453759492
 32
0
 13
23.25
 23
-1.225012453759492
 33
0
  0
MTEXT
  5
12D
100
AcDbEntity
  8
ends dimensions
  6
CONTINUOUS
 62
    0
370
   -2
100
AcDbMText
 10
20.125
 20
-1.016640919536776
 30
0
 40
0.25
 41
0.5833333333333643
 71
    5
 72
    1
  1
6.75
  7
standard
210
0
220
0
230
1
 50
0
 73
    2
 44
1
  0
LINE
  5
12E
100
AcDbEntity
  8
ends dimensions
  6
ByBlock
 62
    0
370
   -2
100
AcDbLine
 10
16.75
 20
-0.8750000000000021
 11
16.75
 21
-1.391640919536776
  0
LINE
  5
12F
100
AcDbEntity
  8
ends dimensions
  6
ByBlock
 62
    0
370
   -2
100
AcDbLine
 10
23.5
 20
-0.8750000000000029
 11
23.5
 21
-1.391640919536776
  0
ENDBLK
  5
90
330
8E
100
AcDbEntity
  8
0
100
AcDbBlockEnd
  0
BLOCK
  5
92
330
91
100
AcDbEntity
  8
0
100
AcDbBlockBegin
  2
*D18
 70
    1
 10
0
 20
0
  3
*D18
  1

  0
LINE
  5
130
100
AcDbEntity
  8
ends dimensions
  6
ByBlock
 62
    0
370
   -2
100
AcDbLine
 10
10.75
 20
2.5
 11
11.5
 21
2.5
  0
SOLID
  5
131
100
AcDbEntity
  8
ends dimensions
  6
ByBlock
 62
    0
370
   -2
100
AcDbTrace
 10
10.75
 20
2.5
 30
0
 11
11
 21
2.541628465777284
 31
0
 12
11
 22
2.458371534222716
 32
0
 13
11
 23
2.458371534222716
 33
0
  0
SOLID
  5
132
100
AcDbEntity
  8
ends dimensions
  6
ByBlock
 62
    0
370
   -2
100
AcDbTrace
 10
11.5
 20
2.5
 30
0
 11
11.25
 21
2.458371534222716
 31
0
 12
11.25
 22
2.541628465777284
 32
0
 13
11.25
 23
2.541628465777284
 33
0
  0
MTEXT
  5
133
100
AcDbEntity
  8
ends dimensions
  6
CONTINUOUS
 62
    0
370
   -2
100
AcDbMText
 10
11.125
 20
2.75
 30
0
 40
0.25
 41
0.5833333333333488
 71
    5
 72
    1
  1
0.75
  7
standard
210
0
220
0
230
1
 50
0
 73
    2
 44
1
  0
LINE
  5
134
100
AcDbEntity
  8
ends dimensions
  6
ByBlock
 62
    0
370
   -2
100
AcDbLine
 10
10.75
 20
2.625
 11
10.75
 21
2.625
  0
LINE
  5
135
100
AcDbEntity
  8
ends dimensions
  6
ByBlock
 62
    0
370
   -2
100
AcDbLine
 10
11.5
 20
2.625
 11
11.5
 21
2.625
  0
ENDBLK
  5
93
330
91
100
AcDbEntity
  8
0
100
AcDbBlockEnd
  0
BLOCK
  5
95
330
94
100
AcDbEntity
  8
0
100
AcDbBlockBegin
  2
*D12
 70
    1
 10
0
 20
0
  3
*D12
  1

  0
LINE
  5
136
100
AcDbEntity
  8
divider dimensions
  6
ByBlock
 62
    0
370
   -2
100
AcDbLine
 10
13.75
 20
3.750000000000023
 11
14.75
 21
3.750000000000023
  0
SOLID
  5
137
100
AcDbEntity
  8
divider dimensions
  6
ByBlock
 62
    0
370
   -2
100
AcDbTrace
 10
13.75
 20
3.750000000000023
 30
0
 11
14
 21
3.791628465777307
 31
0
 12
14
 22
3.708371534222739
 32
0
 13
14
 23
3.708371534222739
 33
0
  0
SOLID
  5
138
100
AcDbEntity
  8
divider dimensions
  6
ByBlock
 62
    0
370
   -2
100
AcDbTrace
 10
14.75
 20
3.750000000000023
 30
0
 11
14.5
 21
3.708371534222739
 31
0
 12
14.5
 22
3.791628465777307
 32
0
 13
14.5
 23
3.791628465777307
 33
0
  0
MTEXT
  5
139
100
AcDbEntity
  8
divider dimensions
  6
CONTINUOUS
 62
    0
370
   -2
100
AcDbMText
 10
14.25
 20
4.000000000000023
 30
0
 40
0.25
 41
0.05555555555555555
 71
    5
 72
    1
  1
1
  7
standard
210
0
220
0
230
1
 50
0
 73
    2
 44
1
  0
ENDBLK
  5
96
330
94
100
AcDbEntity
  8
0
100
AcDbBlockEnd
  0
BLOCK
  5
98
330
97
100
AcDbEntity
  8
0
100
AcDbBlockBegin
  2
*D32
 70
    1
 10
0
 20
0
  3
*D32
  1

  0
LINE
  5
13A
100
AcDbEntity
  8
sides dimensions
  6
ByBlock
 62
    0
370
   -2
100
AcDbLine
 10
8.515937792437979
 20
-0.625
 11
8.515937792437979
 21
0.5
  0
SOLID
  5
13B
100
AcDbEntity
  8
sides dimensions
  6
ByBlock
 62
    0
370
   -2
100
AcDbTrace
 10
8.515937792437979
 20
-0.125
 30
0
 11
8.557566258215264
 21
-0.375
 31
0
 12
8.474309326660695
 22
-0.375
 32
0
 13
8.474309326660695
 23
-0.375
 33
0
  0
SOLID
  5
13C
100
AcDbEntity
  8
sides dimensions
  6
ByBlock
 62
    0
370
   -2
100
AcDbTrace
 10
8.515937792437979
 20
-1.417201249356626e-17
 30
0
 11
8.474309326660695
 21
0.25
 31
0
 12
8.557566258215264
 22
0.25
 32
0
 13
8.557566258215264
 23
0.25
 33
0
  0
MTEXT
  5
13D
100
AcDbEntity
  8
sides dimensions
  6
CONTINUOUS
 62
    0
370
   -2
100
AcDbMText
 10
8.265937792437979
 20
0.4861111111111188
 30
0
 40
0.25
 41
0.7222222222222376
 71
    5
 72
    1
  1
0.125
  7
standard
210
0
220
0
230
1
 50
90
 73
    2
 44
1
  0
LINE
  5
13E
100
AcDbEntity
  8
sides dimensions
  6
ByBlock
 62
    0
370
   -2
100
AcDbLine
 10
8.375
 20
-0.125
 11
8.640937792437979
 21
-0.125
  0
LINE
  5
13F
100
AcDbEntity
  8
sides dimensions
  6
ByBlock
 62
    0
370
   -2
100
AcDbLine
 10
8.375
 20
0
 11
8.640937792437979
 21
-1.417201249356626e-17
  0
ENDBLK
  5
99
330
97
100
AcDbEntity
  8
0
100
AcDbBlockEnd
  0
BLOCK
  5
9B
330
9A
100
AcDbEntity
  8
0
100
AcDbBlockBegin
  2
*D31
 70
    1
 10
0
 20
0
  3
*D31
  1

  0
LINE
  5
140
100
AcDbEntity
  8
sides dimensions
  6
ByBlock
 62
    0
370
   -2
100
AcDbLine
 10
-0.375
 20
0.1605366779322254
 11
5
 21
0.1605366779322254
  0
SOLID
  5
141
100
AcDbEntity
  8
sides dimensions
  6
ByBlock
 62
    0
370
   -2
100
AcDbTrace
 10
-0.375
 20
0.1605366779322254
 30
0
 11
-0.125
 21
0.2021651437095094
 31
0
 12
-0.125
 22
0.1189082121549413
 32
0
 13
-0.125
 23
0.1189082121549413
 33
0
  0
SOLID
  5
142
100
AcDbEntity
  8
sides dimensions
  6
ByBlock
 62
    0
370
   -2
100
AcDbTrace
 10
5
 20
0.1605366779322254
 30
0
 11
4.75
 21
0.1189082121549414
 31
0
 12
4.75
 22
0.2021651437095094
 32
0
 13
4.75
 23
0.2021651437095094
 33
0
  0
MTEXT
  5
143
100
AcDbEntity
  8
sides dimensions
  6
CONTINUOUS
 62
    0
370
   -2
100
AcDbMText
 10
2.3125
 20
0.4105366779322254
 30
0
 40
0.25
 41
0.7777777777778242
 71
    5
 72
    1
  1
5.375
  7
standard
210
0
220
0
230
1
 50
0
 73
    2
 44
1
  0
LINE
  5
144
100
AcDbEntity
  8
sides dimensions
  6
ByBlock
 62
    0
370
   -2
100
AcDbLine
 10
-0.375
 20
-0.25
 11
-0.375
 21
0.2855366779322254
  0
LINE
  5
145
100
AcDbEntity
  8
sides dimensions
  6
ByBlock
 62
    0
370
   -2
100
AcDbLine
 10
5
 20
0.125
 11
5
 21
0.2855366779322254
  0
ENDBLK
  5
9C
330
9A
100
AcDbEntity
  8
0
100
AcDbBlockEnd
  0
BLOCK
  5
9E
330
9D
100
AcDbEntity
  8
0
100
AcDbBlockBegin
  2
*D24
 70
    1
 10
0
 20
0
  3
*D24
  1

  0
LINE
  5
146
100
AcDbEntity
  8
sides dimensions
  6
ByBlock
 62
    0
370
   -2
100
AcDbLine
 10
-0.375
 20
13.9498889883059
 11
11.125
 21
13.9498889883059
  0
SOLID
  5
147
100
AcDbEntity
  8
sides dimensions
  6
ByBlock
 62
    0
370
   -2
100
AcDbTrace
 10
-0.375
 20
13.9498889883059
 30
0
 11
-0.125
 21
13.99151745408319
 31
0
 12
-0.125
 22
13.90826052252862
 32
0
 13
-0.125
 23
13.90826052252862
 33
0
  0
SOLID
  5
148
100
AcDbEntity
  8
sides dimensions
  6
ByBlock
 62
    0
370
   -2
100
AcDbTrace
 10
11.125
 20
13.9498889883059
 30
0
 11
10.875
 21
13.90826052252862
 31
0
 12
10.875
 22
13.99151745408319
 32
0
 13
10.875
 23
13.99151745408319
 33
0
  0
MTEXT
  5
149
100
AcDbEntity
  8
sides dimensions
  6
CONTINUOUS
 62
    0
370
   -2
100
AcDbMText
 10
5.375
 20
14.1998889883059
 30
0
 40
0.25
 41
0.4722222222222377
 71
    5
 72
    1
  1
11.5
  7
standard
210
0
220
0
230
1
 50
0
 73
    2
 44
1
  0
LINE
  5
14A
100
AcDbEntity
  8
sides dimensions
  6
ByBlock
 62
    0
370
   -2
100
AcDbLine
 10
-0.3749999999999998
 20
13.875
 11
-0.3750000000000002
 21
14.0748889883059
  0
LINE
  5
14B
100
AcDbEntity
  8
sides dimensions
  6
ByBlock
 62
    0
370
   -2
100
AcDbLine
 10
11.125
 20
13.875
 11
11.125
 21
14.0748889883059
  0
ENDBLK
  5
9F
330
9D
100
AcDbEntity
  8
0
100
AcDbBlockEnd
  0
BLOCK
  5
A1
330
A0
100
AcDbEntity
  8
0
100
AcDbBlockBegin
  2
*D30
 70
    1
 10
0
 20
0
  3
*D30
  1

  0
LINE
  5
14C
100
AcDbEntity
  8
sides dimensions
  6
ByBlock
 62
    0
370
   -2
100
AcDbLine
 10
5.550867559146659
 20
0.5
 11
5.550867559146659
 21
-0.75
  0
SOLID
  5
14D
100
AcDbEntity
  8
sides dimensions
  6
ByBlock
 62
    0
370
   -2
100
AcDbTrace
 10
5.550867559146659
 20
0
 30
0
 11
5.509239093369375
 21
0.25
 31
0
 12
5.592496024923943
 22
0.25
 32
0
 13
5.592496024923943
 23
0.25
 33
0
  0
SOLID
  5
14E
100
AcDbEntity
  8
sides dimensions
  6
ByBlock
 62
    0
370
   -2
100
AcDbTrace
 10
5.550867559146659
 20
-0.25
 30
0
 11
5.592496024923943
 21
-0.5
 31
0
 12
5.509239093369375
 22
-0.5
 32
0
 13
5.509239093369375
 23
-0.5
 33
0
  0
MTEXT
  5
14F
100
AcDbEntity
  8
sides dimensions
  6
CONTINUOUS
 62
    0
370
   -2
100
AcDbMText
 10
5.300867559146659
 20
0.4166666666666744
 30
0
 40
0.25
 41
0.5833333333333488
 71
    5
 72
    1
  1
0.25
  7
standard
210
0
220
0
230
1
 50
90
 73
    2
 44
1
  0
LINE
  5
150
100
AcDbEntity
  8
sides dimensions
  6
ByBlock
 62
    0
370
   -2
100
AcDbLine
 10
5.625
 20
1.530808498934192e-17
 11
5.425867559146659
 21
1.530808498934192e-17
  0
LINE
  5
151
100
AcDbEntity
  8
sides dimensions
  6
ByBlock
 62
    0
370
   -2
100
AcDbLine
 10
5.625
 20
-0.25
 11
5.425867559146659
 21
-0.25
  0
ENDBLK
  5
A2
330
A0
100
AcDbEntity
  8
0
100
AcDbBlockEnd
  0
BLOCK
  5
A4
330
A3
100
AcDbEntity
  8
0
100
AcDbBlockBegin
  2
*D3
 70
    1
 10
0
 20
0
  3
*D3
  1

  0
LINE
  5
152
100
AcDbEntity
  8
bottom dimensions
  6
ByBlock
 62
    0
370
   -2
100
AcDbLine
 10
11.42460437229251
 20
5.125
 11
11.42460437229251
 21
-0.125
  0
SOLID
  5
153
100
AcDbEntity
  8
bottom dimensions
  6
ByBlock
 62
    0
370
   -2
100
AcDbTrace
 10
11.42460437229251
 20
5.125
 30
0
 11
11.46623283806979
 21
4.875
 31
0
 12
11.38297590651523
 22
4.875
 32
0
 13
11.38297590651523
 23
4.875
 33
0
  0
SOLID
  5
154
100
AcDbEntity
  8
bottom dimensions
  6
ByBlock
 62
    0
370
   -2
100
AcDbTrace
 10
11.42460437229251
 20
-0.125
 30
0
 11
11.38297590651523
 21
0.125
 31
0
 12
11.46623283806979
 22
0.125
 32
0
 13
11.46623283806979
 23
0.125
 33
0
  0
MTEXT
  5
155
100
AcDbEntity
  8
bottom dimensions
  6
CONTINUOUS
 62
    0
370
   -2
100
AcDbMText
 10
11.17460437229251
 20
2.5
 30
0
 40
0.25
 41
0.5833333333333643
 71
    5
 72
    1
  1
5.25
  7
standard
210
0
220
0
230
1
 50
90
 73
    2
 44
1
  0
LINE
  5
156
100
AcDbEntity
  8
bottom dimensions
  6
ByBlock
 62
    0
370
   -2
100
AcDbLine
 10
11
 20
5.125
 11
11.54960437229251
 21
5.125
  0
LINE
  5
157
100
AcDbEntity
  8
bottom dimensions
  6
ByBlock
 62
    0
370
   -2
100
AcDbLine
 10
11
 20
-0.125
 11
11.54960437229251
 21
-0.125
  0
ENDBLK
  5
A5
330
A3
100
AcDbEntity
  8
0
100
AcDbBlockEnd
  0
BLOCK
  5
A7
330
A6
100
AcDbEntity
  8
0
100
AcDbBlockBegin
  2
*D6
 70
    1
 10
0
 20
0
  3
*D6
  1

  0
LINE
  5
158
100
AcDbEntity
  8
divider dimensions
  6
ByBlock
 62
    0
370
   -2
100
AcDbLine
 10
14.75
 20
5.661847656184715
 11
12.75
 21
5.661847656184715
  0
SOLID
  5
159
100
AcDbEntity
  8
divider dimensions
  6
ByBlock
 62
    0
370
   -2
100
AcDbTrace
 10
14.75
 20
5.661847656184715
 30
0
 11
14.5
 21
5.620219190407432
 31
0
 12
14.5
 22
5.703476121961999
 32
0
 13
14.5
 23
5.703476121961999
 33
0
  0
SOLID
  5
15A
100
AcDbEntity
  8
divider dimensions
  6
ByBlock
 62
    0
370
   -2
100
AcDbTrace
 10
12.75
 20
5.661847656184715
 30
0
 11
13
 21
5.703476121961999
 31
0
 12
13
 22
5.620219190407431
 32
0
 13
13
 23
5.620219190407431
 33
0
  0
MTEXT
  5
15B
100
AcDbEntity
  8
divider dimensions
  6
CONTINUOUS
 62
    0
370
   -2
100
AcDbMText
 10
13.75
 20
5.911847656184715
 30
0
 40
0.25
 41
0.1111111111111111
 71
    5
 72
    1
  1
2
  7
standard
210
0
220
0
230
1
 50
360
 73
    2
 44
1
  0
LINE
  5
15C
100
AcDbEntity
  8
divider dimensions
  6
ByBlock
 62
    0
370
   -2
100
AcDbLine
 10
14.75
 20
5.374999999999998
 11
14.75
 21
5.786847656184715
  0
LINE
  5
15D
100
AcDbEntity
  8
divider dimensions
  6
ByBlock
 62
    0
370
   -2
100
AcDbLine
 10
12.75
 20
3.374999999999999
 11
12.75
 21
5.786847656184715
  0
ENDBLK
  5
A8
330
A6
100
AcDbEntity
  8
0
100
AcDbBlockEnd
  0
BLOCK
  5
AA
330
A9
100
AcDbEntity
  8
0
100
AcDbBlockBegin
  2
*D7
 70
    1
 10
0
 20
0
  3
*D7
  1

  0
LINE
  5
15E
100
AcDbEntity
  8
divider dimensions
  6
ByBlock
 62
    0
370
   -2
100
AcDbLine
 10
14.7500001719167
 20
5.661847656184715
 11
23.5
 21
5.661847656184715
  0
SOLID
  5
15F
100
AcDbEntity
  8
divider dimensions
  6
ByBlock
 62
    0
370
   -2
100
AcDbTrace
 10
14.7500001719167
 20
5.661847656184715
 30
0
 11
15.0000001719167
 21
5.703476121961999
 31
0
 12
15.0000001719167
 22
5.620219190407431
 32
0
 13
15.0000001719167
 23
5.620219190407431
 33
0
  0
SOLID
  5
160
100
AcDbEntity
  8
divider dimensions
  6
ByBlock
 62
    0
370
   -2
100
AcDbTrace
 10
23.5
 20
5.661847656184715
 30
0
 11
23.25
 21
5.620219190407432
 31
0
 12
23.25
 22
5.703476121961999
 32
0
 13
23.25
 23
5.703476121961999
 33
0
  0
MTEXT
  5
161
100
AcDbEntity
  8
divider dimensions
  6
CONTINUOUS
 62
    0
370
   -2
100
AcDbMText
 10
19.12500008595835
 20
5.911847656184715
 30
0
 40
0.25
 41
0.5833333333333488
 71
    5
 72
    1
  1
8.75
  7
standard
210
0
220
0
230
1
 50
0
 73
    2
 44
1
  0
LINE
  5
162
100
AcDbEntity
  8
divider dimensions
  6
ByBlock
 62
    0
370
   -2
100
AcDbLine
 10
14.7500001719167
 20
5.374999999999998
 11
14.7500001719167
 21
5.786847656184715
  0
LINE
  5
163
100
AcDbEntity
  8
divider dimensions
  6
ByBlock
 62
    0
370
   -2
100
AcDbLine
 10
23.5
 20
5.374999999999996
 11
23.5
 21
5.786847656184715
  0
ENDBLK
  5
AB
330
A9
100
AcDbEntity
  8
0
100
AcDbBlockEnd
  0
BLOCK
  5
AD
330
AC
100
AcDbEntity
  8
0
100
AcDbBlockBegin
  2
*D21
 70
    1
 10
0
 20
0
  3
*D21
  1

  0
LINE
  5
164
100
AcDbEntity
  8
ends dimensions
  6
ByBlock
 62
    0
370
   -2
100
AcDbLine
 10
23.75
 20
6.349210544920664
 11
22.25
 21
6.349210544920664
  0
SOLID
  5
165
100
AcDbEntity
  8
ends dimensions
  6
ByBlock
 62
    0
370
   -2
100
AcDbTrace
 10
23.25
 20
6.349210544920664
 30
0
 11
23.5
 21
6.390839010697948
 31
0
 12
23.5
 22
6.30758207914338
 32
0
 13
23.5
 23
6.30758207914338
 33
0
  0
SOLID
  5
166
100
AcDbEntity
  8
ends dimensions
  6
ByBlock
 62
    0
370
   -2
100
AcDbTrace
 10
22.75
 20
6.349210544920664
 30
0
 11
22.5
 21
6.307582079143381
 31
0
 12
22.5
 22
6.390839010697948
 32
0
 13
22.5
 23
6.390839010697948
 33
0
  0
MTEXT
  5
167
100
AcDbEntity
  8
ends dimensions
  6
CONTINUOUS
 62
    0
370
   -2
100
AcDbMText
 10
23
 20
6.599210544920664
 30
0
 40
0.25
 41
0.3888888888889044
 71
    5
 72
    1
  1
0.5
  7
standard
210
0
220
0
230
1
 50
360
 73
    2
 44
1
  0
LINE
  5
168
100
AcDbEntity
  8
ends dimensions
  6
ByBlock
 62
    0
370
   -2
100
AcDbLine
 10
23.25
 20
5.5
 11
23.25
 21
6.474210544920664
  0
LINE
  5
169
100
AcDbEntity
  8
ends dimensions
  6
ByBlock
 62
    0
370
   -2
100
AcDbLine
 10
22.75
 20
5.5
 11
22.75
 21
6.474210544920664
  0
ENDBLK
  5
AE
330
AC
100
AcDbEntity
  8
0
100
AcDbBlockEnd
  0
BLOCK
  5
B0
330
AF
100
AcDbEntity
  8
0
100
AcDbBlockBegin
  2
*D33
 70
    1
 10
0
 20
0
  3
*D33
  1

  0
LINE
  5
16A
100
AcDbEntity
  8
sides dimensions
  6
ByBlock
 62
    0
370
   -2
100
AcDbLine
 10
11.37148042521976
 20
0.5
 11
11.37148042521976
 21
-0.875
  0
SOLID
  5
16B
100
AcDbEntity
  8
sides dimensions
  6
ByBlock
 62
    0
370
   -2
100
AcDbTrace
 10
11.37148042521976
 20
0
 30
0
 11
11.32985195944248
 21
0.25
 31
0
 12
11.41310889099704
 22
0.25
 32
0
 13
11.41310889099704
 23
0.25
 33
0
  0
SOLID
  5
16C
100
AcDbEntity
  8
sides dimensions
  6
ByBlock
 62
    0
370
   -2
100
AcDbTrace
 10
11.37148042521976
 20
-0.375
 30
0
 11
11.41310889099704
 21
-0.625
 31
0
 12
11.32985195944248
 22
-0.625
 32
0
 13
11.32985195944248
 23
-0.625
 33
0
  0
MTEXT
  5
16D
100
AcDbEntity
  8
sides dimensions
  6
CONTINUOUS
 62
    0
370
   -2
100
AcDbMText
 10
11.12148042521976
 20
0.5138888888889044
 30
0
 40
0.25
 41
0.7777777777778088
 71
    5
 72
    1
  1
0.375
  7
standard
210
0
220
0
230
1
 50
90
 73
    2
 44
1
  0
LINE
  5
16E
100
AcDbEntity
  8
sides dimensions
  6
ByBlock
 62
    0
370
   -2
100
AcDbLine
 10
10.875
 20
0
 11
11.49648042521976
 21
0
  0
LINE
  5
16F
100
AcDbEntity
  8
sides dimensions
  6
ByBlock
 62
    0
370
   -2
100
AcDbLine
 10
11.25
 20
-0.375
 11
11.49648042521976
 21
-0.375
  0
ENDBLK
  5
B1
330
AF
100
AcDbEntity
  8
0
100
AcDbBlockEnd
  0
BLOCK
  5
B3
330
B2
100
AcDbEntity
  8
0
100
AcDbBlockBegin
  2
*D10
 70
    1
 10
0
 20
0
  3
*D10
  1

  0
LINE
  5
170
100
AcDbEntity
  8
divider dimensions
  6
ByBlock
 62
    0
370
   -2
100
AcDbLine
 10
15.33358243046534
 20
1.249999886447774
 11
15.33358243046534
 21
3.750000000000024
  0
SOLID
  5
171
100
AcDbEntity
  8
divider dimensions
  6
ByBlock
 62
    0
370
   -2
100
AcDbTrace
 10
15.33358243046534
 20
1.249999886447774
 30
0
 11
15.29195396468806
 21
1.499999886447774
 31
0
 12
15.37521089624262
 22
1.499999886447774
 32
0
 13
15.37521089624262
 23
1.499999886447774
 33
0
  0
SOLID
  5
172
100
AcDbEntity
  8
divider dimensions
  6
ByBlock
 62
    0
370
   -2
100
AcDbTrace
 10
15.33358243046534
 20
3.750000000000024
 30
0
 11
15.37521089624262
 21
3.500000000000024
 31
0
 12
15.29195396468806
 22
3.500000000000024
 32
0
 13
15.29195396468806
 23
3.500000000000024
 33
0
  0
MTEXT
  5
173
100
AcDbEntity
  8
divider dimensions
  6
CONTINUOUS
 62
    0
370
   -2
100
AcDbMText
 10
15.08358243046534
 20
2.499999943223899
 30
0
 40
0.25
 41
0.3888888888889044
 71
    5
 72
    1
  1
2.5
  7
standard
210
0
220
0
230
1
 50
90
 73
    2
 44
1
  0
LINE
  5
174
100
AcDbEntity
  8
divider dimensions
  6
ByBlock
 62
    0
370
   -2
100
AcDbLine
 10
14.375
 20
1.249999886447774
 11
15.45858243046534
 21
1.249999886447774
  0
LINE
  5
175
100
AcDbEntity
  8
divider dimensions
  6
ByBlock
 62
    0
370
   -2
100
AcDbLine
 10
14.375
 20
3.750000000000024
 11
15.45858243046534
 21
3.750000000000024
  0
ENDBLK
  5
B4
330
B2
100
AcDbEntity
  8
0
100
AcDbBlockEnd
  0
BLOCK
  5
B6
330
B5
100
AcDbEntity
  8
0
100
AcDbBlockBegin
  2
*D9
 70
    1
 10
0
 20
0
  3
*D9
  1

  0
LINE
  5
176
100
AcDbEntity
  8
divider dimensions
  6
ByBlock
 62
    0
370
   -2
100
AcDbLine
 10
14.25
 20
-0.536534191857903
 11
12.75
 21
-0.536534191857903
  0
SOLID
  5
177
100
AcDbEntity
  8
divider dimensions
  6
ByBlock
 62
    0
370
   -2
100
AcDbTrace
 10
14.25
 20
-0.536534191857903
 30
0
 11
14
 21
-0.578162657635187
 31
0
 12
14
 22
-0.4949057260806189
 32
0
 13
14
 23
-0.4949057260806189
 33
0
  0
SOLID
  5
178
100
AcDbEntity
  8
divider dimensions
  6
ByBlock
 62
    0
370
   -2
100
AcDbTrace
 10
12.75
 20
-0.536534191857903
 30
0
 11
13
 21
-0.4949057260806189
 31
0
 12
13
 22
-0.578162657635187
 32
0
 13
13
 23
-0.578162657635187
 33
0
  0
MTEXT
  5
179
100
AcDbEntity
  8
divider dimensions
  6
CONTINUOUS
 62
    0
370
   -2
100
AcDbMText
 10
13.5
 20
-0.286534191857903
 30
0
 40
0.25
 41
0.3333333333333488
 71
    5
 72
    1
  1
1.5
  7
standard
210
0
220
0
230
1
 50
360
 73
    2
 44
1
  0
LINE
  5
17A
100
AcDbEntity
  8
divider dimensions
  6
ByBlock
 62
    0
370
   -2
100
AcDbLine
 10
14.25
 20
0.6249998864477742
 11
14.25
 21
-0.661534191857903
  0
LINE
  5
17B
100
AcDbEntity
  8
divider dimensions
  6
ByBlock
 62
    0
370
   -2
100
AcDbLine
 10
12.75
 20
1.624999999999999
 11
12.75
 21
-0.661534191857903
  0
ENDBLK
  5
B7
330
B5
100
AcDbEntity
  8
0
100
AcDbBlockEnd
  0
ENDSEC
  0
SECTION
  2
ENTITIES
  0
CIRCLE
  5
17C
100
AcDbEntity
  8
0
  6
ByLayer
 62
  256
370
   -1
100
AcDbCircle
 10
2.5
 20
2.5
 40
2.5
  0
LWPOLYLINE
  5
17D
100
AcDbEntity
  8
0
  6
ByLayer
 62
  256
370
   -1
100
AcDbPolyline
 90
    4
 70
    1
 43
0
 10
5
 20
-0.25
 10
5.75
 20
-0.25
 10
5.75
 20
5.25
 10
5
 20
5.25
  0
LINE
  5
17E
100
AcDbEntity
  8
0
  6
ByLayer
 62
  256
370
   -1
100
AcDbLine
 10
-0.75
 20
-0.75
 11
-0.75
 21
5.75
  0
LINE
  5
17F
100
AcDbEntity
  8
0
  6
ByLayer
 62
  256
370
   -1
100
AcDbLine
 10
-0.75
 20
5.75
 11
0
 21
5.75
  0
LINE
  5
180
100
AcDbEntity
  8
0
  6
ByLayer
 62
  256
370
   -1
100
AcDbLine
 10
0
 20
-0.75
 11
-0.75
 21
-0.75
  0
LINE
  5
181
100
AcDbEntity
  8
0
  6
ByLayer
 62
  256
370
   -1
100
AcDbLine
 10
11.5
 20
-0.75
 11
11.5
 21
5.75
  0
LINE
  5
182
100
AcDbEntity
  8
0
  6
ByLayer
 62
  256
370
   -1
100
AcDbLine
 10
11.5
 20
5.75
 11
10.75
 21
5.75
  0
LINE
  5
183
100
AcDbEntity
  8
0
  6
ByLayer
 62
  256
370
   -1
100
AcDbLine
 10
10.75
 20
-0.75
 11
11.5
 21
-0.75
  0
LINE
  5
184
100
AcDbEntity
  8
0
  6
ByLayer
 62
  256
370
   -1
100
AcDbLine
 10
-0.3750000000000001
 20
5.375
 11
-0.375
 21
5.75
  0
LINE
  5
185
100
AcDbEntity
  8
0
  6
ByLayer
 62
  256
370
   -1
100
AcDbLine
 10
-0.3750000000000001
 20
5.375
 11
0
 21
5.375
  0
LINE
  5
186
100
AcDbEntity
  8
0
  6
ByLayer
 62
  256
370
   -1
100
AcDbLine
 10
0
 20
5
 11
5
 21
5
  0
LINE
  5
187
100
AcDbEntity
  8
0
  6
ByLayer
 62
  256
370
   -1
100
AcDbLine
 10
-0.375
 20
5.75
 11
11.125
 21
5.75
  0
LINE
  5
188
100
AcDbEntity
  8
0
  6
ByLayer
 62
  256
370
   -1
100
AcDbLine
 10
11.125
 20
5.75
 11
11.125
 21
5.375
  0
LINE
  5
189
100
AcDbEntity
  8
0
  6
ByLayer
 62
  256
370
   -1
100
AcDbLine
 10
10.75
 20
5.375
 11
11.125
 21
5.374999999999999
  0
LINE
  5
18A
100
AcDbEntity
  8
0
  6
ByLayer
 62
  256
370
   -1
100
AcDbLine
 10
5.75
 20
5
 11
10.75
 21
5
  0
LINE
  5
18B
100
AcDbEntity
  8
0
  6
ByLayer
 62
  256
370
   -1
100
AcDbLine
 10
10.75
 20
5.375
 11
10.75
 21
-0.375
  0
LINE
  5
18C
100
AcDbEntity
  8
0
  6
ByLayer
 62
  256
370
   -1
100
AcDbLine
 10
10.75
 20
-0.375
 11
11.125
 21
-0.375
  0
LINE
  5
18D
100
AcDbEntity
  8
0
  6
ByLayer
 62
  256
370
   -1
100
AcDbLine
 10
11.125
 20
-0.375
 11
11.125
 21
-0.75
  0
LINE
  5
18E
100
AcDbEntity
  8
0
  6
ByLayer
 62
  256
370
   -1
100
AcDbLine
 10
-0.375
 20
-0.75
 11
11.125
 21
-0.75
  0
LINE
  5
18F
100
AcDbEntity
  8
0
  6
ByLayer
 62
  256
370
   -1
100
AcDbLine
 10
0
 20
5.375
 11
0
 21
-0.3750000000000001
  0
LINE
  5
190
100
AcDbEntity
  8
0
  6
ByLayer
 62
  256
370
   -1
100
AcDbLine
 10
-0.375
 20
-0.375
 11
0
 21
-0.3750000000000001
  0
LINE
  5
191
100
AcDbEntity
  8
0
  6
ByLayer
 62
  256
370
   -1
100
AcDbLine
 10
-0.375
 20
-0.75
 11
-0.375
 21
-0.375
  0
LINE
  5
192
100
AcDbEntity
  8
0
  6
ByLayer
 62
  256
370
   -1
100
AcDbLine
 10
0
 20
0
 11
5
 21
0
  0
LINE
  5
193
100
AcDbEntity
  8
0
  6
ByLayer
 62
  256
370
   -1
100
AcDbLine
 10
5.75
 20
0
 11
10.75
 21
0
  0
LINE
  5
194
100
AcDbEntity
  8
ends
  6
ByLayer
 62
  256
370
   -1
100
AcDbLine
 10
11.5
 20
5.75
 11
11.125
 21
5.75
  0
LINE
  5
195
100
AcDbEntity
  8
ends
  6
ByLayer
 62
  256
370
   -1
100
AcDbLine
 10
11.125
 20
5.75
 11
11.125
 21
5.374999999999999
  0
LINE
  5
196
100
AcDbEntity
  8
ends
  6
ByLayer
 62
  256
370
   -1
100
AcDbLine
 10
11.125
 20
5.374999999999999
 11
10.75
 21
5.375
  0
LINE
  5
197
100
AcDbEntity
  8
ends
  6
ByLayer
 62
  256
370
   -1
100
AcDbLine
 10
10.75
 20
5.375
 11
10.75
 21
-0.375
  0
LINE
  5
198
100
AcDbEntity
  8
ends
  6
ByLayer
 62
  256
370
   -1
100
AcDbLine
 10
10.75
 20
-0.375
 11
11.125
 21
-0.375
  0
LINE
  5
199
100
AcDbEntity
  8
ends
  6
ByLayer
 62
  256
370
   -1
100
AcDbLine
 10
11.125
 20
-0.375
 11
11.125
 21
-0.75
  0
LINE
  5
19A
100
AcDbEntity
  8
ends
  6
ByLayer
 62
  256
370
   -1
100
AcDbLine
 10
11.125
 20
-0.75
 11
11.5
 21
-0.75
  0
LINE
  5
19B
100
AcDbEntity
  8
ends
  6
ByLayer
 62
  256
370
   -1
100
AcDbLine
 10
11.5
 20
-0.75
 11
11.5
 21
5.75
  0
LINE
  5
19C
100
AcDbEntity
  8
ends
  6
ByLayer
 62
  256
370
   -1
100
AcDbLine
 10
-0.75
 20
5.75
 11
-0.375
 21
5.75
  0
LINE
  5
19D
100
AcDbEntity
  8
ends
  6
ByLayer
 62
  256
370
   -1
100
AcDbLine
 10
-0.375
 20
5.75
 11
-0.3750000000000001
 21
5.375
  0
LINE
  5
19E
100
AcDbEntity
  8
ends
  6
ByLayer
 62
  256
370
   -1
100
AcDbLine
 10
-0.3750000000000001
 20
5.375
 11
0
 21
5.375
  0
LINE
  5
19F
100
AcDbEntity
  8
ends
  6
ByLayer
 62
  256
370
   -1
100
AcDbLine
 10
0
 20
5.375
 11
0
 21
-0.3750000000000001
  0
LINE
  5
1A0
100
AcDbEntity
  8
ends
  6
ByLayer
 62
  256
370
   -1
100
AcDbLine
 10
0
 20
-0.3750000000000001
 11
-0.375
 21
-0.375
  0
LINE
  5
1A1
100
AcDbEntity
  8
ends
  6
ByLayer
 62
  256
370
   -1
100
AcDbLine
 10
-0.375
 20
-0.375
 11
-0.375
 21
-0.75
  0
LINE
  5
1A2
100
AcDbEntity
  8
ends
  6
ByLayer
 62
  256
370
   -1
100
AcDbLine
 10
-0.375
 20
-0.75
 11
-0.75
 21
-0.75
  0
LINE
  5
1A3
100
AcDbEntity
  8
ends
  6
ByLayer
 62
  256
370
   -1
100
AcDbLine
 10
-0.75
 20
-0.75
 11
-0.75
 21
5.75
  0
LINE
  5
1A4
100
AcDbEntity
  8
sides
  6
ByLayer
 62
  256
370
   -1
100
AcDbLine
 10
-0.375
 20
5.75
 11
11.125
 21
5.75
  0
LINE
  5
1A5
100
AcDbEntity
  8
sides
  6
ByLayer
 62
  256
370
   -1
100
AcDbLine
 10
11.125
 20
5.75
 11
11.125
 21
5.374999999999999
  0
LINE
  5
1A6
100
AcDbEntity
  8
sides
  6
ByLayer
 62
  256
370
   -1
100
AcDbLine
 10
11.125
 20
5.374999999999999
 11
10.75
 21
5.375
  0
LINE
  5
1A7
100
AcDbEntity
  8
sides
  6
ByLayer
 62
  256
370
   -1
100
AcDbLine
 10
10.75
 20
5.375
 11
10.75
 21
5
  0
LINE
  5
1A8
100
AcDbEntity
  8
sides
  6
ByLayer
 62
  256
370
   -1
100
AcDbLine
 10
10.75
 20
5
 11
5.75
 21
5
  0
LINE
  5
1A9
100
AcDbEntity
  8
sides
  6
ByLayer
 62
  256
370
   -1
100
AcDbLine
 10
5.75
 20
5
 11
5.75
 21
5.25
  0
LINE
  5
1AA
100
AcDbEntity
  8
sides
  6
ByLayer
 62
  256
370
   -1
100
AcDbLine
 10
5.75
 20
5.25
 11
5
 21
5.25
  0
LINE
  5
1AB
100
AcDbEntity
  8
sides
  6
ByLayer
 62
  256
370
   -1
100
AcDbLine
 10
5
 20
5.25
 11
5
 21
5
  0
LINE
  5
1AC
100
AcDbEntity
  8
sides
  6
ByLayer
 62
  256
370
   -1
100
AcDbLine
 10
5
 20
5
 11
0
 21
5
  0
LINE
  5
1AD
100
AcDbEntity
  8
sides
  6
ByLayer
 62
  256
370
   -1
100
AcDbLine
 10
0
 20
5
 11
0
 21
5.375
  0
LINE
  5
1AE
100
AcDbEntity
  8
sides
  6
ByLayer
 62
  256
370
   -1
100
AcDbLine
 10
0
 20
5.375
 11
-0.3750000000000001
 21
5.375
  0
LINE
  5
1AF
100
AcDbEntity
  8
sides
  6
ByLayer
 62
  256
370
   -1
100
AcDbLine
 10
-0.3750000000000001
 20
5.375
 11
-0.375
 21
5.75
  0
LINE
  5
1B0
100
AcDbEntity
  8
sides
  6
ByLayer
 62
  256
370
   -1
100
AcDbLine
 10
-0.375
 20
-0.75
 11
-0.375
 21
-0.375
  0
LINE
  5
1B1
100
AcDbEntity
  8
sides
  6
ByLayer
 62
  256
370
   -1
100
AcDbLine
 10
-0.375
 20
-0.375
 11
0
 21
-0.3750000000000001
  0
LINE
  5
1B2
100
AcDbEntity
  8
sides
  6
ByLayer
 62
  256
370
   -1
100
AcDbLine
 10
0
 20
-0.3750000000000001
 11
0
 21
0
  0
LINE
  5
1B3
100
AcDbEntity
  8
sides
  6
ByLayer
 62
  256
370
   -1
100
AcDbLine
 10
0
 20
0
 11
5
 21
0
  0
LINE
  5
1B4
100
AcDbEntity
  8
sides
  6
ByLayer
 62
  256
370
   -1
100
AcDbLine
 10
5
 20
0
 11
5
 21
-0.25
  0
LINE
  5
1B5
100
AcDbEntity
  8
sides
  6
ByLayer
 62
  256
370
   -1
100
AcDbLine
 10
5
 20
-0.25
 11
5.75
 21
-0.25
  0
LINE
  5
1B6
100
AcDbEntity
  8
sides
  6
ByLayer
 62
  256
370
   -1
100
AcDbLine
 10
5.75
 20
-0.25
 11
5.75
 21
0
  0
LINE
  5
1B7
100
AcDbEntity
  8
sides
  6
ByLayer
 62
  256
370
   -1
100
AcDbLine
 10
5.75
 20
0
 11
10.75
 21
0
  0
LINE
  5
1B8
100
AcDbEntity
  8
sides
  6
ByLayer
 62
  256
370
   -1
100
AcDbLine
 10
10.75
 20
0
 11
10.75
 21
-0.375
  0
LINE
  5
1B9
100
AcDbEntity
  8
sides
  6
ByLayer
 62
  256
370
   -1
100
AcDbLine
 10
10.75
 20
-0.375
 11
11.125
 21
-0.375
  0
LINE
  5
1BA
100
AcDbEntity
  8
sides
  6
ByLayer
 62
  256
370
   -1
100
AcDbLine
 10
11.125
 20
-0.375
 11
11.125
 21
-0.75
  0
LINE
  5
1BB
100
AcDbEntity
  8
sides
  6
ByLayer
 62
  256
370
   -1
100
AcDbLine
 10
11.125
 20
-0.75
 11
-0.375
 21
-0.75
  0
LINE
  5
1BC
100
AcDbEntity
  8
divider
  6
ByLayer
 62
  256
370
   -1
100
AcDbLine
 10
5
 20
5.25
 11
5.75
 21
5.25
  0
LINE
  5
1BD
100
AcDbEntity
  8
divider
  6
ByLayer
 62
  256
370
   -1
100
AcDbLine
 10
5.75
 20
5.25
 11
5.75
 21
-0.25
  0
LINE
  5
1BE
100
AcDbEntity
  8
divider
  6
ByLayer
 62
  256
370
   -1
100
AcDbLine
 10
5.75
 20
-0.25
 11
5
 21
-0.25
  0
LINE
  5
1BF
100
AcDbEntity
  8
divider
  6
ByLayer
 62
  256
370
   -1
100
AcDbLine
 10
5
 20
-0.25
 11
5
 21
5.25
  0
LINE
  5
1C0
100
AcDbEntity
  8
ends
  6
ByLayer
 62
  256
370
   -1
100
AcDbLine
 10
23.5
 20
-0.7500000000000029
 11
23.5
 21
5.749999999999997
  0
LINE
  5
1C1
100
AcDbEntity
  8
divider
  6
ByLayer
 62
  256
370
   -1
100
AcDbLine
 10
23.5
 20
5.249999999999996
 11
23.5
 21
-0.2500000000000043
  0
LINE
  5
1C2
100
AcDbEntity
  8
sides
  6
ByLayer
 62
  256
370
   -1
100
AcDbLine
 10
23.5
 20
5.749999999999997
 11
23.5
 21
4.999999999999997
  0
LINE
  5
1C3
100
AcDbEntity
  8
sides
  6
ByLayer
 62
  256
370
   -1
100
AcDbLine
 10
23.5
 20
-2.886579864025407e-15
 11
23.5
 21
-0.7500000000000029
  0
LINE
  5
1C4
100
AcDbEntity
  8
sides
  6
ByLayer
 62
  256
370
   -1
100
AcDbLine
 10
23.5
 20
4.999999999999997
 11
23.25
 21
4.999999999999997
  0
LINE
  5
1C5
100
AcDbEntity
  8
sides
  6
ByLayer
 62
  256
370
   -1
100
AcDbLine
 10
23.25
 20
-2.854198359140506e-15
 11
23.5
 21
-2.886579864025407e-15
  0
LINE
  5
1C6
100
AcDbEntity
  8
sides
  6
ByLayer
 62
  256
370
   -1
100
AcDbLine
 10
23.25
 20
5.124999999999997
 11
22.75
 21
5.124999999999997
  0
LINE
  5
1C7
100
AcDbEntity
  8
sides
  6
ByLayer
 62
  256
370
   -1
100
AcDbLine
 10
22.75
 20
-0.1250000000000028
 11
23.25
 21
-0.1250000000000029
  0
LINE
  5
1C8
100
AcDbEntity
  8
sides
  6
ByLayer
 62
  256
370
   -1
100
AcDbLine
 10
23.25
 20
5.124999999999997
 11
23.25
 21
4.999999999999997
  0
LINE
  5
1C9
100
AcDbEntity
  8
sides
  6
ByLayer
 62
  256
370
   -1
100
AcDbLine
 10
22.75
 20
5.124999999999997
 11
22.75
 21
4.999999999999997
  0
LINE
  5
1CA
100
AcDbEntity
  8
sides
  6
ByLayer
 62
  256
370
   -1
100
AcDbLine
 10
23.25
 20
-2.794731354089356e-15
 11
23.25
 21
-0.1250000000000029
  0
LINE
  5
1CB
100
AcDbEntity
  8
sides
  6
ByLayer
 62
  256
370
   -1
100
AcDbLine
 10
22.75
 20
-2.611034334217253e-15
 11
22.75
 21
-0.1250000000000028
  0
LINE
  5
1CC
100
AcDbEntity
  8
bottom
  6
ByLayer
 62
  256
370
   -1
100
AcDbLine
 10
-0.125
 20
5.125
 11
-0.125
 21
-0.125
  0
LINE
  5
1CD
100
AcDbEntity
  8
bottom
  6
ByLayer
 62
  256
370
   -1
100
AcDbLine
 10
-0.125
 20
-0.125
 11
5.125
 21
-0.125
  0
LINE
  5
1CE
100
AcDbEntity
  8
bottom
  6
ByLayer
 62
  256
370
   -1
100
AcDbLine
 10
5.125
 20
5.125
 11
-0.125
 21
5.125
  0
LINE
  5
1CF
100
AcDbEntity
  8
bottom
  6
ByLayer
 62
  256
370
   -1
100
AcDbLine
 10
5.125
 20
5.125
 11
5.125
 21
-0.125
  0
LINE
  5
1D0
100
AcDbEntity
  8
bottom
  6
ByLayer
 62
  256
370
   -1
100
AcDbLine
 10
10.875
 20
5.125
 11
5.625
 21
5.125
  0
LINE
  5
1D1
100
AcDbEntity
  8
bottom
  6
ByLayer
 62
  256
370
   -1
100
AcDbLine
 10
10.875
 20
5.125
 11
10.875
 21
-0.125
  0
LINE
  5
1D2
100
AcDbEntity
  8
bottom
  6
ByLayer
 62
  256
370
   -1
100
AcDbLine
 10
5.625
 20
-0.125
 11
5.625
 21
5.125
  0
LINE
  5
1D3
100
AcDbEntity
  8
bottom
  6
ByLayer
 62
  256
370
   -1
100
AcDbLine
 10
5.625
 20
-0.125
 11
10.875
 21
-0.125
  0
LINE
  5
1D4
100
AcDbEntity
  8
bottom
  6
ByLayer
 62
  256
370
   -1
100
AcDbLine
 10
22.75
 20
5.124999999999997
 11
23.25
 21
5.124999999999997
  0
LINE
  5
1D5
100
AcDbEntity
  8
bottom
  6
ByLayer
 62
  256
370
   -1
100
AcDbLine
 10
23.25
 20
5.124999999999997
 11
23.25
 21
-0.1250000000000029
  0
LINE
  5
1D6
100
AcDbEntity
  8
bottom
  6
ByLayer
 62
  256
370
   -1
100
AcDbLine
 10
23.25
 20
-0.1250000000000029
 11
22.75
 21
-0.1250000000000028
  0
LINE
  5
1D7
100
AcDbEntity
  8
bottom
  6
ByLayer
 62
  256
370
   -1
100
AcDbLine
 10
22.75
 20
-0.1250000000000028
 11
22.75
 21
5.124999999999997
  0
LINE
  5
1D8
100
AcDbEntity
  8
0
  6
ByLayer
 62
  256
370
   -1
100
AcDbLine
 10
16.75
 20
-0.1250000000000021
 11
16.75
 21
5.124999999999998
  0
LINE
  5
1D9
100
AcDbEntity
  8
0
  6
ByLayer
 62
  256
370
   -1
100
AcDbLine
 10
12.75
 20
-0.1250000000000016
 11
12.75
 21
5.124999999999999
  0
ARC
  5
1DA
100
AcDbEntity
  8
divider
  6
ByLayer
 62
  256
370
   -1
100
AcDbCircle
 10
14.75
 20
3.249999999999998
 40
2
100
AcDbArc
 50
90
 51
180
  0
ARC
  5
1DB
100
AcDbEntity
  8
divider
  6
ByLayer
 62
  256
370
   -1
100
AcDbCircle
 10
14.75
 20
1.749999999999998
 40
2
100
AcDbArc
 50
180
 51
270
  0
LINE
  5
1DC
100
AcDbEntity
  8
divider
  6
ByLayer
 62
  256
370
   -1
100
AcDbLine
 10
12.75
 20
3.249999999999999
 11
12.75
 21
1.749999999999999
  0
ARC
  5
1DD
100
AcDbEntity
  8
divider
  6
ByLayer
 62
  256
370
   -1
100
AcDbCircle
 10
14.25
 20
3.750000000000024
 40
0.5
100
AcDbArc
 50
0
 51
180
  0
ARC
  5
1DE
100
AcDbEntity
  8
divider
  6
ByLayer
 62
  256
370
   -1
100
AcDbCircle
 10
14.25
 20
1.249999886447774
 40
0.5
100
AcDbArc
 50
180
 51
0
  0
LINE
  5
1DF
100
AcDbEntity
  8
divider
  6
ByLayer
 62
  256
370
   -1
100
AcDbLine
 10
14.7500001719167
 20
5.249999999999998
 11
23.5
 21
5.249999999999996
  0
LINE
  5
1E0
100
AcDbEntity
  8
divider
  6
ByLayer
 62
  256
370
   -1
100
AcDbLine
 10
14.75000001583505
 20
-0.2500000000000018
 11
23.5
 21
-0.2500000000000043
  0
LINE
  5
1E1
100
AcDbEntity
  8
sides
  6
ByLayer
 62
  256
370
   -1
100
AcDbLine
 10
23.5
 20
5.749999999999997
 11
16.75
 21
5.749999999999997
  0
LINE
  5
1E2
100
AcDbEntity
  8
sides
  6
ByLayer
 62
  256
370
   -1
100
AcDbLine
 10
22.75
 20
4.999999999999997
 11
16.75
 21
4.999999999999998
  0
LINE
  5
1E3
100
AcDbEntity
  8
sides
  6
ByLayer
 62
  256
370
   -1
100
AcDbLine
 10
16.75
 20
-2.012279232133096e-15
 11
22.75
 21
-2.789435349370706e-15
  0
LINE
  5
1E4
100
AcDbEntity
  8
sides
  6
ByLayer
 62
  256
370
   -1
100
AcDbLine
 10
16.75
 20
-0.7500000000000021
 11
23.5
 21
-0.7500000000000029
  0
LINE
  5
1E5
100
AcDbEntity
  8
sides
  6
ByLayer
 62
  256
370
   -1
100
AcDbLine
 10
16.75
 20
5.749999999999998
 11
16.75
 21
4.999999999999998
  0
LINE
  5
1E6
100
AcDbEntity
  8
sides
  6
ByLayer
 62
  256
370
   -1
100
AcDbLine
 10
16.75
 20
-2.012279232133096e-15
 11
16.75
 21
-0.750000000000002
  0
LINE
  5
1E7
100
AcDbEntity
  8
ends
  6
ByLayer
 62
  256
370
   -1
100
AcDbLine
 10
16.75
 20
-0.7500000000000021
 11
16.75
 21
5.749999999999998
  0
LINE
  5
1E8
100
AcDbEntity
  8
ends
  6
ByLayer
 62
  256
370
   -1
100
AcDbLine
 10
16.75
 20
5.749999999999999
 11
23.5
 21
5.749999999999997
  0
LINE
  5
1E9
100
AcDbEntity
  8
ends
  6
ByLayer
 62
  256
370
   -1
100
AcDbLine
 10
16.75
 20
-0.7500000000000021
 11
23.5
 21
-0.7500000000000029
  0
LINE
  5
1EA
100
AcDbEntity
  8
sides
  6
ByLayer
 62
  256
370
   -1
100
AcDbLine
 10
-0.3749999999999999
 20
7
 11
11.125
 21
7
  0
LINE
  5
1EB
100
AcDbEntity
  8
sides
  6
ByLayer
 62
  256
370
   -1
100
AcDbLine
 10
-0.3749999999999996
 20
13.75
 11
11.125
 21
13.75
  0
LINE
  5
1EC
100
AcDbEntity
  8
sides
  6
ByLayer
 62
  256
370
   -1
100
AcDbLine
 10
-0.3749999999999996
 20
13.75
 11
-0.3749999999999999
 21
7
  0
LINE
  5
1ED
100
AcDbEntity
  8
sides
  6
ByLayer
 62
  256
370
   -1
100
AcDbLine
 10
11.125
 20
13.75
 11
11.125
 21
7
  0
LINE
  5
1EE
100
AcDbEntity
  8
ends
  6
ByLayer
 62
  256
370
   -1
100
AcDbLine
 10
11.5
 20
7
 11
11.5
 21
13.75
  0
LINE
  5
1EF
100
AcDbEntity
  8
ends
  6
ByLayer
 62
  256
370
   -1
100
AcDbLine
 10
-0.7499999999999999
 20
7
 11
-0.7499999999999994
 21
13.75
  0
LINE
  5
1F0
100
AcDbEntity
  8
ends
  6
ByLayer
 62
  256
370
   -1
100
AcDbLine
 10
-0.7499999999999994
 20
13.75
 11
5.551115123125783e-16
 21
13.75
  0
LINE
  5
1F1
100
AcDbEntity
  8
ends
  6
ByLayer
 62
  256
370
   -1
100
AcDbLine
 10
10.75
 20
13.75
 11
11.5
 21
13.75
  0
LINE
  5
1F2
100
AcDbEntity
  8
ends
  6
ByLayer
 62
  256
370
   -1
100
AcDbLine
 10
11.5
 20
7
 11
10.75
 21
7
  0
LINE
  5
1F3
100
AcDbEntity
  8
ends
  6
ByLayer
 62
  256
370
   -1
100
AcDbLine
 10
-0.7499999999999999
 20
7
 11
1.110223024625156e-16
 21
7
  0
LINE
  5
1F4
100
AcDbEntity
  8
ends
  6
ByLayer
 62
  256
370
   -1
100
AcDbLine
 10
1.569465574305414e-16
 20
7.75
 11
5.551115123125783e-16
 21
13.75
  0
LINE
  5
1F5
100
AcDbEntity
  8
ends
  6
ByLayer
 62
  256
370
   -1
100
AcDbLine
 10
1.110223024625157e-16
 20
7
 11
1.263303874518575e-16
 21
7.25
  0
LINE
  5
1F6
100
AcDbEntity
  8
ends
  6
ByLayer
 62
  256
370
   -1
100
AcDbLine
 10
10.75
 20
7.75
 11
10.75
 21
13.75
  0
LINE
  5
1F7
100
AcDbEntity
  8
ends
  6
ByLayer
 62
  256
370
   -1
100
AcDbLine
 10
10.75
 20
7
 11
10.75
 21
7.25
  0
LINE
  5
1F8
100
AcDbEntity
  8
ends
  6
ByLayer
 62
  256
370
   -1
100
AcDbLine
 10
-0.1249999999999999
 20
7.25
 11
-0.1249999999999998
 21
7.75
  0
LINE
  5
1F9
100
AcDbEntity
  8
ends
  6
ByLayer
 62
  256
370
   -1
100
AcDbLine
 10
-0.1249999999999999
 20
7.25
 11
1.263303874518575e-16
 21
7.25
  0
LINE
  5
1FA
100
AcDbEntity
  8
ends
  6
ByLayer
 62
  256
370
   -1
100
AcDbLine
 10
-0.1249999999999998
 20
7.75
 11
1.569465574305414e-16
 21
7.75
  0
LINE
  5
1FB
100
AcDbEntity
  8
ends
  6
ByLayer
 62
  256
370
   -1
100
AcDbLine
 10
10.875
 20
7.25
 11
10.875
 21
7.75
  0
LINE
  5
1FC
100
AcDbEntity
  8
ends
  6
ByLayer
 62
  256
370
   -1
100
AcDbLine
 10
10.875
 20
7.25
 11
10.75
 21
7.25
  0
LINE
  5
1FD
100
AcDbEntity
  8
ends
  6
ByLayer
 62
  256
370
   -1
100
AcDbLine
 10
10.875
 20
7.75
 11
10.75
 21
7.75
  0
LINE
  5
1FE
100
AcDbEntity
  8
divider
  6
ByLayer
 62
  256
370
   -1
100
AcDbLine
 10
5
 20
7
 11
5.75
 21
7
  0
LINE
  5
1FF
100
AcDbEntity
  8
divider
  6
ByLayer
 62
  256
370
   -1
100
AcDbLine
 10
5.000000000000001
 20
17.75
 11
5.750000000000001
 21
17.75
  0
LINE
  5
200
100
AcDbEntity
  8
divider
  6
ByLayer
 62
  256
370
   -1
100
AcDbLine
 10
5.75
 20
7.75
 11
5.750000000000001
 21
17.75
  0
LINE
  5
201
100
AcDbEntity
  8
divider
  6
ByLayer
 62
  256
370
   -1
100
AcDbLine
 10
5.75
 20
7
 11
5.75
 21
7.25
  0
LINE
  5
202
100
AcDbEntity
  8
divider
  6
ByLayer
 62
  256
370
   -1
100
AcDbLine
 10
5
 20
7.75
 11
5.000000000000001
 21
17.75
  0
LINE
  5
203
100
AcDbEntity
  8
divider
  6
ByLayer
 62
  256
370
   -1
100
AcDbLine
 10
5
 20
7
 11
5
 21
7.25
  0
LINE
  5
204
100
AcDbEntity
  8
divider
  6
ByLayer
 62
  256
370
   -1
100
AcDbLine
 10
5
 20
7.75
 11
5.125
 21
7.75
  0
LINE
  5
205
100
AcDbEntity
  8
divider
  6
ByLayer
 62
  256
370
   -1
100
AcDbLine
 10
5.625
 20
7.75
 11
5.75
 21
7.75
  0
LINE
  5
206
100
AcDbEntity
  8
divider
  6
ByLayer
 62
  256
370
   -1
100
AcDbLine
 10
5
 20
7.25
 11
5.125
 21
7.25
  0
LINE
  5
207
100
AcDbEntity
  8
divider
  6
ByLayer
 62
  256
370
   -1
100
AcDbLine
 10
5.625
 20
7.25
 11
5.75
 21
7.25
  0
LINE
  5
208
100
AcDbEntity
  8
divider
  6
ByLayer
 62
  256
370
   -1
100
AcDbLine
 10
5.625
 20
7.25
 11
5.625
 21
7.75
  0
LINE
  5
209
100
AcDbEntity
  8
divider
  6
ByLayer
 62
  256
370
   -1
100
AcDbLine
 10
5.125
 20
7.25
 11
5.125
 21
7.75
  0
LINE
  5
20A
100
AcDbEntity
  8
bottom
  6
ByLayer
 62
  256
370
   -1
100
AcDbLine
 10
-0.1249999999999998
 20
7.75
 11
5.125
 21
7.75
  0
LINE
  5
20B
100
AcDbEntity
  8
bottom
  6
ByLayer
 62
  256
370
   -1
100
AcDbLine
 10
5.125
 20
7.75
 11
5.125
 21
7.25
  0
LINE
  5
20C
100
AcDbEntity
  8
bottom
  6
ByLayer
 62
  256
370
   -1
100
AcDbLine
 10
5.125
 20
7.25
 11
-0.1249999999999999
 21
7.25
  0
LINE
  5
20D
100
AcDbEntity
  8
bottom
  6
ByLayer
 62
  256
370
   -1
100
AcDbLine
 10
-0.1249999999999999
 20
7.25
 11
-0.1249999999999998
 21
7.75
  0
LINE
  5
20E
100
AcDbEntity
  8
bottom
  6
ByLayer
 62
  256
370
   -1
100
AcDbLine
 10
5.625
 20
7.75
 11
10.875
 21
7.75
  0
LINE
  5
20F
100
AcDbEntity
  8
bottom
  6
ByLayer
 62
  256
370
   -1
100
AcDbLine
 10
10.875
 20
7.75
 11
10.875
 21
7.25
  0
LINE
  5
210
100
AcDbEntity
  8
bottom
  6
ByLayer
 62
  256
370
   -1
100
AcDbLine
 10
10.875
 20
7.25
 11
5.625
 21
7.25
  0
LINE
  5
211
100
AcDbEntity
  8
bottom
  6
ByLayer
 62
  256
370
   -1
100
AcDbLine
 10
5.625
 20
7.25
 11
5.625
 21
7.75
  0
DIMENSION
  5
212
100
AcDbEntity
  8
bottom dimensions
  6
ByLayer
 62
  256
370
   -1
100
AcDbDimension
  2
*D1
 10
23.25
 20
5.357432052886234
 30
0
 11
23
 21
5.607432052886234
 31
0
 70
   32
 71
    5
 72
    0
  3
Standard
 53
0
210
0
220
0
230
1
100
AcDbAlignedDimension
 13
22.75
 23
5.124999999999997
 33
0
 14
23.25
 24
5.124999999999997
 34
0
100
AcDbRotatedDimension
  0
DIMENSION
  5
213
100
AcDbEntity
  8
bottom dimensions
  6
ByLayer
 62
  256
370
   -1
100
AcDbDimension
  2
*D2
 10
10.875
 20
-0.633320459768389
 30
0
 11
8.25
 21
-0.383320459768389
 31
0
 70
   32
 71
    5
 72
    0
  3
Standard
 53
0
210
0
220
0
230
1
100
AcDbAlignedDimension
 13
5.625
 23
-0.125
 33
0
 14
10.875
 24
-0.125
 34
0
100
AcDbRotatedDimension
  0
DIMENSION
  5
214
100
AcDbEntity
  8
bottom dimensions
  6
ByLayer
 62
  256
370
   -1
100
AcDbDimension
  2
*D3
 10
11.42460437229251
 20
-0.1250000000000001
 30
0
 11
11.17460437229251
 21
2.5
 31
0
 70
   32
 71
    5
 72
    0
  3
Standard
 53
0
210
0
220
0
230
1
100
AcDbAlignedDimension
 13
10.875
 23
5.125
 33
0
 14
10.875
 24
-0.125
 34
0
 50
90
100
AcDbRotatedDimension
  0
DIMENSION
  5
215
100
AcDbEntity
  8
divider dimensions
  6
ByLayer
 62
  256
370
   -1
100
AcDbDimension
  2
*D4
 10
23.5
 20
-0.804891581632655
 30
0
 11
18.125
 21
-0.554891581632655
 31
0
 70
   32
 71
    5
 72
    0
  3
Standard
 53
0
210
0
220
0
230
1
100
AcDbAlignedDimension
 13
12.75
 23
1.749999999999999
 33
0
 14
23.5
 24
-0.2500000000000043
 34
0
100
AcDbRotatedDimension
  0
DIMENSION
  5
216
100
AcDbEntity
  8
divider dimensions
  6
ByLayer
 62
  256
370
   -1
100
AcDbDimension
  2
*D5
 10
24.09308801020414
 20
-0.2500000000000044
 30
0
 11
23.84308801020414
 21
2.499999999999996
 31
0
 70
   32
 71
    5
 72
    0
  3
Standard
 53
0
210
0
220
0
230
1
100
AcDbAlignedDimension
 13
23.5
 23
5.249999999999996
 33
0
 14
23.5
 24
-0.2500000000000043
 34
0
 50
90
100
AcDbRotatedDimension
  0
ARC
  5
217
100
AcDbEntity
  8
divider
  6
ByLayer
 62
  256
370
   -1
100
AcDbCircle
 10
14.25
 20
1.249999886447774
 40
0.5
100
AcDbArc
 50
123.5572979920049
 51
56.44270200799464
  0
ARC
  5
218
100
AcDbEntity
  8
divider
  6
ByLayer
 62
  256
370
   -1
100
AcDbCircle
 10
14.25
 20
2.083333333333357
 40
0.5
100
AcDbArc
 50
123.5573097619208
 51
236.4427020079948
  0
ARC
  5
219
100
AcDbEntity
  8
divider
  6
ByLayer
 62
  256
370
   -1
100
AcDbCircle
 10
14.25
 20
2.083333333333357
 40
0.5
100
AcDbArc
 50
303.5572979920051
 51
56.44269023807917
  0
ARC
  5
21A
100
AcDbEntity
  8
divider
  6
ByLayer
 62
  256
370
   -1
100
AcDbCircle
 10
14.25
 20
2.91666666666669
 40
0.5
100
AcDbArc
 50
123.5573097619208
 51
236.4426902380792
  0
ARC
  5
21B
100
AcDbEntity
  8
divider
  6
ByLayer
 62
  256
370
   -1
100
AcDbCircle
 10
14.25
 20
2.91666666666669
 40
0.5
100
AcDbArc
 50
303.5573097619208
 51
56.44269023807917
  0
ARC
  5
21C
100
AcDbEntity
  8
divider
  6
ByLayer
 62
  256
370
   -1
100
AcDbCircle
 10
14.25
 20
3.750000000000023
 40
0.5
100
AcDbArc
 50
303.5573097619207
 51
236.4426902380792
  0
DIMENSION
  5
21D
100
AcDbEntity
  8
divider dimensions
  6
ByLayer
 62
  256
370
   -1
100
AcDbDimension
  2
*D6
 10
12.75
 20
5.661847656184715
 30
0
 11
13.75
 21
5.911847656184715
 31
0
 70
   32
 71
    5
 72
    0
  3
Standard
 53
0
210
0
220
0
230
1
100
AcDbAlignedDimension
 13
14.75
 23
5.249999999999998
 33
0
 14
12.75
 24
3.249999999999999
 34
0
100
AcDbRotatedDimension
  0
DIMENSION
  5
21E
100
AcDbEntity
  8
divider dimensions
  6
ByLayer
 62
  256
370
   -1
100
AcDbDimension
  2
*D7
 10
23.5
 20
5.661847656184715
 30
0
 11
19.12500008595835
 21
5.911847656184715
 31
0
 70
   32
 71
    5
 72
    0
  3
Standard
 53
0
210
0
220
0
230
1
100
AcDbAlignedDimension
 13
14.7500001719167
 23
5.249999999999998
 33
0
 14
23.5
 24
5.249999999999996
 34
0
100
AcDbRotatedDimension
  0
DIMENSION
  5
21F
100
AcDbEntity
  8
divider dimensions
  6
ByLayer
 62
  256
370
   -1
100
AcDbDimension
  2
*D8
 10
12.3685250544085
 20
3.249999999999999
 30
0
 11
12.1185250544085
 21
4.249999999999998
 31
0
 70
   32
 71
    5
 72
    0
  3
Standard
 53
0
210
0
220
0
230
1
100
AcDbAlignedDimension
 13
14.7500001719167
 23
5.249999999999998
 33
0
 14
12.75
 24
3.249999999999999
 34
0
 50
90
100
AcDbRotatedDimension
  0
DIMENSION
  5
220
100
AcDbEntity
  8
divider dimensions
  6
ByLayer
 62
  256
370
   -1
100
AcDbDimension
  2
*D9
 10
12.75
 20
-0.536534191857903
 30
0
 11
13.5
 21
-0.286534191857903
 31
0
 70
   32
 71
    5
 72
    0
  3
Standard
 53
0
210
0
220
0
230
1
100
AcDbAlignedDimension
 13
14.25
 23
0.7499998864477742
 33
0
 14
12.75
 24
1.749999999999999
 34
0
100
AcDbRotatedDimension
  0
DIMENSION
  5
221
100
AcDbEntity
  8
divider dimensions
  6
ByLayer
 62
  256
370
   -1
100
AcDbDimension
  2
*D10
 10
15.33358243046534
 20
3.750000000000024
 30
0
 11
15.08358243046534
 21
2.499999943223899
 31
0
 70
   32
 71
    5
 72
    0
  3
Standard
 53
0
210
0
220
0
230
1
100
AcDbAlignedDimension
 13
14.25
 23
1.249999886447774
 33
0
 14
14.25
 24
3.750000000000024
 34
0
 50
90
100
AcDbRotatedDimension
  0
DIMENSION
  5
222
100
AcDbEntity
  8
divider dimensions
  6
ByLayer
 62
  256
370
   -1
100
AcDbDimension
  2
*D11
 10
15.33358243046534
 20
-0.2500000000000016
 30
0
 11
15.08358243046534
 21
0.4999999432238862
 31
0
 70
   32
 71
    5
 72
    0
  3
Standard
 53
0
210
0
220
0
230
1
100
AcDbAlignedDimension
 13
14.75
 23
1.249999886447774
 33
0
 14
14.75
 24
-0.2500000000000016
 34
0
 50
90
100
AcDbRotatedDimension
  0
DIMENSION
  5
223
100
AcDbEntity
  8
divider dimensions
  6
ByLayer
 62
  256
370
   -1
100
AcDbDimension
  2
*D12
 10
13.75
 20
3.750000000000023
 30
0
 11
14.25
 21
4.000000000000023
 31
0
 70
   35
 71
    5
 72
    0
  3
Standard
 53
0
210
0
220
0
230
1
100
AcDbDiametricDimension
 15
14.75
 25
3.750000000000023
 35
0
 40
0
  0
DIMENSION
  5
224
100
AcDbEntity
  8
divider dimensions
  6
ByLayer
 62
  256
370
   -1
100
AcDbDimension
  2
*D13
 10
4.842789571683106
 20
7.25
 30
0
 11
4.592789571683106
 21
7.125
 31
0
 70
   32
 71
    5
 72
    0
  3
Standard
 53
0
210
0
220
0
230
1
100
AcDbAlignedDimension
 13
5
 23
7
 33
0
 14
5
 24
7.25
 34
0
 50
90
100
AcDbRotatedDimension
  0
DIMENSION
  5
225
100
AcDbEntity
  8
divider dimensions
  6
ByLayer
 62
  256
370
   -1
100
AcDbDimension
  2
*D14
 10
6.162171699250216
 20
7.75
 30
0
 11
5.912171699250216
 21
7.5
 31
0
 70
   32
 71
    5
 72
    0
  3
Standard
 53
0
210
0
220
0
230
1
100
AcDbAlignedDimension
 13
5.75
 23
7.25
 33
0
 14
5.75
 24
7.75
 34
0
 50
90
100
AcDbRotatedDimension
  0
DIMENSION
  5
226
100
AcDbEntity
  8
divider dimensions
  6
ByLayer
 62
  256
370
   -1
100
AcDbDimension
  2
*D15
 10
5.625
 20
6.318879921298416
 30
0
 11
5.6875
 21
6.568879921298416
 31
0
 70
   32
 71
    5
 72
    0
  3
Standard
 53
0
210
0
220
0
230
1
100
AcDbAlignedDimension
 13
5.75
 23
7.25
 33
0
 14
5.625
 24
7.25
 34
0
100
AcDbRotatedDimension
  0
DIMENSION
  5
227
100
AcDbEntity
  8
ends dimensions
  6
ByLayer
 62
  256
370
   -1
100
AcDbDimension
  2
*D16
 10
23.5
 20
-1.266640919536776
 30
0
 11
20.125
 21
-1.016640919536776
 31
0
 70
   32
 71
    5
 72
    0
  3
Standard
 53
0
210
0
220
0
230
1
100
AcDbAlignedDimension
 13
16.75
 23
-0.7500000000000021
 33
0
 14
23.5
 24
-0.7500000000000029
 34
0
100
AcDbRotatedDimension
  0
DIMENSION
  5
228
100
AcDbEntity
  8
ends dimensions
  6
ByLayer
 62
  256
370
   -1
100
AcDbDimension
  2
*D17
 10
24.01650527827573
 20
5.749999999999996
 30
0
 11
23.76650527827573
 21
2.499999999999996
 31
0
 70
   32
 71
    5
 72
    0
  3
Standard
 53
0
210
0
220
0
230
1
100
AcDbAlignedDimension
 13
23.5
 23
-0.7500000000000029
 33
0
 14
23.5
 24
5.749999999999996
 34
0
 50
90
100
AcDbRotatedDimension
  0
DIMENSION
  5
229
100
AcDbEntity
  8
ends dimensions
  6
ByLayer
 62
  256
370
   -1
100
AcDbDimension
  2
*D18
 10
11.5
 20
2.5
 30
0
 11
11.125
 21
2.75
 31
0
 70
   32
 71
    5
 72
    0
  3
Standard
 53
0
210
0
220
0
230
1
100
AcDbAlignedDimension
 13
10.75
 23
2.5
 33
0
 14
11.5
 24
2.5
 34
0
100
AcDbRotatedDimension
  0
DIMENSION
  5
22A
100
AcDbEntity
  8
ends dimensions
  6
ByLayer
 62
  256
370
   -1
100
AcDbDimension
  2
*D19
 10
11.125
 20
-1.22938677484452
 30
0
 11
10.9375
 21
-0.97938677484452
 31
0
 70
   32
 71
    5
 72
    0
  3
Standard
 53
0
210
0
220
0
230
1
100
AcDbAlignedDimension
 13
10.75
 23
-0.375
 33
0
 14
11.125
 24
-0.375
 34
0
100
AcDbRotatedDimension
  0
LINE
  5
22B
100
AcDbEntity
  8
ends
  6
DOTTINY
 62
  256
370
   -1
100
AcDbLine
 10
16.75
 20
5.375
 11
23.5
 21
5.375
  0
LINE
  5
22C
100
AcDbEntity
  8
ends
  6
DOTTINY
 62
  256
370
   -1
100
AcDbLine
 10
16.75
 20
-0.375
 11
23.5
 21
-0.375
  0
LINE
  5
22D
100
AcDbEntity
  8
ends
  6
DOTTINY
 62
  256
370
   -1
100
AcDbLine
 10
22.75
 20
-0.375
 11
22.75
 21
5.375
  0
LINE
  5
22E
100
AcDbEntity
  8
ends
  6
DOTTINY
 62
  256
370
   -1
100
AcDbLine
 10
23.25
 20
-0.375
 11
23.25
 21
5.375
  0
DIMENSION
  5
22F
100
AcDbEntity
  8
ends dimensions
  6
ByLayer
 62
  256
370
   -1
100
AcDbDimension
  2
*D20
 10
23.5
 20
5.949857333894603
 30
0
 11
23.375
 21
6.199857333894603
 31
0
 70
   32
 71
    5
 72
    0
  3
Standard
 53
0
210
0
220
0
230
1
100
AcDbAlignedDimension
 13
23.25
 23
5.375
 33
0
 14
23.5
 24
5.375
 34
0
100
AcDbRotatedDimension
  0
DIMENSION
  5
230
100
AcDbEntity
  8
ends dimensions
  6
ByLayer
 62
  256
370
   -1
100
AcDbDimension
  2
*D21
 10
22.75
 20
6.349210544920664
 30
0
 11
23
 21
6.599210544920664
 31
0
 70
   32
 71
    5
 72
    0
  3
Standard
 53
0
210
0
220
0
230
1
100
AcDbAlignedDimension
 13
23.25
 23
5.375
 33
0
 14
22.75
 24
5.375
 34
0
100
AcDbRotatedDimension
  0
DIMENSION
  5
231
100
AcDbEntity
  8
ends dimensions
  6
ByLayer
 62
  256
370
   -1
100
AcDbDimension
  2
*D22
 10
16.51652617481725
 20
5.375
 30
0
 11
16.26652617481725
 21
5.5625
 31
0
 70
   32
 71
    5
 72
    0
  3
Standard
 53
0
210
0
220
0
230
1
100
AcDbAlignedDimension
 13
16.75
 23
5.749999999999999
 33
0
 14
16.75
 24
5.375
 34
0
 50
90
100
AcDbRotatedDimension
  0
DIMENSION
  5
232
100
AcDbEntity
  8
ends dimensions
  6
ByLayer
 62
  256
370
   -1
100
AcDbDimension
  2
*D23
 10
10.75
 20
6.505230258112173
 30
0
 11
10.8125
 21
6.755230258112173
 31
0
 70
   32
 71
    5
 72
    0
  3
Standard
 53
0
210
0
220
0
230
1
100
AcDbAlignedDimension
 13
10.875
 23
7.25
 33
0
 14
10.75
 24
7
 34
0
100
AcDbRotatedDimension
  0
LINE
  5
233
100
AcDbEntity
  8
ends
  6
DOTTINY
 62
  256
370
   -1
100
AcDbLine
 10
10.875
 20
5.375
 11
10.875
 21
-0.375
  0
LINE
  5
234
100
AcDbEntity
  8
ends
  6
DOTTINY
 62
  256
370
   -1
100
AcDbLine
 10
-0.125
 20
5.375
 11
-0.125
 21
-0.375
  0
LINE
  5
235
100
AcDbEntity
  8
divider
  6
DOTTINY
 62
  256
370
   -1
100
AcDbLine
 10
5.125
 20
-0.25
 11
5.125
 21
5.25
  0
LINE
  5
236
100
AcDbEntity
  8
divider
  6
DOTTINY
 62
  256
370
   -1
100
AcDbLine
 10
5.625
 20
5.25
 11
5.625
 21
-0.25
  0
LINE
  5
237
100
AcDbEntity
  8
divider
  6
DOTTINY
 62
  256
370
   -1
100
AcDbLine
 10
23.25
 20
5.25
 11
23.25
 21
-0.25
  0
LINE
  5
238
100
AcDbEntity
  8
divider
  6
DOTTINY
 62
  256
370
   -1
100
AcDbLine
 10
22.75
 20
5.25
 11
22.75
 21
-0.25
  0
LINE
  5
239
100
AcDbEntity
  8
sides
  6
DOTTINY
 62
  256
370
   -1
100
AcDbLine
 10
23.5
 20
5.25
 11
16.75
 21
5.25
  0
LINE
  5
23A
100
AcDbEntity
  8
sides
  6
DOTTINY
 62
  256
370
   -1
100
AcDbLine
 10
16.75
 20
-0.25
 11
23.5
 21
-0.25
  0
LINE
  5
23B
100
AcDbEntity
  8
sides
  6
DOTTINY
 62
  256
370
   -1
100
AcDbLine
 10
5.75
 20
-0.125
 11
10.75
 21
-0.125
  0
LINE
  5
23C
100
AcDbEntity
  8
sides
  6
DOTTINY
 62
  256
370
   -1
100
AcDbLine
 10
-2.29621e-17
 20
-0.125
 11
5
 21
-0.125
  0
LINE
  5
23D
100
AcDbEntity
  8
sides
  6
DOTTINY
 62
  256
370
   -1
100
AcDbLine
 10
10.75
 20
5.125
 11
5.75
 21
5.125
  0
LINE
  5
23E
100
AcDbEntity
  8
sides
  6
DOTTINY
 62
  256
370
   -1
100
AcDbLine
 10
5
 20
5.125
 11
3.82702e-17
 21
5.125
  0
LINE
  5
23F
100
AcDbEntity
  8
sides
  6
DOTTINY
 62
  256
370
   -1
100
AcDbLine
 10
4.44089e-16
 20
13.75
 11
5.551119999999999e-17
 21
7
  0
LINE
  5
240
100
AcDbEntity
  8
sides
  6
DOTTINY
 62
  256
370
   -1
100
AcDbLine
 10
5
 20
13.75
 11
5
 21
7
  0
LINE
  5
241
100
AcDbEntity
  8
sides
  6
DOTTINY
 62
  256
370
   -1
100
AcDbLine
 10
5.75
 20
13.75
 11
5.75
 21
7
  0
LINE
  5
242
100
AcDbEntity
  8
sides
  6
DOTTINY
 62
  256
370
   -1
100
AcDbLine
 10
10.75
 20
13.75
 11
10.75
 21
7
  0
LINE
  5
243
100
AcDbEntity
  8
sides
  6
DOTTINY
 62
  256
370
   -1
100
AcDbLine
 10
9.86865e-17
 20
7.75
 11
5
 21
7.75
  0
LINE
  5
244
100
AcDbEntity
  8
sides
  6
DOTTINY
 62
  256
370
   -1
100
AcDbLine
 10
5.75
 20
7.75
 11
10.75
 21
7.75
  0
LINE
  5
245
100
AcDbEntity
  8
sides
  6
DOTTINY
 62
  256
370
   -1
100
AcDbLine
 10
5.75
 20
7.25
 11
10.75
 21
7.25
  0
LINE
  5
246
100
AcDbEntity
  8
sides
  6
DOTTINY
 62
  256
370
   -1
100
AcDbLine
 10
6.990289999999999e-17
 20
7.25
 11
5
 21
7.25
  0
DIMENSION
  5
247
100
AcDbEntity
  8
sides dimensions
  6
ByLayer
 62
  256
370
   -1
100
AcDbDimension
  2
*D24
 10
11.125
 20
13.9498889883059
 30
0
 11
5.375
 21
14.1998889883059
 31
0
 70
   32
 71
    5
 72
    0
  3
Standard
 53
0
210
0
220
0
230
1
100
AcDbAlignedDimension
 13
-0.3749999999999996
 23
13.75
 33
0
 14
11.125
 24
13.75
 34
0
100
AcDbRotatedDimension
  0
DIMENSION
  5
248
100
AcDbEntity
  8
sides dimensions
  6
ByLayer
 62
  256
370
   -1
100
AcDbDimension
  2
*D25
 10
2.598429971258747e-17
 20
6.517789124048333
 30
0
 11
-0.1874999999999999
 21
6.767789124048333
 31
0
 70
   32
 71
    5
 72
    0
  3
Standard
 53
0
210
0
220
0
230
1
100
AcDbAlignedDimension
 13
-0.3749999999999999
 23
7
 33
0
 14
5.551119999999999e-17
 24
7
 34
0
100
AcDbRotatedDimension
  0
DIMENSION
  5
249
100
AcDbEntity
  8
sides dimensions
  6
ByLayer
 62
  256
370
   -1
100
AcDbDimension
  2
*D26
 10
5.75
 20
6.50173545625511
 30
0
 11
5.375
 21
6.75173545625511
 31
0
 70
   32
 71
    5
 72
    0
  3
Standard
 53
0
210
0
220
0
230
1
100
AcDbAlignedDimension
 13
5
 23
7
 33
0
 14
5.75
 24
7
 34
0
100
AcDbRotatedDimension
  0
DIMENSION
  5
24A
100
AcDbEntity
  8
sides dimensions
  6
ByLayer
 62
  256
370
   -1
100
AcDbDimension
  2
*D27
 10
-0.6135204081632877
 20
7
 30
0
 11
-0.8635204081632875
 21
10.375
 31
0
 70
   32
 71
    5
 72
    0
  3
Standard
 53
0
210
0
220
0
230
1
100
AcDbAlignedDimension
 13
-0.3749999999999996
 23
13.75
 33
0
 14
-0.3749999999999999
 24
7
 34
0
 50
90
100
AcDbRotatedDimension
  0
DIMENSION
  5
24B
100
AcDbEntity
  8
sides dimensions
  6
ByLayer
 62
  256
370
   -1
100
AcDbDimension
  2
*D28
 10
11.64812924044644
 20
7.25
 30
0
 11
11.39812924044644
 21
7.125
 31
0
 70
   32
 71
    5
 72
    0
  3
Standard
 53
0
210
0
220
0
230
1
100
AcDbAlignedDimension
 13
10.75
 23
7
 33
0
 14
10.75
 24
7.25
 34
0
 50
90
100
AcDbRotatedDimension
  0
DIMENSION
  5
24C
100
AcDbEntity
  8
sides dimensions
  6
ByLayer
 62
  256
370
   -1
100
AcDbDimension
  2
*D29
 10
10.48083270675564
 20
7.75
 30
0
 11
10.23083270675564
 21
7.5
 31
0
 70
   32
 71
    5
 72
    0
  3
Standard
 53
0
210
0
220
0
230
1
100
AcDbAlignedDimension
 13
10.75
 23
7.25
 33
0
 14
10.75
 24
7.75
 34
0
 50
90
100
AcDbRotatedDimension
  0
DIMENSION
  5
24D
100
AcDbEntity
  8
sides dimensions
  6
ByLayer
 62
  256
370
   -1
100
AcDbDimension
  2
*D30
 10
5.550867559146659
 20
-0.25
 30
0
 11
5.300867559146659
 21
-0.125
 31
0
 70
   32
 71
    5
 72
    0
  3
Standard
 53
0
210
0
220
0
230
1
100
AcDbAlignedDimension
 13
5.75
 23
0
 33
0
 14
5.75
 24
-0.25
 34
0
 50
90
100
AcDbRotatedDimension
  0
DIMENSION
  5
24E
100
AcDbEntity
  8
sides dimensions
  6
ByLayer
 62
  256
370
   -1
100
AcDbDimension
  2
*D31
 10
5
 20
0.1605366779322254
 30
0
 11
2.3125
 21
0.4105366779322254
 31
0
 70
   32
 71
    5
 72
    0
  3
Standard
 53
0
210
0
220
0
230
1
100
AcDbAlignedDimension
 13
-0.375
 23
-0.375
 33
0
 14
5
 24
0
 34
0
100
AcDbRotatedDimension
  0
DIMENSION
  5
24F
100
AcDbEntity
  8
sides dimensions
  6
ByLayer
 62
  256
370
   -1
100
AcDbDimension
  2
*D32
 10
8.515937792437979
 20
-3.256798662814845e-17
 30
0
 11
8.265937792437979
 21
-0.06249999999999997
 31
0
 70
   32
 71
    5
 72
    0
  3
Standard
 53
0
210
0
220
0
230
1
100
AcDbAlignedDimension
 13
8.25
 23
-0.125
 33
0
 14
8.25
 24
0
 34
0
 50
90
100
AcDbRotatedDimension
  0
DIMENSION
  5
250
100
AcDbEntity
  8
sides dimensions
  6
ByLayer
 62
  256
370
   -1
100
AcDbDimension
  2
*D33
 10
11.37148042521976
 20
-0.3750000000000001
 30
0
 11
11.12148042521976
 21
-0.1875
 31
0
 70
   32
 71
    5
 72
    0
  3
Standard
 53
0
210
0
220
0
230
1
100
AcDbAlignedDimension
 13
10.75
 23
0
 33
0
 14
11.125
 24
-0.375
 34
0
 50
90
100
AcDbRotatedDimension
  0
ENDSEC
  0
SECTION
  2
OBJECTS
  0
DICTIONARY
  5
C
330
0
100
AcDbDictionary
281
    1
  3
ACAD_GROUP
350
D
  0
DICTIONARY
  5
D
330
C
100
AcDbDictionary
281
    1
  0
ENDSEC
  0
EOF
