999
dxfrw 0.6.3
  0
SECTION
  2
HEADER
  9
$ACADVER
  1
AC1021
  9
$DWGCODEPAGE
  3
ANSI_1252
  9
$INSBASE
 10
0
 20
0
 30
0
  9
$EXTMIN
 10
-6.207106781186548
 20
-3.153954733568153
 30
0
  9
$EXTMAX
 10
7.914466911348723
 20
7.353553390593274
 30
0
  9
$LIMMIN
 10
0
 20
0
  9
$LIMMAX
 10
420
 20
297
  9
$ORTHOMODE
 70
    0
  9
$REGENMODE
 70
    1
  9
$FILLMODE
 70
    1
  9
$QTEXTMODE
 70
    0
  9
$MIRRTEXT
 70
    0
  9
$LTSCALE
 40
1
  9
$ATTMODE
 70
    0
  9
$TEXTSIZE
 40
2.5
  9
$TRACEWID
 40
15.68
  9
$TEXTSTYLE
  7
STANDARD
  9
$CLAYER
  8
90 left
  9
$CELTYPE
  6
BYLAYER
  9
$CECOLOR
 62
  256
  9
$CELTSCALE
 40
1
  9
$DISPSILH
 70
    0
  9
$DIMSCALE
 40
0.1
  9
$DIMASZ
 40
2.5
  9
$DIMEXO
 40
0.625
  9
$DIMDLI
 40
3.75
  9
$DIMRND
 40
0
  9
$DIMDLE
 40
0
  9
$DIMEXE
 40
1.25
  9
$DIMTP
 40
0
  9
$DIMTM
 40
0
  9
$DIMTXT
 40
2.5
  9
$DIMCEN
 40
2.5
  9
$DIMTSZ
 40
0
  9
$DIMTOL
 70
    0
  9
$DIMLIM
 70
    0
  9
$DIMTIH
 70
    0
  9
$DIMTOH
 70
    0
  9
$DIMSE1
 70
    0
  9
$DIMSE2
 70
    0
  9
$DIMTAD
 70
    1
  9
$DIMZIN
 70
    8
  9
$DIMBLK
  1

  9
$DIMASO
 70
    1
  9
$DIMSHO
 70
    1
  9
$DIMPOST
  1

  9
$DIMAPOST
  1

  9
$DIMALT
 70
    0
  9
$DIMALTD
 70
    3
  9
$DIMALTF
 40
0.03937
  9
$DIMLFAC
 40
1
  9
$DIMTOFL
 70
    1
  9
$DIMTVP
 40
0
  9
$DIMTIX
 70
    0
  9
$DIMSOXD
 70
    0
  9
$DIMSAH
 70
    0
  9
$DIMBLK1
  1

  9
$DIMBLK2
  1

  9
$DIMSTYLE
  2
STANDARD
  9
$DIMCLRD
 70
    0
  9
$DIMCLRE
 70
    0
  9
$DIMCLRT
 70
    0
  9
$DIMTFAC
 40
1
  9
$DIMGAP
 40
0.625
  9
$DIMJUST
 70
    0
  9
$DIMSD1
 70
    0
  9
$DIMSD2
 70
    0
  9
$DIMTOLJ
 70
    0
  9
$DIMTZIN
 70
    8
  9
$DIMALTZ
 70
    0
  9
$DIMALTTZ
 70
    0
  9
$DIMUPT
 70
    0
  9
$DIMDEC
 70
    4
  9
$DIMTDEC
 70
    2
  9
$DIMALTU
 70
    2
  9
$DIMALTTD
 70
    3
  9
$DIMTXSTY
  7
standard
  9
$DIMAUNIT
 70
    0
  9
$DIMADEC
 70
    2
  9
$DIMALTRND
 40
0
  9
$DIMAZIN
 70
    0
  9
$DIMDSEP
 70
   44
  9
$DIMATFIT
 70
    3
  9
$DIMFRAC
 70
    0
  9
$DIMLDRBLK
  1
STANDARD
  9
$DIMLUNIT
 70
    2
  9
$DIMLWD
 70
   -2
  9
$DIMLWE
 70
   -2
  9
$DIMTMOVE
 70
    0
  9
$DIMFXL
 40
1
  9
$DIMFXLON
 70
    0
  9
$DIMJOGANG
 40
0.7854
  9
$DIMTFILL
 70
    0
  9
$DIMTFILLCLR
 70
    0
  9
$DIMARCSYM
 70
    0
  9
$DIMLTYPE
  6

  9
$DIMLTEX1
  6

  9
$DIMLTEX2
  6

  9
$LUNITS
 70
    2
  9
$LUPREC
 70
    4
  9
$SKETCHINC
 40
1
  9
$FILLETRAD
 40
0
  9
$AUNITS
 70
    0
  9
$AUPREC
 70
    2
  9
$MENU
  1
.
  9
$ELEVATION
 40
0
  9
$PELEVATION
 40
0
  9
$THICKNESS
 40
0
  9
$LIMCHECK
 70
    0
  9
$CHAMFERA
 40
0
  9
$CHAMFERB
 40
0
  9
$CHAMFERC
 40
0
  9
$CHAMFERD
 40
0
  9
$SKPOLY
 70
    0
  9
$USRTIMER
 70
    1
  9
$ANGBASE
 50
0
  9
$ANGDIR
 70
    0
  9
$PDMODE
 70
   34
  9
$PDSIZE
 40
0
  9
$PLINEWID
 40
0
  9
$SPLFRAME
 70
    0
  9
$SPLINETYPE
 70
    2
  9
$SPLINESEGS
 70
    8
  9
$HANDSEED
  5
20000
  9
$SURFTAB1
 70
    6
  9
$SURFTAB2
 70
    6
  9
$SURFTYPE
 70
    6
  9
$SURFU
 70
    6
  9
$SURFV
 70
    6
  9
$UCSBASE
  2

  9
$UCSNAME
  2

  9
$UCSORG
 10
0
 20
0
 30
0
  9
$UCSXDIR
 10
1
 20
0
 30
0
  9
$UCSYDIR
 10
0
 20
1
 30
0
  9
$UCSORTHOREF
  2

  9
$UCSORTHOVIEW
 70
    0
  9
$UCSORGTOP
 10
0
 20
0
 30
0
  9
$UCSORGBOTTOM
 10
0
 20
0
 30
0
  9
$UCSORGLEFT
 10
0
 20
0
 30
0
  9
$UCSORGRIGHT
 10
0
 20
0
 30
0
  9
$UCSORGFRONT
 10
0
 20
0
 30
0
  9
$UCSORGBACK
 10
0
 20
0
 30
0
  9
$PUCSBASE
  2

  9
$PUCSNAME
  2

  9
$PUCSORG
 10
0
 20
0
 30
0
  9
$PUCSXDIR
 10
1
 20
0
 30
0
  9
$PUCSYDIR
 10
0
 20
1
 30
0
  9
$PUCSORTHOREF
  2

  9
$PUCSORTHOVIEW
 70
    0
  9
$PUCSORGTOP
 10
0
 20
0
 30
0
  9
$PUCSORGBOTTOM
 10
0
 20
0
 30
0
  9
$PUCSORGLEFT
 10
0
 20
0
 30
0
  9
$PUCSORGRIGHT
 10
0
 20
0
 30
0
  9
$PUCSORGFRONT
 10
0
 20
0
 30
0
  9
$PUCSORGBACK
 10
0
 20
0
 30
0
  9
$USERI1
 70
    0
  9
$USERI2
 70
    0
  9
$USERI3
 70
    0
  9
$USERI4
 70
    0
  9
$USERI5
 70
    0
  9
$USERR1
 40
0
  9
$USERR2
 40
0
  9
$USERR3
 40
0
  9
$USERR4
 40
0
  9
$USERR5
 40
0
  9
$WORLDVIEW
 70
    1
  9
$SHADEDGE
 70
    3
  9
$SHADEDIF
 70
   70
  9
$TILEMODE
 70
    1
  9
$MAXACTVP
 70
   64
  9
$PINSBASE
 10
6.285410133227346
 20
2.779425515842174
 30
0
  9
$PLIMCHECK
 70
    0
  9
$PEXTMIN
 10
0
 20
0
 30
0
  9
$PEXTMAX
 10
0
 20
0
 30
0
  9
$GRIDMODE
 70
    1
  9
$SNAPSTYLE
 70
    0
  9
$GRIDUNIT
 10
0
 20
0
  9
$PLIMMIN
 10
0
 20
0
  9
$PLIMMAX
 10
11
 20
8.5
  9
$UNITMODE
 70
    0
  9
$VISRETAIN
 70
    1
  9
$PLINEGEN
 70
    0
  9
$PSLTSCALE
 70
    1
  9
$TREEDEPTH
 70
 3020
  9
$CMLSTYLE
  2
Standard
  9
$CMLJUST
 70
    0
  9
$CMLSCALE
 40
20
  9
$PROXYGRAPHICS
 70
    1
  9
$MEASUREMENT
 70
    1
  9
$CELWEIGHT
370
   -1
  9
$ENDCAPS
280
    0
  9
$JOINSTYLE
280
    0
  9
$LWDISPLAY
290
    0
  9
$INSUNITS
 70
    1
  9
$HYPERLINKBASE
  1

  9
$STYLESHEET
  1

  9
$XEDIT
290
    1
  9
$CEPSNTYPE
380
    0
  9
$PSTYLEMODE
290
    1
  9
$EXTNAMES
290
    1
  9
$PSVPSCALE
 40
0.6666666666666666
  9
$OLESTARTUP
290
    0
  9
$SORTENTS
280
  127
  9
$INDEXCTL
280
    0
  9
$HIDETEXT
280
    1
  9
$XCLIPFRAME
290
    0
  9
$HALOGAP
280
    0
  9
$OBSCOLOR
 70
  257
  9
$OBSLTYPE
280
    0
  9
$INTERSECTIONDISPLAY
280
    0
  9
$INTERSECTIONCOLOR
 70
  257
  9
$DIMASSOC
280
    1
  9
$PROJECTNAME
  1

  9
$CAMERADISPLAY
290
    0
  9
$LENSLENGTH
 40
50
  9
$CAMERAHEIGHT
 40
0
  9
$STEPSPERSEC
 40
2
  9
$STEPSIZE
 40
50
  9
$3DDWFPREC
 40
2
  9
$PSOLWIDTH
 40
5
  9
$PSOLHEIGHT
 40
80
  9
$LOFTANG1
 40
1.570796326794897
  9
$LOFTANG2
 40
1.570796326794897
  9
$LOFTMAG1
 40
0
  9
$LOFTMAG2
 40
0
  9
$LOFTPARAM
 70
    7
  9
$LOFTNORMALS
280
    1
  9
$LATITUDE
 40
1
  9
$LONGITUDE
 40
1
  9
$NORTHDIRECTION
 40
0
  9
$TIMEZONE
 70
-8000
  9
$LIGHTGLYPHDISPLAY
280
    1
  9
$TILEMODELIGHTSYNCH
280
    1
  9
$SOLIDHIST
280
    1
  9
$SHOWHIST
280
    1
  9
$DWFFRAME
280
    2
  9
$DGNFRAME
280
    0
  9
$REALWORLDSCALE
290
    1
  9
$INTERFERECOLOR
 62
    1
  9
$CSHADOW
280
    0
  9
$SHADOWPLANELOCATION
 40
0
  0
ENDSEC
  0
SECTION
  2
CLASSES
  0
ENDSEC
  0
SECTION
  2
TABLES
  0
TABLE
  2
VPORT
  5
8
330
0
100
AcDbSymbolTable
 70
    1
  0
VPORT
  5
31
330
2
100
AcDbSymbolTableRecord
100
AcDbViewportTableRecord
  2
*ACTIVE
 70
    0
 10
0
 20
0
 11
1
 21
1
 12
4.147531846337675
 22
3.881830587431668
 13
0
 23
0
 14
10
 24
10
 15
10
 25
10
 16
0
 26
0
 36
1
 17
0
 27
0
 37
0
 40
12.20281635414663
 41
1.810408921933085
 42
50
 43
0
 44
0
 50
0
 51
0
 71
    0
 72
  100
 73
    1
 74
    3
 75
    0
 76
    1
 77
    0
 78
    0
281
    0
 65
    1
110
0
120
0
130
0
111
1
121
0
131
0
112
0
122
1
132
0
 79
    0
146
0
348
10020
 60
    7
 61
    5
292
1
282
    1
141
0
142
0
 63
  250
421
3358443
  0
ENDTAB
  0
TABLE
  2
LTYPE
  5
5
330
0
100
AcDbSymbolTable
 70
    4
  0
LTYPE
  5
14
330
5
100
AcDbSymbolTableRecord
100
AcDbLinetypeTableRecord
  2
ByBlock
 70
    0
  3

 72
   65
 73
    0
 40
0
  0
LTYPE
  5
15
330
5
100
AcDbSymbolTableRecord
100
AcDbLinetypeTableRecord
  2
ByLayer
 70
    0
  3

 72
   65
 73
    0
 40
0
  0
LTYPE
  5
16
330
5
100
AcDbSymbolTableRecord
100
AcDbLinetypeTableRecord
  2
Continuous
 70
    0
  3
Solid line
 72
   65
 73
    0
 40
0
  0
LTYPE
  5
32
330
5
100
AcDbSymbolTableRecord
100
AcDbLinetypeTableRecord
  2
DOT
 70
    0
  3
Dot . . . . . . . . . . . . . . . . . . . . . .
 72
   65
 73
    2
 40
6.35
 49
0
 74
    0
 49
-6.35
 74
    0
  0
LTYPE
  5
33
330
5
100
AcDbSymbolTableRecord
100
AcDbLinetypeTableRecord
  2
DOTTINY
 70
    0
  3
Dot (.15x) .....................................
 72
   65
 73
    2
 40
0.9525
 49
0
 74
    0
 49
-0.9525
 74
    0
  0
LTYPE
  5
34
330
5
100
AcDbSymbolTableRecord
100
AcDbLinetypeTableRecord
  2
DOT2
 70
    0
  3
Dot (.5x) .....................................
 72
   65
 73
    2
 40
3.175
 49
0
 74
    0
 49
-3.175
 74
    0
  0
LTYPE
  5
35
330
5
100
AcDbSymbolTableRecord
100
AcDbLinetypeTableRecord
  2
DOTX2
 70
    0
  3
Dot (2x) .  .  .  .  .  .  .  .  .  .  .  .  .
 72
   65
 73
    2
 40
12.7
 49
0
 74
    0
 49
-12.7
 74
    0
  0
LTYPE
  5
36
330
5
100
AcDbSymbolTableRecord
100
AcDbLinetypeTableRecord
  2
DASHED
 70
    0
  3
Dashed _ _ _ _ _ _ _ _ _ _ _ _ _ _ _ _ _
 72
   65
 73
    2
 40
19.05
 49
12.7
 74
    0
 49
-6.35
 74
    0
  0
LTYPE
  5
37
330
5
100
AcDbSymbolTableRecord
100
AcDbLinetypeTableRecord
  2
DASHEDTINY
 70
    0
  3
Dashed (.15x) _ _ _ _ _ _ _ _ _ _ _ _ _ _ _ _ _
 72
   65
 73
    2
 40
2.8575
 49
1.905
 74
    0
 49
-0.9525
 74
    0
  0
LTYPE
  5
38
330
5
100
AcDbSymbolTableRecord
100
AcDbLinetypeTableRecord
  2
DASHED2
 70
    0
  3
Dashed (.5x) _ _ _ _ _ _ _ _ _ _ _ _ _ _ _ _ _
 72
   65
 73
    2
 40
9.524999999999999
 49
6.35
 74
    0
 49
-3.175
 74
    0
  0
LTYPE
  5
39
330
5
100
AcDbSymbolTableRecord
100
AcDbLinetypeTableRecord
  2
DASHEDX2
 70
    0
  3
Dashed (2x) ____  ____  ____  ____  ____  ___
 72
   65
 73
    2
 40
38.09999999999999
 49
25.4
 74
    0
 49
-12.7
 74
    0
  0
LTYPE
  5
3A
330
5
100
AcDbSymbolTableRecord
100
AcDbLinetypeTableRecord
  2
DASHDOT
 70
    0
  3
Dash dot __ . __ . __ . __ . __ . __ . __ . __
 72
   65
 73
    4
 40
25.4
 49
12.7
 74
    0
 49
-6.35
 74
    0
 49
0
 74
    0
 49
-6.35
 74
    0
  0
LTYPE
  5
3B
330
5
100
AcDbSymbolTableRecord
100
AcDbLinetypeTableRecord
  2
DASHDOTTINY
 70
    0
  3
Dash dot (.15x) _._._._._._._._._._._._._._._.
 72
   65
 73
    4
 40
3.81
 49
1.905
 74
    0
 49
-0.9525
 74
    0
 49
0
 74
    0
 49
-0.9525
 74
    0
  0
LTYPE
  5
3C
330
5
100
AcDbSymbolTableRecord
100
AcDbLinetypeTableRecord
  2
DASHDOT2
 70
    0
  3
Dash dot (.5x) _._._._._._._._._._._._._._._.
 72
   65
 73
    4
 40
12.7
 49
6.35
 74
    0
 49
-3.175
 74
    0
 49
0
 74
    0
 49
-3.175
 74
    0
  0
LTYPE
  5
3D
330
5
100
AcDbSymbolTableRecord
100
AcDbLinetypeTableRecord
  2
DASHDOTX2
 70
    0
  3
Dash dot (2x) ____  .  ____  .  ____  .  ___
 72
   65
 73
    4
 40
50.8
 49
25.4
 74
    0
 49
-12.7
 74
    0
 49
0
 74
    0
 49
-12.7
 74
    0
  0
LTYPE
  5
3E
330
5
100
AcDbSymbolTableRecord
100
AcDbLinetypeTableRecord
  2
DIVIDE
 70
    0
  3
Divide ____ . . ____ . . ____ . . ____ . . ____
 72
   65
 73
    6
 40
31.75
 49
12.7
 74
    0
 49
-6.35
 74
    0
 49
0
 74
    0
 49
-6.35
 74
    0
 49
0
 74
    0
 49
-6.35
 74
    0
  0
LTYPE
  5
3F
330
5
100
AcDbSymbolTableRecord
100
AcDbLinetypeTableRecord
  2
DIVIDETINY
 70
    0
  3
Divide (.15x) __..__..__..__..__..__..__..__.._
 72
   65
 73
    6
 40
4.7625
 49
1.905
 74
    0
 49
-0.9525
 74
    0
 49
0
 74
    0
 49
-0.9525
 74
    0
 49
0
 74
    0
 49
-0.9525
 74
    0
  0
LTYPE
  5
40
330
5
100
AcDbSymbolTableRecord
100
AcDbLinetypeTableRecord
  2
DIVIDE2
 70
    0
  3
Divide (.5x) __..__..__..__..__..__..__..__.._
 72
   65
 73
    6
 40
15.875
 49
6.35
 74
    0
 49
-3.175
 74
    0
 49
0
 74
    0
 49
-3.175
 74
    0
 49
0
 74
    0
 49
-3.175
 74
    0
  0
LTYPE
  5
41
330
5
100
AcDbSymbolTableRecord
100
AcDbLinetypeTableRecord
  2
DIVIDEX2
 70
    0
  3
Divide (2x) ________  .  .  ________  .  .  _
 72
   65
 73
    6
 40
63.5
 49
25.4
 74
    0
 49
-12.7
 74
    0
 49
0
 74
    0
 49
-12.7
 74
    0
 49
0
 74
    0
 49
-12.7
 74
    0
  0
LTYPE
  5
42
330
5
100
AcDbSymbolTableRecord
100
AcDbLinetypeTableRecord
  2
BORDER
 70
    0
  3
Border __ __ . __ __ . __ __ . __ __ . __ __ .
 72
   65
 73
    6
 40
44.45
 49
12.7
 74
    0
 49
-6.35
 74
    0
 49
12.7
 74
    0
 49
-6.35
 74
    0
 49
0
 74
    0
 49
-6.35
 74
    0
  0
LTYPE
  5
43
330
5
100
AcDbSymbolTableRecord
100
AcDbLinetypeTableRecord
  2
BORDERTINY
 70
    0
  3
Border (.15x) __.__.__.__.__.__.__.__.__.__.__.
 72
   65
 73
    6
 40
6.6675
 49
1.905
 74
    0
 49
-0.9525
 74
    0
 49
1.905
 74
    0
 49
-0.9525
 74
    0
 49
0
 74
    0
 49
-0.9525
 74
    0
  0
LTYPE
  5
44
330
5
100
AcDbSymbolTableRecord
100
AcDbLinetypeTableRecord
  2
BORDER2
 70
    0
  3
Border (.5x) __.__.__.__.__.__.__.__.__.__.__.
 72
   65
 73
    6
 40
22.225
 49
6.35
 74
    0
 49
-3.175
 74
    0
 49
6.35
 74
    0
 49
-3.175
 74
    0
 49
0
 74
    0
 49
-3.175
 74
    0
  0
LTYPE
  5
45
330
5
100
AcDbSymbolTableRecord
100
AcDbLinetypeTableRecord
  2
BORDERX2
 70
    0
  3
Border (2x) ____  ____  .  ____  ____  .  ___
 72
   65
 73
    6
 40
88.89999999999999
 49
25.4
 74
    0
 49
-12.7
 74
    0
 49
25.4
 74
    0
 49
-12.7
 74
    0
 49
0
 74
    0
 49
-12.7
 74
    0
  0
LTYPE
  5
46
330
5
100
AcDbSymbolTableRecord
100
AcDbLinetypeTableRecord
  2
CENTER
 70
    0
  3
Center ____ _ ____ _ ____ _ ____ _ ____ _ ____
 72
   65
 73
    4
 40
50.8
 49
31.75
 74
    0
 49
-6.35
 74
    0
 49
6.35
 74
    0
 49
-6.35
 74
    0
  0
LTYPE
  5
47
330
5
100
AcDbSymbolTableRecord
100
AcDbLinetypeTableRecord
  2
CENTERTINY
 70
    0
  3
Center (.15x) ___ _ ___ _ ___ _ ___ _ ___ _ ___
 72
   65
 73
    4
 40
7.619999999999999
 49
4.7625
 74
    0
 49
-0.9525
 74
    0
 49
0.9525
 74
    0
 49
-0.9525
 74
    0
  0
LTYPE
  5
48
330
5
100
AcDbSymbolTableRecord
100
AcDbLinetypeTableRecord
  2
CENTER2
 70
    0
  3
Center (.5x) ___ _ ___ _ ___ _ ___ _ ___ _ ___
 72
   65
 73
    4
 40
28.575
 49
19.05
 74
    0
 49
-3.175
 74
    0
 49
3.175
 74
    0
 49
-3.175
 74
    0
  0
LTYPE
  5
49
330
5
100
AcDbSymbolTableRecord
100
AcDbLinetypeTableRecord
  2
CENTERX2
 70
    0
  3
Center (2x) ________  __  ________  __  _____
 72
   65
 73
    4
 40
101.6
 49
63.5
 74
    0
 49
-12.7
 74
    0
 49
12.7
 74
    0
 49
-12.7
 74
    0
  0
ENDTAB
  0
TABLE
  2
LAYER
  5
2
330
0
100
AcDbSymbolTable
 70
    1
  0
LAYER
  5
4A
330
2
100
AcDbSymbolTableRecord
100
AcDbLayerTableRecord
  2
-45 left
 70
    1
 62
    7
  6
CONTINUOUS
370
   35
390
F
  0
LAYER
  5
10
330
2
100
AcDbSymbolTableRecord
100
AcDbLayerTableRecord
  2
0
 70
    0
 62
    7
  6
CONTINUOUS
370
    0
390
F
  0
LAYER
  5
4B
330
2
100
AcDbSymbolTableRecord
100
AcDbLayerTableRecord
  2
45 left
 70
    1
 62
    7
  6
CONTINUOUS
370
   35
390
F
  0
LAYER
  5
4C
330
2
100
AcDbSymbolTableRecord
100
AcDbLayerTableRecord
  2
45 right
 70
    1
 62
    7
  6
CONTINUOUS
370
    0
390
F
  0
LAYER
  5
4D
330
2
100
AcDbSymbolTableRecord
100
AcDbLayerTableRecord
  2
90 left
 70
    0
 62
    7
  6
CONTINUOUS
370
   35
390
F
  0
LAYER
  5
4E
330
2
100
AcDbSymbolTableRecord
100
AcDbLayerTableRecord
  2
90 right
 70
    1
 62
    7
  6
CONTINUOUS
370
    0
390
F
  0
ENDTAB
  0
TABLE
  2
STYLE
  5
3
330
0
100
AcDbSymbolTable
 70
    3
  0
STYLE
  5
4F
330
2
100
AcDbSymbolTableRecord
100
AcDbTextStyleTableRecord
  2
Standard
 70
    0
 40
0
 41
1
 50
0
 71
    0
 42
1
  3
txt
  4

  0
ENDTAB
  0
TABLE
  2
VIEW
  5
6
330
0
100
AcDbSymbolTable
 70
    0
  0
ENDTAB
  0
TABLE
  2
UCS
  5
7
330
0
100
AcDbSymbolTable
 70
    0
  0
ENDTAB
  0
TABLE
  2
APPID
  5
9
330
0
100
AcDbSymbolTable
 70
    1
  0
APPID
  5
12
330
9
100
AcDbSymbolTableRecord
100
AcDbRegAppTableRecord
  2
ACAD
 70
    0
  0
APPID
  5
50
330
9
100
AcDbSymbolTableRecord
100
AcDbRegAppTableRecord
  2
LibreCad
 70
    0
  0
ENDTAB
  0
TABLE
  2
DIMSTYLE
  5
A
330
0
100
AcDbSymbolTable
 70
    1
100
AcDbDimStyleTable
 71
    1
  0
DIMSTYLE
105
51
330
A
100
AcDbSymbolTableRecord
100
AcDbDimStyleTableRecord
  2
Standard
 70
    0
 40
0.1
 41
2.5
 42
0.625
 43
0.38
 44
1.25
 45
0
 46
0
 47
0
 48
0
 49
1
140
2.5
141
0.09
142
0
143
25.4
144
1
145
0
146
1
147
0.625
148
0
 71
    0
 72
    0
 73
    0
 74
    1
 75
    0
 76
    0
 77
    0
 78
    8
 79
    0
170
    0
171
    2
172
    0
173
    0
174
    0
175
    0
176
    0
177
    0
178
    0
179
    2
271
    4
272
    4
273
    2
274
    2
275
    0
276
    0
277
    2
278
   44
279
    0
280
    0
281
    0
282
    0
283
    1
284
    0
285
    0
286
    0
288
    0
289
    3
340
standard
341

371
   -2
372
   -2
  0
ENDTAB
  0
TABLE
  2
BLOCK_RECORD
  5
1
330
0
100
AcDbSymbolTable
 70
    2
  0
BLOCK_RECORD
  5
1F
330
1
100
AcDbSymbolTableRecord
100
AcDbBlockTableRecord
  2
*Model_Space
 70
    0
280
    1
281
    0
  0
BLOCK_RECORD
  5
1E
330
1
100
AcDbSymbolTableRecord
100
AcDbBlockTableRecord
  2
*Paper_Space
 70
    0
280
    1
281
    0
  0
BLOCK_RECORD
  5
52
330
1
100
AcDbSymbolTableRecord
100
AcDbBlockTableRecord
  2
*D10
 70
    0
280
    1
281
    0
  0
BLOCK_RECORD
  5
55
330
1
100
AcDbSymbolTableRecord
100
AcDbBlockTableRecord
  2
*D2
 70
    0
280
    1
281
    0
  0
BLOCK_RECORD
  5
58
330
1
100
AcDbSymbolTableRecord
100
AcDbBlockTableRecord
  2
*D3
 70
    0
280
    1
281
    0
  0
BLOCK_RECORD
  5
5B
330
1
100
AcDbSymbolTableRecord
100
AcDbBlockTableRecord
  2
*D4
 70
    0
280
    1
281
    0
  0
BLOCK_RECORD
  5
5E
330
1
100
AcDbSymbolTableRecord
100
AcDbBlockTableRecord
  2
*D8
 70
    0
280
    1
281
    0
  0
BLOCK_RECORD
  5
61
330
1
100
AcDbSymbolTableRecord
100
AcDbBlockTableRecord
  2
*D11
 70
    0
280
    1
281
    0
  0
BLOCK_RECORD
  5
64
330
1
100
AcDbSymbolTableRecord
100
AcDbBlockTableRecord
  2
*D12
 70
    0
280
    1
281
    0
  0
BLOCK_RECORD
  5
67
330
1
100
AcDbSymbolTableRecord
100
AcDbBlockTableRecord
  2
*D14
 70
    0
280
    1
281
    0
  0
BLOCK_RECORD
  5
6A
330
1
100
AcDbSymbolTableRecord
100
AcDbBlockTableRecord
  2
*D15
 70
    0
280
    1
281
    0
  0
BLOCK_RECORD
  5
6D
330
1
100
AcDbSymbolTableRecord
100
AcDbBlockTableRecord
  2
*D1
 70
    0
280
    1
281
    0
  0
BLOCK_RECORD
  5
70
330
1
100
AcDbSymbolTableRecord
100
AcDbBlockTableRecord
  2
*D9
 70
    0
280
    1
281
    0
  0
BLOCK_RECORD
  5
73
330
1
100
AcDbSymbolTableRecord
100
AcDbBlockTableRecord
  2
*D6
 70
    0
280
    1
281
    0
  0
BLOCK_RECORD
  5
76
330
1
100
AcDbSymbolTableRecord
100
AcDbBlockTableRecord
  2
*D7
 70
    0
280
    1
281
    0
  0
BLOCK_RECORD
  5
79
330
1
100
AcDbSymbolTableRecord
100
AcDbBlockTableRecord
  2
*D5
 70
    0
280
    1
281
    0
  0
BLOCK_RECORD
  5
7C
330
1
100
AcDbSymbolTableRecord
100
AcDbBlockTableRecord
  2
*D16
 70
    0
280
    1
281
    0
  0
BLOCK_RECORD
  5
7F
330
1
100
AcDbSymbolTableRecord
100
AcDbBlockTableRecord
  2
*D13
 70
    0
280
    1
281
    0
  0
ENDTAB
  0
ENDSEC
  0
SECTION
  2
BLOCKS
  0
BLOCK
  5
20
330
1F
100
AcDbEntity
  8
0
100
AcDbBlockBegin
  2
*Model_Space
 70
    0
 10
0
 20
0
 30
0
  3
*Model_Space
  1

  0
ENDBLK
  5
21
330
1F
100
AcDbEntity
  8
0
100
AcDbBlockEnd
  0
BLOCK
  5
1C
330
1B
100
AcDbEntity
  8
0
100
AcDbBlockBegin
  2
*Paper_Space
 70
    0
 10
0
 20
0
 30
0
  3
*Paper_Space
  1

  0
ENDBLK
  5
1D
330
1F
100
AcDbEntity
  8
0
100
AcDbBlockEnd
  0
BLOCK
  5
53
330
52
100
AcDbEntity
  8
0
100
AcDbBlockBegin
  2
*D10
 70
    1
 10
0
 20
0
  3
*D10
  1

  0
LINE
  5
82
100
AcDbEntity
  8
45 left
  6
ByBlock
 62
    0
370
   -2
100
AcDbLine
 10
-6.957106781186547
 20
-0.5624999999999992
 11
-6.957106781186547
 21
-1.180544831394962
  0
LINE
  5
83
100
AcDbEntity
  8
45 left
  6
ByBlock
 62
    0
370
   -2
100
AcDbLine
 10
-5.457106781186547
 20
-0.5624999999999993
 11
-5.457106781186547
 21
-1.180544831394962
  0
LINE
  5
84
100
AcDbEntity
  8
45 left
  6
ByBlock
 62
    0
370
   -2
100
AcDbLine
 10
-6.957106781186547
 20
-1.055544831394962
 11
-5.457106781186547
 21
-1.055544831394962
  0
SOLID
  5
85
100
AcDbEntity
  8
45 left
  6
ByBlock
 62
    0
370
   -2
100
AcDbTrace
 10
-6.957106781186547
 20
-1.055544831394962
 30
0
 11
-6.707106781186547
 21
-1.013916365617678
 31
0
 12
-6.707106781186547
 22
-1.097173297172246
 32
0
 13
-6.707106781186547
 23
-1.097173297172246
 33
0
  0
SOLID
  5
86
100
AcDbEntity
  8
45 left
  6
ByBlock
 62
    0
370
   -2
100
AcDbTrace
 10
-5.457106781186547
 20
-1.055544831394962
 30
0
 11
-5.707106781186547
 21
-1.097173297172246
 31
0
 12
-5.707106781186547
 22
-1.013916365617678
 32
0
 13
-5.707106781186547
 23
-1.013916365617678
 33
0
  0
MTEXT
  5
87
100
AcDbEntity
  8
45 left
  6
CONTINUOUS
 62
    0
370
   -2
100
AcDbMText
 10
-6.207106781186547
 20
-0.868044831394962
 30
0
 40
0.25
 41
0.3472222222222377
 71
    5
 72
    1
  1
1,5
  7
standard
210
0
220
0
230
1
 50
0
 73
    2
 44
1
  0
ENDBLK
  5
54
330
52
100
AcDbEntity
  8
0
100
AcDbBlockEnd
  0
BLOCK
  5
56
330
55
100
AcDbEntity
  8
0
100
AcDbBlockBegin
  2
*D2
 70
    1
 10
0
 20
0
  3
*D2
  1

  0
LINE
  5
88
100
AcDbEntity
  8
90 left
  6
ByBlock
 62
    0
370
   -2
100
AcDbLine
 10
-6
 20
-1.307957725858975
 11
-0.5
 21
-1.307957725858975
  0
SOLID
  5
89
100
AcDbEntity
  8
90 left
  6
ByBlock
 62
    0
370
   -2
100
AcDbTrace
 10
-6
 20
-1.307957725858975
 30
0
 11
-5.75
 21
-1.266329260081691
 31
0
 12
-5.75
 22
-1.349586191636259
 32
0
 13
-5.75
 23
-1.349586191636259
 33
0
  0
SOLID
  5
8A
100
AcDbEntity
  8
90 left
  6
ByBlock
 62
    0
370
   -2
100
AcDbTrace
 10
-0.5
 20
-1.307957725858975
 30
0
 11
-0.75
 21
-1.349586191636259
 31
0
 12
-0.75
 22
-1.266329260081691
 32
0
 13
-0.75
 23
-1.266329260081691
 33
0
  0
MTEXT
  5
8B
100
AcDbEntity
  8
90 left
  6
CONTINUOUS
 62
    0
370
   -2
100
AcDbMText
 10
-3.25
 20
-1.120457725858975
 30
0
 40
0.25
 41
0.4027777777778088
 71
    5
 72
    1
  1
5,5
  7
standard
210
0
220
0
230
1
 50
0
 73
    2
 44
1
  0
LINE
  5
8C
100
AcDbEntity
  8
90 left
  6
ByBlock
 62
    0
370
   -2
100
AcDbLine
 10
-6
 20
-0.5625
 11
-6
 21
-1.432957725858975
  0
LINE
  5
8D
100
AcDbEntity
  8
90 left
  6
ByBlock
 62
    0
370
   -2
100
AcDbLine
 10
-0.5
 20
-0.5625
 11
-0.5
 21
-1.432957725858975
  0
ENDBLK
  5
57
330
55
100
AcDbEntity
  8
0
100
AcDbBlockEnd
  0
BLOCK
  5
59
330
58
100
AcDbEntity
  8
0
100
AcDbBlockBegin
  2
*D3
 70
    1
 10
0
 20
0
  3
*D3
  1

  0
LINE
  5
8E
100
AcDbEntity
  8
90 left
  6
ByBlock
 62
    0
370
   -2
100
AcDbLine
 10
0.06249999999999988
 20
-2
 11
0.6871923558516644
 21
-2
  0
LINE
  5
8F
100
AcDbEntity
  8
90 left
  6
ByBlock
 62
    0
370
   -2
100
AcDbLine
 10
0.06249999999999997
 20
-0.5
 11
0.6871923558516645
 21
-0.5
  0
LINE
  5
90
100
AcDbEntity
  8
90 left
  6
ByBlock
 62
    0
370
   -2
100
AcDbLine
 10
0.5621923558516644
 20
-2
 11
0.5621923558516645
 21
-0.5
  0
SOLID
  5
91
100
AcDbEntity
  8
90 left
  6
ByBlock
 62
    0
370
   -2
100
AcDbTrace
 10
0.5621923558516644
 20
-2
 30
0
 11
0.5205638900743804
 21
-1.75
 31
0
 12
0.6038208216289485
 22
-1.75
 32
0
 13
0.6038208216289485
 23
-1.75
 33
0
  0
SOLID
  5
92
100
AcDbEntity
  8
90 left
  6
ByBlock
 62
    0
370
   -2
100
AcDbTrace
 10
0.5621923558516645
 20
-0.5
 30
0
 11
0.6038208216289486
 21
-0.75
 31
0
 12
0.5205638900743804
 22
-0.75
 32
0
 13
0.5205638900743804
 23
-0.75
 33
0
  0
MTEXT
  5
93
100
AcDbEntity
  8
90 left
  6
CONTINUOUS
 62
    0
370
   -2
100
AcDbMText
 10
0.3746923558516644
 20
-1.25
 30
0
 40
0.25
 41
0.3472222222222377
 71
    5
 72
    1
  1
1,5
  7
standard
210
0
220
0
230
1
 50
90
 73
    2
 44
1
  0
ENDBLK
  5
5A
330
58
100
AcDbEntity
  8
0
100
AcDbBlockEnd
  0
BLOCK
  5
5C
330
5B
100
AcDbEntity
  8
0
100
AcDbBlockBegin
  2
*D4
 70
    1
 10
0
 20
0
  3
*D4
  1

  0
LINE
  5
94
100
AcDbEntity
  8
90 left
  6
ByBlock
 62
    0
370
   -2
100
AcDbLine
 10
0.06249999999999988
 20
-2
 11
1.031391757393499
 21
-2
  0
LINE
  5
95
100
AcDbEntity
  8
90 left
  6
ByBlock
 62
    0
370
   -2
100
AcDbLine
 10
0.06250000000000043
 20
7
 11
1.0313917573935
 21
7
  0
LINE
  5
96
100
AcDbEntity
  8
90 left
  6
ByBlock
 62
    0
370
   -2
100
AcDbLine
 10
0.9063917573934994
 20
-2
 11
0.9063917573935
 21
7
  0
SOLID
  5
97
100
AcDbEntity
  8
90 left
  6
ByBlock
 62
    0
370
   -2
100
AcDbTrace
 10
0.9063917573934994
 20
-2
 30
0
 11
0.8647632916162155
 21
-1.75
 31
0
 12
0.9480202231707835
 22
-1.75
 32
0
 13
0.9480202231707835
 23
-1.75
 33
0
  0
SOLID
  5
98
100
AcDbEntity
  8
90 left
  6
ByBlock
 62
    0
370
   -2
100
AcDbTrace
 10
0.9063917573935
 20
7
 30
0
 11
0.948020223170784
 21
6.75
 31
0
 12
0.8647632916162159
 22
6.75
 32
0
 13
0.8647632916162159
 23
6.75
 33
0
  0
MTEXT
  5
99
100
AcDbEntity
  8
90 left
  6
CONTINUOUS
 62
    0
370
   -2
100
AcDbMText
 10
0.7188917573934996
 20
2.5
 30
0
 40
0.25
 41
0.1111111111111266
 71
    5
 72
    1
  1
9
  7
standard
210
0
220
0
230
1
 50
90
 73
    2
 44
1
  0
ENDBLK
  5
5D
330
5B
100
AcDbEntity
  8
0
100
AcDbBlockEnd
  0
BLOCK
  5
5F
330
5E
100
AcDbEntity
  8
0
100
AcDbBlockBegin
  2
*D8
 70
    1
 10
0
 20
0
  3
*D8
  1

  0
LINE
  5
9A
100
AcDbEntity
  8
45 left
  6
ByBlock
 62
    0
370
   -2
100
AcDbLine
 10
-0.207106781186548
 20
-0.5624999999999996
 11
-0.2071067811865474
 21
-1.559164173090982
  0
LINE
  5
9B
100
AcDbEntity
  8
45 left
  6
ByBlock
 62
    0
370
   -2
100
AcDbLine
 10
-6.957106781186547
 20
-0.5624999999999992
 11
-6.957106781186546
 21
-1.559164173090981
  0
LINE
  5
9C
100
AcDbEntity
  8
45 left
  6
ByBlock
 62
    0
370
   -2
100
AcDbLine
 10
-0.2071067811865474
 20
-1.434164173090982
 11
-6.957106781186546
 21
-1.434164173090981
  0
SOLID
  5
9D
100
AcDbEntity
  8
45 left
  6
ByBlock
 62
    0
370
   -2
100
AcDbTrace
 10
-0.2071067811865474
 20
-1.434164173090982
 30
0
 11
-0.4571067811865475
 21
-1.475792638868266
 31
0
 12
-0.4571067811865475
 22
-1.392535707313697
 32
0
 13
-0.4571067811865475
 23
-1.392535707313697
 33
0
  0
SOLID
  5
9E
100
AcDbEntity
  8
45 left
  6
ByBlock
 62
    0
370
   -2
100
AcDbTrace
 10
-6.957106781186546
 20
-1.434164173090981
 30
0
 11
-6.707106781186546
 21
-1.392535707313697
 31
0
 12
-6.707106781186546
 22
-1.475792638868265
 32
0
 13
-6.707106781186546
 23
-1.475792638868265
 33
0
  0
MTEXT
  5
9F
100
AcDbEntity
  8
45 left
  6
CONTINUOUS
 62
    0
370
   -2
100
AcDbMText
 10
-3.582106781186547
 20
-1.246664173090981
 30
0
 40
0.25
 41
0.5972222222222532
 71
    5
 72
    1
  1
6,75
  7
standard
210
0
220
0
230
1
 50
360
 73
    2
 44
1
  0
ENDBLK
  5
60
330
5E
100
AcDbEntity
  8
0
100
AcDbBlockEnd
  0
BLOCK
  5
62
330
61
100
AcDbEntity
  8
0
100
AcDbBlockBegin
  2
*D11
 70
    1
 10
0
 20
0
  3
*D11
  1

  0
LINE
  5
A0
100
AcDbEntity
  8
-45 left
  6
ByBlock
 62
    0
370
   -2
100
AcDbLine
 10
-2.309359216769114
 20
-1.690640783230885
 11
-2.009134816121867
 21
-1.990865183878131
  0
LINE
  5
A1
100
AcDbEntity
  8
-45 left
  6
ByBlock
 62
    0
370
   -2
100
AcDbLine
 10
-1.162912607362388
 20
-0.5441941738241591
 11
-0.8626882067151415
 21
-0.8444185744714051
  0
LINE
  5
A2
100
AcDbEntity
  8
-45 left
  6
ByBlock
 62
    0
370
   -2
100
AcDbLine
 10
-2.097523163770186
 20
-1.902476836229813
 11
-0.9510765543634599
 21
-0.7560302268230867
  0
SOLID
  5
A3
100
AcDbEntity
  8
-45 left
  6
ByBlock
 62
    0
370
   -2
100
AcDbTrace
 10
-2.097523163770186
 20
-1.902476836229813
 30
0
 11
-1.950182238915059
 21
-1.696264370491666
 31
0
 12
-1.89131069803204
 22
-1.755135911374686
 32
0
 13
-1.89131069803204
 23
-1.755135911374686
 33
0
  0
SOLID
  5
A4
100
AcDbEntity
  8
-45 left
  6
ByBlock
 62
    0
370
   -2
100
AcDbTrace
 10
-0.9510765543634599
 20
-0.7560302268230867
 30
0
 11
-1.098417479218587
 21
-0.9622426925612333
 31
0
 12
-1.157289020101607
 22
-0.9033711516782139
 32
0
 13
-1.157289020101607
 23
-0.9033711516782139
 33
0
  0
MTEXT
  5
A5
100
AcDbEntity
  8
-45 left
  6
CONTINUOUS
 62
    0
370
   -2
100
AcDbMText
 10
-1.656882380539301
 20
-1.196671010053972
 30
0
 40
0.25
 41
0.8750000000000311
 71
    5
 72
    1
  1
1,6213
  7
standard
210
0
220
0
230
1
 50
45
 73
    2
 44
1
  0
ENDBLK
  5
63
330
61
100
AcDbEntity
  8
0
100
AcDbBlockEnd
  0
BLOCK
  5
65
330
64
100
AcDbEntity
  8
0
100
AcDbBlockBegin
  2
*D12
 70
    1
 10
0
 20
0
  3
*D12
  1

  0
LINE
  5
A6
100
AcDbEntity
  8
-45 left
  6
ByBlock
 62
    0
370
   -2
100
AcDbLine
 10
5.232233047033633
 20
6.00183982822018
 11
5.232233047033633
 21
6.251749347444671
  0
LINE
  5
A7
100
AcDbEntity
  8
-45 left
  6
ByBlock
 62
    0
370
   -2
100
AcDbLine
 10
-0.7677669529663689
 20
6.00183982822018
 11
-0.7677669529663689
 21
6.251749347444671
  0
LINE
  5
A8
100
AcDbEntity
  8
-45 left
  6
ByBlock
 62
    0
370
   -2
100
AcDbLine
 10
5.232233047033633
 20
6.126749347444671
 11
-0.7677669529663689
 21
6.126749347444671
  0
SOLID
  5
A9
100
AcDbEntity
  8
-45 left
  6
ByBlock
 62
    0
370
   -2
100
AcDbTrace
 10
5.232233047033633
 20
6.126749347444671
 30
0
 11
4.982233047033633
 21
6.085120881667387
 31
0
 12
4.982233047033633
 22
6.168377813221954
 32
0
 13
4.982233047033633
 23
6.168377813221954
 33
0
  0
SOLID
  5
AA
100
AcDbEntity
  8
-45 left
  6
ByBlock
 62
    0
370
   -2
100
AcDbTrace
 10
-0.7677669529663689
 20
6.126749347444671
 30
0
 11
-0.5177669529663689
 21
6.168377813221954
 31
0
 12
-0.5177669529663689
 22
6.085120881667386
 32
0
 13
-0.5177669529663689
 23
6.085120881667386
 33
0
  0
MTEXT
  5
AB
100
AcDbEntity
  8
-45 left
  6
CONTINUOUS
 62
    0
370
   -2
100
AcDbMText
 10
2.232233047033632
 20
6.314249347444671
 30
0
 40
0.25
 41
0.1111111111111266
 71
    5
 72
    1
  1
6
  7
standard
210
0
220
0
230
1
 50
360
 73
    2
 44
1
  0
ENDBLK
  5
66
330
64
100
AcDbEntity
  8
0
100
AcDbBlockEnd
  0
BLOCK
  5
68
330
67
100
AcDbEntity
  8
0
100
AcDbBlockBegin
  2
*D14
 70
    1
 10
0
 20
0
  3
*D14
  1

  0
LINE
  5
AC
100
AcDbEntity
  8
-45 left
  6
ByBlock
 62
    0
370
   -2
100
AcDbLine
 10
-5.457106781186548
 20
-0.5625000000000002
 11
-5.457106781186549
 21
-3.153954733568153
  0
LINE
  5
AD
100
AcDbEntity
  8
-45 left
  6
ByBlock
 62
    0
370
   -2
100
AcDbLine
 10
4.949747468305832
 20
-0.5625
 11
4.949747468305831
 21
-3.153954733568152
  0
LINE
  5
AE
100
AcDbEntity
  8
-45 left
  6
ByBlock
 62
    0
370
   -2
100
AcDbLine
 10
-5.457106781186549
 20
-3.028954733568153
 11
4.949747468305831
 21
-3.028954733568152
  0
SOLID
  5
AF
100
AcDbEntity
  8
-45 left
  6
ByBlock
 62
    0
370
   -2
100
AcDbTrace
 10
-5.457106781186549
 20
-3.028954733568153
 30
0
 11
-5.207106781186549
 21
-2.987326267790869
 31
0
 12
-5.207106781186549
 22
-3.070583199345437
 32
0
 13
-5.207106781186549
 23
-3.070583199345437
 33
0
  0
SOLID
  5
B0
100
AcDbEntity
  8
-45 left
  6
ByBlock
 62
    0
370
   -2
100
AcDbTrace
 10
4.949747468305831
 20
-3.028954733568152
 30
0
 11
4.699747468305831
 21
-3.070583199345436
 31
0
 12
4.699747468305831
 22
-2.987326267790868
 32
0
 13
4.699747468305831
 23
-2.987326267790868
 33
0
  0
MTEXT
  5
B1
100
AcDbEntity
  8
-45 left
  6
CONTINUOUS
 62
    0
370
   -2
100
AcDbMText
 10
-0.2536796564403589
 20
-2.841454733568153
 30
0
 40
0.25
 41
1.152777777777793
 71
    5
 72
    1
  1
10,4069
  7
standard
210
0
220
0
230
1
 50
0
 73
    2
 44
1
  0
ENDBLK
  5
69
330
67
100
AcDbEntity
  8
0
100
AcDbBlockEnd
  0
BLOCK
  5
6B
330
6A
100
AcDbEntity
  8
0
100
AcDbBlockBegin
  2
*D15
 70
    1
 10
0
 20
0
  3
*D15
  1

  0
LINE
  5
B2
100
AcDbEntity
  8
-45 left
  6
ByBlock
 62
    0
370
   -2
100
AcDbLine
 10
-6.207106781186548
 20
-0.5625
 11
-6.207106781186548
 21
-1.146124891240779
  0
LINE
  5
B3
100
AcDbEntity
  8
-45 left
  6
ByBlock
 62
    0
370
   -2
100
AcDbLine
 10
-5.457106781186548
 20
-0.5625000000000002
 11
-5.457106781186548
 21
-1.146124891240779
  0
LINE
  5
B4
100
AcDbEntity
  8
-45 left
  6
ByBlock
 62
    0
370
   -2
100
AcDbLine
 10
-6.207106781186548
 20
-1.021124891240779
 11
-5.457106781186548
 21
-1.021124891240779
  0
SOLID
  5
B5
100
AcDbEntity
  8
-45 left
  6
ByBlock
 62
    0
370
   -2
100
AcDbTrace
 10
-6.207106781186548
 20
-1.021124891240779
 30
0
 11
-5.957106781186548
 21
-0.9794964254634948
 31
0
 12
-5.957106781186548
 22
-1.062753357018063
 32
0
 13
-5.957106781186548
 23
-1.062753357018063
 33
0
  0
SOLID
  5
B6
100
AcDbEntity
  8
-45 left
  6
ByBlock
 62
    0
370
   -2
100
AcDbTrace
 10
-5.457106781186548
 20
-1.021124891240779
 30
0
 11
-5.707106781186548
 21
-1.062753357018063
 31
0
 12
-5.707106781186548
 22
-0.979496425463495
 32
0
 13
-5.707106781186548
 23
-0.979496425463495
 33
0
  0
MTEXT
  5
B7
100
AcDbEntity
  8
-45 left
  6
CONTINUOUS
 62
    0
370
   -2
100
AcDbMText
 10
-5.832106781186548
 20
-0.8336248912407789
 30
0
 40
0.25
 41
0.5972222222222376
 71
    5
 72
    1
  1
0,75
  7
standard
210
0
220
0
230
1
 50
360
 73
    2
 44
1
  0
ENDBLK
  5
6C
330
6A
100
AcDbEntity
  8
0
100
AcDbBlockEnd
  0
BLOCK
  5
6E
330
6D
100
AcDbEntity
  8
0
100
AcDbBlockBegin
  2
*D1
 70
    1
 10
0
 20
0
  3
*D1
  1

  0
LINE
  5
B8
100
AcDbEntity
  8
90 left
  6
ByBlock
 62
    0
370
   -2
100
AcDbLine
 10
-5.5
 20
-2.478235691101215
 11
3.5
 21
-2.478235691101215
  0
SOLID
  5
B9
100
AcDbEntity
  8
90 left
  6
ByBlock
 62
    0
370
   -2
100
AcDbTrace
 10
-5.5
 20
-2.478235691101215
 30
0
 11
-5.25
 21
-2.436607225323931
 31
0
 12
-5.25
 22
-2.519864156878499
 32
0
 13
-5.25
 23
-2.519864156878499
 33
0
  0
SOLID
  5
BA
100
AcDbEntity
  8
90 left
  6
ByBlock
 62
    0
370
   -2
100
AcDbTrace
 10
3.5
 20
-2.478235691101215
 30
0
 11
3.25
 21
-2.519864156878499
 31
0
 12
3.25
 22
-2.436607225323931
 32
0
 13
3.25
 23
-2.436607225323931
 33
0
  0
MTEXT
  5
BB
100
AcDbEntity
  8
90 left
  6
CONTINUOUS
 62
    0
370
   -2
100
AcDbMText
 10
-1
 20
-2.290735691101215
 30
0
 40
0.25
 41
0.1111111111111266
 71
    5
 72
    1
  1
9
  7
standard
210
0
220
0
230
1
 50
0
 73
    2
 44
1
  0
LINE
  5
BC
100
AcDbEntity
  8
90 left
  6
ByBlock
 62
    0
370
   -2
100
AcDbLine
 10
-5.5
 20
-0.5625000000000001
 11
-5.5
 21
-2.603235691101215
  0
LINE
  5
BD
100
AcDbEntity
  8
90 left
  6
ByBlock
 62
    0
370
   -2
100
AcDbLine
 10
3.5
 20
-0.5625
 11
3.5
 21
-2.603235691101215
  0
ENDBLK
  5
6F
330
6D
100
AcDbEntity
  8
0
100
AcDbBlockEnd
  0
BLOCK
  5
71
330
70
100
AcDbEntity
  8
0
100
AcDbBlockBegin
  2
*D9
 70
    1
 10
0
 20
0
  3
*D9
  1

  0
LINE
  5
BE
100
AcDbEntity
  8
45 left
  6
ByBlock
 62
    0
370
   -2
100
AcDbLine
 10
-5.457106781186547
 20
-0.5624999999999996
 11
-5.457106781186547
 21
-2.58028906433176
  0
LINE
  5
BF
100
AcDbEntity
  8
45 left
  6
ByBlock
 62
    0
370
   -2
100
AcDbLine
 10
5.449747468305832
 20
-0.5625
 11
5.449747468305832
 21
-2.58028906433176
  0
LINE
  5
C0
100
AcDbEntity
  8
45 left
  6
ByBlock
 62
    0
370
   -2
100
AcDbLine
 10
-5.457106781186547
 20
-2.45528906433176
 11
5.449747468305832
 21
-2.45528906433176
  0
SOLID
  5
C1
100
AcDbEntity
  8
45 left
  6
ByBlock
 62
    0
370
   -2
100
AcDbTrace
 10
-5.457106781186547
 20
-2.45528906433176
 30
0
 11
-5.207106781186547
 21
-2.413660598554475
 31
0
 12
-5.207106781186547
 22
-2.496917530109044
 32
0
 13
-5.207106781186547
 23
-2.496917530109044
 33
0
  0
SOLID
  5
C2
100
AcDbEntity
  8
45 left
  6
ByBlock
 62
    0
370
   -2
100
AcDbTrace
 10
5.449747468305832
 20
-2.45528906433176
 30
0
 11
5.199747468305832
 21
-2.496917530109044
 31
0
 12
5.199747468305832
 22
-2.413660598554476
 32
0
 13
5.199747468305832
 23
-2.413660598554476
 33
0
  0
MTEXT
  5
C3
100
AcDbEntity
  8
45 left
  6
CONTINUOUS
 62
    0
370
   -2
100
AcDbMText
 10
-0.003679656440357604
 20
-2.26778906433176
 30
0
 40
0.25
 41
1.125000000000016
 71
    5
 72
    1
  1
10,9069
  7
standard
210
0
220
0
230
1
 50
0
 73
    2
 44
1
  0
ENDBLK
  5
72
330
70
100
AcDbEntity
  8
0
100
AcDbBlockEnd
  0
BLOCK
  5
74
330
73
100
AcDbEntity
  8
0
100
AcDbBlockBegin
  2
*D6
 70
    1
 10
0
 20
0
  3
*D6
  1

  0
LINE
  5
C4
100
AcDbEntity
  8
45 left
  6
ByBlock
 62
    0
370
   -2
100
AcDbLine
 10
-0.1446067811865477
 20
-0.5
 11
-0.08210678118654749
 21
-0.5
  0
LINE
  5
C5
100
AcDbEntity
  8
45 left
  6
ByBlock
 62
    0
370
   -2
100
AcDbLine
 10
1.708946609406726
 20
-2.353553390593274
 11
1.771446609406726
 21
-2.353553390593274
  0
LINE
  5
C6
100
AcDbEntity
  8
45 left
  6
ByBlock
 62
    0
370
   -2
100
AcDbLine
 10
-0.2071067811865475
 20
-0.5
 11
1.646446609406726
 21
-2.353553390593274
  0
SOLID
  5
C7
100
AcDbEntity
  8
45 left
  6
ByBlock
 62
    0
370
   -2
100
AcDbTrace
 10
-0.2071067811865475
 20
-0.5
 30
0
 11
-0.0008943154484009619
 21
-0.6473409248551272
 31
0
 12
-0.05976585633142031
 22
-0.7062124657381466
 32
0
 13
-0.05976585633142031
 23
-0.7062124657381466
 33
0
  0
SOLID
  5
C8
100
AcDbEntity
  8
45 left
  6
ByBlock
 62
    0
370
   -2
100
AcDbTrace
 10
1.646446609406726
 20
-2.353553390593274
 30
0
 11
1.44023414366858
 21
-2.206212465738147
 31
0
 12
1.499105684551599
 22
-2.147340924855127
 32
0
 13
1.499105684551599
 23
-2.147340924855127
 33
0
  0
MTEXT
  5
C9
100
AcDbEntity
  8
45 left
  6
CONTINUOUS
 62
    0
370
   -2
100
AcDbMText
 10
0.8522524355825671
 20
-1.294194173824159
 30
0
 40
0.25
 41
0.9305555555555866
 71
    5
 72
    1
  1
2,6213
  7
standard
210
0
220
0
230
1
 50
315
 73
    2
 44
1
  0
ENDBLK
  5
75
330
73
100
AcDbEntity
  8
0
100
AcDbBlockEnd
  0
BLOCK
  5
77
330
76
100
AcDbEntity
  8
0
100
AcDbBlockBegin
  2
*D7
 70
    1
 10
0
 20
0
  3
*D7
  1

  0
LINE
  5
CA
100
AcDbEntity
  8
-45 left
  6
ByBlock
 62
    0
370
   -2
100
AcDbLine
 10
-1.955805826175841
 20
-2.044194173824159
 11
-1.085533088651275
 21
-2.914466911348725
  0
LINE
  5
CB
100
AcDbEntity
  8
-45 left
  6
ByBlock
 62
    0
370
   -2
100
AcDbLine
 10
7.044194173824157
 20
6.95580582617584
 11
7.914466911348723
 21
6.085533088651274
  0
LINE
  5
CC
100
AcDbEntity
  8
-45 left
  6
ByBlock
 62
    0
370
   -2
100
AcDbLine
 10
-1.173921436299593
 20
-2.826078563700407
 11
7.826078563700404
 21
6.173921436299592
  0
SOLID
  5
CD
100
AcDbEntity
  8
-45 left
  6
ByBlock
 62
    0
370
   -2
100
AcDbTrace
 10
-1.173921436299593
 20
-2.826078563700407
 30
0
 11
-1.026580511444466
 21
-2.619866097962261
 31
0
 12
-0.9677089705614466
 22
-2.67873763884528
 32
0
 13
-0.9677089705614466
 23
-2.67873763884528
 33
0
  0
SOLID
  5
CE
100
AcDbEntity
  8
-45 left
  6
ByBlock
 62
    0
370
   -2
100
AcDbTrace
 10
7.826078563700404
 20
6.173921436299592
 30
0
 11
7.678737638845277
 21
5.967708970561445
 31
0
 12
7.619866097962258
 22
6.026580511444465
 32
0
 13
7.619866097962258
 23
6.026580511444465
 33
0
  0
MTEXT
  5
CF
100
AcDbEntity
  8
-45 left
  6
CONTINUOUS
 62
    0
370
   -2
100
AcDbMText
 10
3.193496042227928
 20
1.80650395777207
 30
0
 40
0.25
 41
1.125
 71
    5
 72
    1
  1
12,7279
  7
standard
210
0
220
0
230
1
 50
45
 73
    2
 44
1
  0
ENDBLK
  5
78
330
76
100
AcDbEntity
  8
0
100
AcDbBlockEnd
  0
BLOCK
  5
7A
330
79
100
AcDbEntity
  8
0
100
AcDbBlockBegin
  2
*D5
 70
    1
 10
0
 20
0
  3
*D5
  1

  0
LINE
  5
D0
100
AcDbEntity
  8
45 left
  6
ByBlock
 62
    0
370
   -2
100
AcDbLine
 10
-6.95580582617584
 20
7.04419417382416
 11
-6.429732490193111
 21
7.570267509806887
  0
LINE
  5
D1
100
AcDbEntity
  8
45 left
  6
ByBlock
 62
    0
370
   -2
100
AcDbLine
 10
2.044194173824159
 20
-1.955805826175841
 11
2.570267509806889
 21
-1.429732490193113
  0
LINE
  5
D2
100
AcDbEntity
  8
45 left
  6
ByBlock
 62
    0
370
   -2
100
AcDbLine
 10
-6.518120837841429
 20
7.481879162158569
 11
2.48187916215857
 21
-1.518120837841432
  0
SOLID
  5
D3
100
AcDbEntity
  8
45 left
  6
ByBlock
 62
    0
370
   -2
100
AcDbTrace
 10
-6.518120837841429
 20
7.481879162158569
 30
0
 11
-6.311908372103282
 21
7.334538237303441
 31
0
 12
-6.370779912986301
 22
7.275666696420422
 32
0
 13
-6.370779912986301
 23
7.275666696420422
 33
0
  0
SOLID
  5
D4
100
AcDbEntity
  8
45 left
  6
ByBlock
 62
    0
370
   -2
100
AcDbTrace
 10
2.48187916215857
 20
-1.518120837841432
 30
0
 11
2.275666696420423
 21
-1.370779912986305
 31
0
 12
2.334538237303443
 22
-1.311908372103285
 32
0
 13
2.334538237303443
 23
-1.311908372103285
 33
0
  0
MTEXT
  5
D5
100
AcDbEntity
  8
45 left
  6
CONTINUOUS
 62
    0
370
   -2
100
AcDbMText
 10
-1.885538316368952
 20
3.114461683631046
 30
0
 40
0.25
 41
1.125
 71
    5
 72
    1
  1
12,7279
  7
standard
210
0
220
0
230
1
 50
315
 73
    2
 44
1
  0
ENDBLK
  5
7B
330
79
100
AcDbEntity
  8
0
100
AcDbBlockEnd
  0
BLOCK
  5
7D
330
7C
100
AcDbEntity
  8
0
100
AcDbBlockBegin
  2
*D16
 70
    1
 10
0
 20
0
  3
*D16
  1

  0
LINE
  5
D6
100
AcDbEntity
  8
-45 left
  6
ByBlock
 62
    0
370
   -2
100
AcDbLine
 10
-6.207106781186548
 20
-0.5625
 11
-6.207106781186548
 21
-1.719790560477171
  0
LINE
  5
D7
100
AcDbEntity
  8
-45 left
  6
ByBlock
 62
    0
370
   -2
100
AcDbLine
 10
-1.207106781186547
 20
-0.5625
 11
-1.207106781186547
 21
-1.719790560477171
  0
LINE
  5
D8
100
AcDbEntity
  8
-45 left
  6
ByBlock
 62
    0
370
   -2
100
AcDbLine
 10
-6.207106781186548
 20
-1.594790560477171
 11
-1.207106781186547
 21
-1.594790560477171
  0
SOLID
  5
D9
100
AcDbEntity
  8
-45 left
  6
ByBlock
 62
    0
370
   -2
100
AcDbTrace
 10
-6.207106781186548
 20
-1.594790560477171
 30
0
 11
-5.957106781186548
 21
-1.553162094699887
 31
0
 12
-5.957106781186548
 22
-1.636419026254455
 32
0
 13
-5.957106781186548
 23
-1.636419026254455
 33
0
  0
SOLID
  5
DA
100
AcDbEntity
  8
-45 left
  6
ByBlock
 62
    0
370
   -2
100
AcDbTrace
 10
-1.207106781186547
 20
-1.594790560477171
 30
0
 11
-1.457106781186547
 21
-1.636419026254455
 31
0
 12
-1.457106781186547
 22
-1.553162094699887
 32
0
 13
-1.457106781186547
 23
-1.553162094699887
 33
0
  0
MTEXT
  5
DB
100
AcDbEntity
  8
-45 left
  6
CONTINUOUS
 62
    0
370
   -2
100
AcDbMText
 10
-3.707106781186547
 20
-1.407290560477171
 30
0
 40
0.25
 41
0.1111111111111266
 71
    5
 72
    1
  1
5
  7
standard
210
0
220
0
230
1
 50
0
 73
    2
 44
1
  0
ENDBLK
  5
7E
330
7C
100
AcDbEntity
  8
0
100
AcDbBlockEnd
  0
BLOCK
  5
80
330
7F
100
AcDbEntity
  8
0
100
AcDbBlockBegin
  2
*D13
 70
    1
 10
0
 20
0
  3
*D13
  1

  0
LINE
  5
DC
100
AcDbEntity
  8
-45 left
  6
ByBlock
 62
    0
370
   -2
100
AcDbLine
 10
5.276427220857792
 20
5.89514565439602
 11
5.588124934889766
 21
5.583447940364047
  0
LINE
  5
DD
100
AcDbEntity
  8
-45 left
  6
ByBlock
 62
    0
370
   -2
100
AcDbLine
 10
6.690640783230886
 20
7.309359216769113
 11
7.002338497262859
 21
6.99766150273714
  0
LINE
  5
DE
100
AcDbEntity
  8
-45 left
  6
ByBlock
 62
    0
370
   -2
100
AcDbLine
 10
5.499736587241448
 20
5.671836288012365
 11
6.913950149614541
 21
7.086049850385458
  0
SOLID
  5
DF
100
AcDbEntity
  8
-45 left
  6
ByBlock
 62
    0
370
   -2
100
AcDbTrace
 10
5.499736587241448
 20
5.671836288012365
 30
0
 11
5.647077512096575
 21
5.878048753750512
 31
0
 12
5.705949052979594
 22
5.819177212867492
 32
0
 13
5.705949052979594
 23
5.819177212867492
 33
0
  0
SOLID
  5
E0
100
AcDbEntity
  8
-45 left
  6
ByBlock
 62
    0
370
   -2
100
AcDbTrace
 10
6.913950149614541
 20
7.086049850385458
 30
0
 11
6.766609224759414
 21
6.879837384647312
 31
0
 12
6.707737683876394
 22
6.938708925530331
 32
0
 13
6.707737683876394
 23
6.938708925530331
 33
0
  0
MTEXT
  5
E1
100
AcDbEntity
  8
-45 left
  6
CONTINUOUS
 62
    0
370
   -2
100
AcDbMText
 10
6.074260846955517
 20
6.511525590671389
 30
0
 40
0.25
 41
0.1111111111111111
 71
    5
 72
    1
  1
2
  7
standard
210
0
220
0
230
1
 50
45
 73
    2
 44
1
  0
ENDBLK
  5
81
330
7F
100
AcDbEntity
  8
0
100
AcDbBlockEnd
  0
ENDSEC
  0
SECTION
  2
ENTITIES
  0
LINE
  5
E2
100
AcDbEntity
  8
90 left
  6
ByLayer
 62
  256
370
   -1
100
AcDbLine
 10
0
 20
0
 11
-1.377727649040772e-16
 21
-0.75
  0
LINE
  5
E3
100
AcDbEntity
  8
90 left
  6
ByLayer
 62
  256
370
   -1
100
AcDbLine
 10
-1.224646799147353e-16
 20
-2
 11
4.286263797015736e-16
 21
7
  0
LINE
  5
E4
100
AcDbEntity
  8
90 left
  6
ByLayer
 62
  256
370
   -1
100
AcDbLine
 10
-6
 20
-0.5
 11
3.5
 21
-0.5
  0
LINE
  5
E5
100
AcDbEntity
  8
90 left
  6
ByLayer
 62
  256
370
   -1
100
AcDbLine
 10
3.5
 20
0
 11
3.5
 21
-0.5
  0
LINE
  5
E6
100
AcDbEntity
  8
90 left
  6
ByLayer
 62
  256
370
   -1
100
AcDbLine
 10
-6
 20
0.5
 11
-6
 21
-0.5
  0
LINE
  5
E7
100
AcDbEntity
  8
90 left
  6
ByLayer
 62
  256
370
   -1
100
AcDbLine
 10
-5.5
 20
0
 11
3.5
 21
0
  0
LINE
  5
E8
100
AcDbEntity
  8
90 left
  6
ByLayer
 62
  256
370
   -1
100
AcDbLine
 10
-5.5
 20
0
 11
-5.5
 21
-0.5000000000000001
  0
LINE
  5
E9
100
AcDbEntity
  8
90 right
  6
ByLayer
 62
  256
370
   -1
100
AcDbLine
 10
0
 20
0
 11
4.592425496802575e-17
 21
-0.75
  0
LINE
  5
EA
100
AcDbEntity
  8
90 right
  6
ByLayer
 62
  256
370
   -1
100
AcDbLine
 10
-1.224646799147353e-16
 20
-2
 11
4.286263797015736e-16
 21
7
  0
LINE
  5
EB
100
AcDbEntity
  8
90 right
  6
ByLayer
 62
  256
370
   -1
100
AcDbLine
 10
6
 20
0.4999999999999991
 11
6
 21
-0.5000000000000009
  0
LINE
  5
EC
100
AcDbEntity
  8
90 right
  6
ByLayer
 62
  256
370
   -1
100
AcDbLine
 10
5.5
 20
-8.881784197001252e-16
 11
5.5
 21
-0.5000000000000008
  0
LINE
  5
ED
100
AcDbEntity
  8
45 left
  6
ByLayer
 62
  256
370
   -1
100
AcDbLine
 10
2
 20
-2
 11
-6.999999999999999
 21
7
  0
LINE
  5
EE
100
AcDbEntity
  8
90 left
  6
ByLayer
 62
  256
370
   -1
100
AcDbLine
 10
-0.5000000000000001
 20
-2
 11
-0.4999999999999996
 21
7
  0
LINE
  5
EF
100
AcDbEntity
  8
90 left
  6
ByLayer
 62
  256
370
   -1
100
AcDbLine
 10
-6
 20
0.5
 11
-0.4999999999999999
 21
0.5
  0
LINE
  5
F0
100
AcDbEntity
  8
90 left
  6
ByLayer
 62
  256
370
   -1
100
AcDbLine
 10
-0.5000000000000001
 20
-2
 11
-1.224646799147353e-16
 21
-2
  0
LINE
  5
F1
100
AcDbEntity
  8
90 left
  6
ByLayer
 62
  256
370
   -1
100
AcDbLine
 10
-0.4999999999999996
 20
7
 11
4.286263797015736e-16
 21
7
  0
LINE
  5
F2
100
AcDbEntity
  8
90 left
  6
ByLayer
 62
  256
370
   -1
100
AcDbLine
 10
-6
 20
0.5
 11
-0.4999999999999996
 21
7
  0
LINE
  5
F3
100
AcDbEntity
  8
90 left
  6
ByLayer
 62
  256
370
   -1
100
AcDbLine
 10
-0.5000000000000001
 20
1.154976398689477
 11
-3.00050815037546
 21
3.270790987468712
  0
LINE
  5
F4
100
AcDbEntity
  8
90 left
  6
ByLayer
 62
  256
370
   -1
100
AcDbLine
 10
-0.5000000000000001
 20
0.4999999999999994
 11
-3.323479271108547
 21
2.889097844784154
  0
LINE
  5
F5
100
AcDbEntity
  8
90 left
  6
ByLayer
 62
  256
370
   -1
100
AcDbLine
 10
-5.345023601310524
 20
0.5
 11
-0.4999999999999996
 21
6.225936983366982
  0
LINE
  5
F6
100
AcDbEntity
  8
90 right
  6
ByLayer
 62
  256
370
   -1
100
AcDbLine
 10
0.4999999999999999
 20
-2
 11
0.5000000000000004
 21
7
  0
LINE
  5
F7
100
AcDbEntity
  8
90 right
  6
ByLayer
 62
  256
370
   -1
100
AcDbLine
 10
-1.25
 20
-0.4999999999999998
 11
-1.25
 21
4.20311021013119e-16
  0
LINE
  5
F8
100
AcDbEntity
  8
90 right
  6
ByLayer
 62
  256
370
   -1
100
AcDbLine
 10
-1.224646799147353e-16
 20
-2
 11
0.4999999999999999
 21
-2
  0
LINE
  5
F9
100
AcDbEntity
  8
90 right
  6
ByLayer
 62
  256
370
   -1
100
AcDbLine
 10
0.5000000000000004
 20
7
 11
4.286263797015736e-16
 21
7
  0
LINE
  5
FA
100
AcDbEntity
  8
90 right
  6
ByLayer
 62
  256
370
   -1
100
AcDbLine
 10
5.5
 20
-8.881784197001252e-16
 11
-1.25
 21
4.440892098500627e-16
  0
LINE
  5
FB
100
AcDbEntity
  8
90 right
  6
ByLayer
 62
  256
370
   -1
100
AcDbLine
 10
6
 20
-0.5000000000000009
 11
-1.25
 21
-0.4999999999999998
  0
LINE
  5
FC
100
AcDbEntity
  8
90 right
  6
ByLayer
 62
  256
370
   -1
100
AcDbLine
 10
6
 20
0.4999999999999991
 11
0.5
 21
0.4999999999999999
  0
LINE
  5
FD
100
AcDbEntity
  8
90 right
  6
ByLayer
 62
  256
370
   -1
100
AcDbLine
 10
0.5000000000000004
 20
7
 11
6
 21
0.4999999999999991
  0
LINE
  5
FE
100
AcDbEntity
  8
90 right
  6
ByLayer
 62
  256
370
   -1
100
AcDbLine
 10
0.5000000000000003
 20
6.225936983366982
 11
5.345023601310523
 21
0.4999999999999992
  0
LINE
  5
FF
100
AcDbEntity
  8
90 right
  6
ByLayer
 62
  256
370
   -1
100
AcDbLine
 10
0.4999999999999999
 20
0.4999999999999999
 11
3.323479271108547
 21
2.889097844784153
  0
LINE
  5
100
100
AcDbEntity
  8
90 right
  6
ByLayer
 62
  256
370
   -1
100
AcDbLine
 10
0.5
 20
1.154976398689477
 11
3.00050815037546
 21
3.270790987468711
  0
LINE
  5
101
100
AcDbEntity
  8
45 left
  6
ByLayer
 62
  256
370
   -1
100
AcDbLine
 10
1.646446609406726
 20
-2.353553390593274
 11
-7.353553390593273
 21
6.646446609406726
  0
LINE
  5
102
100
AcDbEntity
  8
45 left
  6
ByLayer
 62
  256
370
   -1
100
AcDbLine
 10
5.449747468305832
 20
0
 11
5.449747468305832
 21
-0.5
  0
LINE
  5
103
100
AcDbEntity
  8
45 left
  6
ByLayer
 62
  256
370
   -1
100
AcDbLine
 10
1.646446609406726
 20
-2.353553390593274
 11
2
 21
-2
  0
LINE
  5
104
100
AcDbEntity
  8
45 left
  6
ByLayer
 62
  256
370
   -1
100
AcDbLine
 10
-6.999999999999999
 20
7
 11
-7.353553390593273
 21
6.646446609406726
  0
LINE
  5
105
100
AcDbEntity
  8
45 right
  6
ByLayer
 62
  256
370
   -1
100
AcDbLine
 10
-2
 20
-2
 11
6.999999999999999
 21
7
  0
LINE
  5
106
100
AcDbEntity
  8
45 right
  6
ByLayer
 62
  256
370
   -1
100
AcDbLine
 10
-1.646446609406726
 20
-2.353553390593274
 11
7.353553390593273
 21
6.646446609406726
  0
LINE
  5
107
100
AcDbEntity
  8
45 right
  6
ByLayer
 62
  256
370
   -1
100
AcDbLine
 10
-1.646446609406726
 20
-2.353553390593274
 11
-2
 21
-2
  0
LINE
  5
108
100
AcDbEntity
  8
45 right
  6
ByLayer
 62
  256
370
   -1
100
AcDbLine
 10
6.999999999999999
 20
7
 11
7.353553390593273
 21
6.646446609406726
  0
LINE
  5
109
100
AcDbEntity
  8
45 right
  6
ByLayer
 62
  256
370
   -1
100
AcDbLine
 10
5.5
 20
-0.5
 11
5.5
 21
0
  0
LINE
  5
10A
100
AcDbEntity
  8
45 right
  6
ByLayer
 62
  256
370
   -1
100
AcDbLine
 10
6.853553390593273
 20
6.146446609406723
 11
6.853553390593274
 21
-0.5
  0
LINE
  5
10B
100
AcDbEntity
  8
45 right
  6
ByLayer
 62
  256
370
   -1
100
AcDbLine
 10
1.207106781186548
 20
0.5
 11
6.853553390593274
 21
0.5
  0
LINE
  5
10C
100
AcDbEntity
  8
45 right
  6
ByLayer
 62
  256
370
   -1
100
AcDbLine
 10
6.353553390593273
 20
5.646446609406723
 11
6.353553390593273
 21
0.5
  0
LINE
  5
10D
100
AcDbEntity
  8
45 right
  6
ByLayer
 62
  256
370
   -1
100
AcDbLine
 10
3.78033008588991
 20
3.073223304703362
 11
6.353553390593274
 21
0.5
  0
LINE
  5
10E
100
AcDbEntity
  8
45 right
  6
ByLayer
 62
  256
370
   -1
100
AcDbLine
 10
3.426776695296637
 20
2.719669914110089
 11
5.646446609406725
 21
0.5
  0
LINE
  5
10F
100
AcDbEntity
  8
45 right
  6
ByLayer
 62
  256
370
   -1
100
AcDbLine
 10
-2.267766952966369
 20
0
 11
5.5
 21
0
  0
LINE
  5
110
100
AcDbEntity
  8
45 right
  6
ByLayer
 62
  256
370
   -1
100
AcDbLine
 10
-2.267766952966369
 20
-0.5
 11
6.853553390593274
 21
-0.5
  0
LINE
  5
111
100
AcDbEntity
  8
45 right
  6
ByLayer
 62
  256
370
   -1
100
AcDbLine
 10
-2.267766952966369
 20
0
 11
-2.267766952966369
 21
-0.5
  0
LINE
  5
112
100
AcDbEntity
  8
-45 left
  6
ByLayer
 62
  256
370
   -1
100
AcDbLine
 10
6.999999999999999
 20
7
 11
-2
 21
-2
  0
LINE
  5
113
100
AcDbEntity
  8
-45 left
  6
ByLayer
 62
  256
370
   -1
100
AcDbLine
 10
6.646446609406726
 20
7.353553390593274
 11
-2.353553390593273
 21
-1.646446609406726
  0
LINE
  5
114
100
AcDbEntity
  8
-45 left
  6
ByLayer
 62
  256
370
   -1
100
AcDbLine
 10
4.949747468305832
 20
0
 11
4.949747468305832
 21
-0.5
  0
LINE
  5
115
100
AcDbEntity
  8
-45 left
  6
ByLayer
 62
  256
370
   -1
100
AcDbLine
 10
-2
 20
-2
 11
-2.353553390593273
 21
-1.646446609406726
  0
LINE
  5
116
100
AcDbEntity
  8
-45 left
  6
ByLayer
 62
  256
370
   -1
100
AcDbLine
 10
6.646446609406726
 20
7.353553390593274
 11
6.999999999999999
 21
7
  0
DIMENSION
  5
117
100
AcDbEntity
  8
90 left
  6
ByLayer
 62
  256
370
   -1
100
AcDbDimension
  2
*D1
 10
3.5
 20
-2.478235691101215
 30
0
 11
-1
 21
-2.290735691101215
 31
0
 70
   32
 71
    5
 72
    0
  3
Standard
 53
0
210
0
220
0
230
1
100
AcDbAlignedDimension
 13
-5.5
 23
-0.5000000000000001
 33
0
 14
3.5
 24
-0.5
 34
0
100
AcDbRotatedDimension
  0
DIMENSION
  5
118
100
AcDbEntity
  8
90 left
  6
ByLayer
 62
  256
370
   -1
100
AcDbDimension
  2
*D2
 10
-0.5
 20
-1.307957725858975
 30
0
 11
-3.25
 21
-1.120457725858975
 31
0
 70
   32
 71
    5
 72
    0
  3
Standard
 53
0
210
0
220
0
230
1
100
AcDbAlignedDimension
 13
-6
 23
-0.5
 33
0
 14
-0.5
 24
-0.5
 34
0
100
AcDbRotatedDimension
  0
DIMENSION
  5
119
100
AcDbEntity
  8
90 left
  6
ByLayer
 62
  256
370
   -1
100
AcDbDimension
  2
*D3
 10
0.5621923558516645
 20
-0.5000000000000001
 30
0
 11
0.3746923558516644
 21
-1.25
 31
0
 70
   33
 71
    5
 72
    0
  3
Standard
 53
0
210
0
220
0
230
1
100
AcDbAlignedDimension
 13
-1.224646799147353e-16
 23
-2
 33
0
 14
-3.061616997868383e-17
 24
-0.5
 34
0
  0
DIMENSION
  5
11A
100
AcDbEntity
  8
90 left
  6
ByLayer
 62
  256
370
   -1
100
AcDbDimension
  2
*D4
 10
0.9063917573935
 20
7
 30
0
 11
0.7188917573934996
 21
2.5
 31
0
 70
   33
 71
    5
 72
    0
  3
Standard
 53
0
210
0
220
0
230
1
100
AcDbAlignedDimension
 13
-1.224646799147353e-16
 23
-2
 33
0
 14
4.286263797015736e-16
 24
7
 34
0
  0
DIMENSION
  5
11B
100
AcDbEntity
  8
45 left
  6
ByLayer
 62
  256
370
   -1
100
AcDbDimension
  2
*D5
 10
2.48187916215857
 20
-1.518120837841432
 30
0
 11
-1.885538316368952
 21
3.114461683631046
 31
0
 70
   33
 71
    5
 72
    0
  3
Standard
 53
0
210
0
220
0
230
1
100
AcDbAlignedDimension
 13
-6.999999999999999
 23
7
 33
0
 14
2
 24
-2
 34
0
  0
DIMENSION
  5
11C
100
AcDbEntity
  8
45 left
  6
ByLayer
 62
  256
370
   -1
100
AcDbDimension
  2
*D6
 10
1.646446609406726
 20
-2.353553390593274
 30
0
 11
0.8522524355825671
 21
-1.294194173824159
 31
0
 70
   33
 71
    5
 72
    0
  3
Standard
 53
0
210
0
220
0
230
1
100
AcDbAlignedDimension
 13
-0.2071067811865477
 23
-0.5
 33
0
 14
1.646446609406726
 24
-2.353553390593274
 34
0
  0
DIMENSION
  5
11D
100
AcDbEntity
  8
-45 left
  6
ByLayer
 62
  256
370
   -1
100
AcDbDimension
  2
*D7
 10
7.826078563700404
 20
6.173921436299592
 30
0
 11
3.193496042227928
 21
1.80650395777207
 31
0
 70
   33
 71
    5
 72
    0
  3
Standard
 53
0
210
0
220
0
230
1
100
AcDbAlignedDimension
 13
-2
 23
-2
 33
0
 14
6.999999999999997
 24
6.999999999999999
 34
0
  0
LINE
  5
11E
100
AcDbEntity
  8
45 left
  6
ByLayer
 62
  256
370
   -1
100
AcDbLine
 10
5.449747468305832
 20
-0.5
 11
-6.957106781186548
 21
-0.4999999999999992
  0
LINE
  5
11F
100
AcDbEntity
  8
45 left
  6
ByLayer
 62
  256
370
   -1
100
AcDbLine
 10
-1.207106781186548
 20
0.5
 11
-6.957106781186547
 21
0.5
  0
LINE
  5
120
100
AcDbEntity
  8
45 left
  6
ByLayer
 62
  256
370
   -1
100
AcDbLine
 10
-6.957106781186548
 20
6.25
 11
-6.957106781186547
 21
-0.4999999999999992
  0
LINE
  5
121
100
AcDbEntity
  8
45 left
  6
ByLayer
 62
  256
370
   -1
100
AcDbLine
 10
-6.457106781186549
 20
5.750000000000001
 11
-6.457106781186547
 21
0.5
  0
DIMENSION
  5
122
100
AcDbEntity
  8
45 left
  6
ByLayer
 62
  256
370
   -1
100
AcDbDimension
  2
*D8
 10
-6.957106781186546
 20
-1.434164173090981
 30
0
 11
-3.582106781186547
 21
-1.246664173090981
 31
0
 70
   33
 71
    5
 72
    0
  3
Standard
 53
0
210
0
220
0
230
1
100
AcDbAlignedDimension
 13
-0.2071067811865481
 23
-0.4999999999999996
 33
0
 14
-6.957106781186547
 24
-0.4999999999999992
 34
0
  0
LINE
  5
123
100
AcDbEntity
  8
45 left
  6
ByLayer
 62
  256
370
   -1
100
AcDbLine
 10
5.449747468305832
 20
0
 11
-5.457106781186547
 21
-0
  0
LINE
  5
124
100
AcDbEntity
  8
45 left
  6
ByLayer
 62
  256
370
   -1
100
AcDbLine
 10
-5.457106781186547
 20
-0
 11
-5.457106781186547
 21
-0.4999999999999996
  0
DIMENSION
  5
125
100
AcDbEntity
  8
45 left
  6
ByLayer
 62
  256
370
   -1
100
AcDbDimension
  2
*D9
 10
5.449747468305831
 20
-2.45528906433176
 30
0
 11
-0.003679656440357604
 21
-2.26778906433176
 31
0
 70
   33
 71
    5
 72
    0
  3
Standard
 53
0
210
0
220
0
230
1
100
AcDbAlignedDimension
 13
-5.457106781186547
 23
-0.4999999999999996
 33
0
 14
5.449747468305832
 24
-0.5
 34
0
  0
DIMENSION
  5
126
100
AcDbEntity
  8
45 left
  6
ByLayer
 62
  256
370
   -1
100
AcDbDimension
  2
*D10
 10
-5.457106781186547
 20
-1.055544831394962
 30
0
 11
-6.207106781186547
 21
-0.868044831394962
 31
0
 70
   33
 71
    5
 72
    0
  3
Standard
 53
0
210
0
220
0
230
1
100
AcDbAlignedDimension
 13
-6.957106781186547
 23
-0.4999999999999992
 33
0
 14
-5.457106781186547
 24
-0.4999999999999993
 34
0
  0
LINE
  5
127
100
AcDbEntity
  8
45 left
  6
ByLayer
 62
  256
370
   -1
100
AcDbLine
 10
-3.478553390593273
 20
2.771446609406726
 11
-5.750000000000001
 21
0.5
  0
LINE
  5
128
100
AcDbEntity
  8
45 left
  6
ByLayer
 62
  256
370
   -1
100
AcDbLine
 10
-3.832106781186547
 20
3.125
 11
-6.45710678118655
 21
0.5
  0
LINE
  5
129
100
AcDbEntity
  8
-45 left
  6
ByLayer
 62
  256
370
   -1
100
AcDbLine
 10
-6.207106781186548
 20
-0.5
 11
4.949747468305832
 21
-0.5
  0
LINE
  5
12A
100
AcDbEntity
  8
-45 left
  6
ByLayer
 62
  256
370
   -1
100
AcDbLine
 10
-6.207106781186548
 20
0.5
 11
-6.207106781186548
 21
-0.5
  0
LINE
  5
12B
100
AcDbEntity
  8
-45 left
  6
ByLayer
 62
  256
370
   -1
100
AcDbLine
 10
-6.207106781186548
 20
0.5
 11
-0.2071067811865474
 21
0.5
  0
LINE
  5
12C
100
AcDbEntity
  8
-45 left
  6
ByLayer
 62
  256
370
   -1
100
AcDbLine
 10
5.232233047033631
 20
5.939339828220179
 11
-0.7677669529663689
 21
5.939339828220179
  0
LINE
  5
12D
100
AcDbEntity
  8
-45 left
  6
ByLayer
 62
  256
370
   -1
100
AcDbLine
 10
-6.207106781186548
 20
0.5
 11
-0.7677669529663689
 21
5.939339828220179
  0
LINE
  5
12E
100
AcDbEntity
  8
-45 left
  6
ByLayer
 62
  256
370
   -1
100
AcDbLine
 10
4.732233047033632
 20
5.439339828220179
 11
-1.267766952966369
 21
5.43933982822018
  0
LINE
  5
12F
100
AcDbEntity
  8
-45 left
  6
ByLayer
 62
  256
370
   -1
100
AcDbLine
 10
-5.5
 20
0.5
 11
-0.560660171779821
 21
5.43933982822018
  0
LINE
  5
130
100
AcDbEntity
  8
-45 left
  6
ByLayer
 62
  256
370
   -1
100
AcDbLine
 10
-0.06066017177982097
 20
5.43933982822018
 11
-0.2071067811865474
 21
0.5
  0
LINE
  5
131
100
AcDbEntity
  8
-45 left
  6
ByLayer
 62
  256
370
   -1
100
AcDbLine
 10
-0.560660171779821
 20
5.43933982822018
 11
-0.7071067811865474
 21
0.5000000000000001
  0
LINE
  5
132
100
AcDbEntity
  8
-45 left
  6
ByLayer
 62
  256
370
   -1
100
AcDbLine
 10
-5.457106781186548
 20
0
 11
4.949747468305832
 21
0
  0
LINE
  5
133
100
AcDbEntity
  8
-45 left
  6
ByLayer
 62
  256
370
   -1
100
AcDbLine
 10
-5.457106781186548
 20
0
 11
-5.457106781186548
 21
-0.5000000000000002
  0
DIMENSION
  5
134
100
AcDbEntity
  8
-45 left
  6
ByLayer
 62
  256
370
   -1
100
AcDbDimension
  2
*D11
 10
-0.9510765543634597
 20
-0.7560302268230865
 30
0
 11
-1.656882380539301
 21
-1.196671010053972
 31
0
 70
   33
 71
    5
 72
    0
  3
Standard
 53
0
210
0
220
0
230
1
100
AcDbAlignedDimension
 13
-2.353553390593273
 23
-1.646446609406726
 33
0
 14
-1.207106781186547
 24
-0.5
 34
0
  0
DIMENSION
  5
135
100
AcDbEntity
  8
-45 left
  6
ByLayer
 62
  256
370
   -1
100
AcDbDimension
  2
*D12
 10
-0.7677669529663689
 20
6.126749347444671
 30
0
 11
2.232233047033632
 21
6.314249347444671
 31
0
 70
   33
 71
    5
 72
    0
  3
Standard
 53
0
210
0
220
0
230
1
100
AcDbAlignedDimension
 13
5.232233047033633
 23
5.93933982822018
 33
0
 14
-0.7677669529663689
 24
5.93933982822018
 34
0
  0
DIMENSION
  5
136
100
AcDbEntity
  8
-45 left
  6
ByLayer
 62
  256
370
   -1
100
AcDbDimension
  2
*D13
 10
6.913950149614541
 20
7.086049850385458
 30
0
 11
6.074260846955517
 21
6.511525590671389
 31
0
 70
   33
 71
    5
 72
    0
  3
Standard
 53
0
210
0
220
0
230
1
100
AcDbAlignedDimension
 13
5.232233047033633
 23
5.93933982822018
 33
0
 14
6.646446609406726
 24
7.353553390593273
 34
0
  0
DIMENSION
  5
137
100
AcDbEntity
  8
-45 left
  6
ByLayer
 62
  256
370
   -1
100
AcDbDimension
  2
*D14
 10
4.949747468305832
 20
-3.028954733568152
 30
0
 11
-0.2536796564403589
 21
-2.841454733568153
 31
0
 70
   33
 71
    5
 72
    0
  3
Standard
 53
0
210
0
220
0
230
1
100
AcDbAlignedDimension
 13
-5.457106781186548
 23
-0.5000000000000002
 33
0
 14
4.949747468305832
 24
-0.5
 34
0
  0
DIMENSION
  5
138
100
AcDbEntity
  8
-45 left
  6
ByLayer
 62
  256
370
   -1
100
AcDbDimension
  2
*D15
 10
-5.457106781186548
 20
-1.021124891240779
 30
0
 11
-5.832106781186548
 21
-0.8336248912407789
 31
0
 70
   33
 71
    5
 72
    0
  3
Standard
 53
0
210
0
220
0
230
1
100
AcDbAlignedDimension
 13
-6.207106781186548
 23
-0.5
 33
0
 14
-5.457106781186548
 24
-0.5000000000000002
 34
0
  0
DIMENSION
  5
139
100
AcDbEntity
  8
-45 left
  6
ByLayer
 62
  256
370
   -1
100
AcDbDimension
  2
*D16
 10
-1.207106781186547
 20
-1.594790560477171
 30
0
 11
-3.707106781186547
 21
-1.407290560477171
 31
0
 70
   33
 71
    5
 72
    0
  3
Standard
 53
0
210
0
220
0
230
1
100
AcDbAlignedDimension
 13
-6.207106781186548
 23
-0.5
 33
0
 14
-1.207106781186547
 24
-0.5
 34
0
  0
ENDSEC
  0
SECTION
  2
OBJECTS
  0
DICTIONARY
  5
C
330
0
100
AcDbDictionary
281
    1
  3
ACAD_GROUP
350
D
  0
DICTIONARY
  5
D
330
C
100
AcDbDictionary
281
    1
  0
ENDSEC
  0
EOF
